<svg xmlns="http://www.w3.org/2000/svg" xmlns:xlink="http://www.w3.org/1999/xlink" width="54.924" height="38.749" viewBox="0 0 54.924 38.749"><defs><clipPath id="a"><rect width="54.924" height="38.749" fill="#797979"/></clipPath></defs><g transform="translate(0 0)"><g transform="translate(0 0)" clip-path="url(#a)"><path d="M54.21,43.426H.713A.713.713,0,0,1,0,42.713V34.061a.713.713,0,0,1,.713-.713h53.5a.713.713,0,0,1,.713.713v8.651a.713.713,0,0,1-.713.713M1.427,42H53.5V34.774H1.427Z" transform="translate(0 -10.079)" fill="#797979"/><path d="M54.211,32.9H.714a.713.713,0,0,1-.537-1.183l3.778-4.326a.715.715,0,0,1,.537-.244h45.94a.713.713,0,0,1,.537.244l3.778,4.326a.713.713,0,0,1-.537,1.183M2.284,31.474H52.641l-2.532-2.9H4.816Z" transform="translate(0 -8.206)" fill="#797979"/><path d="M52.069,20.369H6.129a.714.714,0,0,1-.714-.714V3a3,3,0,0,1,3-3H49.782a3,3,0,0,1,3,3V19.656a.714.714,0,0,1-.713.714M6.842,18.943H51.356V3a1.576,1.576,0,0,0-1.574-1.574H8.416A1.576,1.576,0,0,0,6.842,3Z" transform="translate(-1.637 0)" fill="#797979"/><path d="M4.492,52.576H.713A.713.713,0,0,1,0,51.863v-5.4a.714.714,0,0,1,.713-.714H4.492a.714.714,0,0,1,.713.714v5.4a.713.713,0,0,1-.713.713M1.427,51.149H3.779V47.172H1.427Z" transform="translate(0 -13.826)" fill="#797979"/><path d="M75.747,52.576H71.969a.713.713,0,0,1-.713-.713v-5.4a.713.713,0,0,1,.713-.714h3.778a.713.713,0,0,1,.713.714v5.4a.713.713,0,0,1-.713.713m-3.065-1.427h2.352V47.172H72.682Z" transform="translate(-21.537 -13.826)" fill="#797979"/><path d="M29.71,23.413H15.059a.714.714,0,0,1-.714-.714V11.546a1.477,1.477,0,0,1,1.476-1.475H28.947a1.477,1.477,0,0,1,1.476,1.475V22.7a.714.714,0,0,1-.713.714M15.772,21.987H29V11.546a.049.049,0,0,0-.049-.049H15.821a.049.049,0,0,0-.049.049Z" transform="translate(-4.336 -3.044)" fill="#797979"/><path d="M56.692,23.413H42.042a.714.714,0,0,1-.714-.714V11.546A1.477,1.477,0,0,1,42.8,10.071H55.93A1.476,1.476,0,0,1,57.4,11.546V22.7a.714.714,0,0,1-.713.714M42.755,21.987H55.979V11.546a.049.049,0,0,0-.049-.049H42.8a.049.049,0,0,0-.049.049Z" transform="translate(-12.491 -3.044)" fill="#797979"/></g></g></svg>