<svg xmlns="http://www.w3.org/2000/svg" xmlns:xlink="http://www.w3.org/1999/xlink" width="25.61" height="32.812" viewBox="0 0 25.61 32.812"><defs><clipPath id="a"><rect width="25.61" height="32.812" fill="#fff"/></clipPath></defs><g clip-path="url(#a)"><path d="M25.212,0H2.132a.4.4,0,0,0-.4.4V3.058H.4a.4.4,0,1,0,0,.795H1.734V9.585H.4a.4.4,0,0,0,0,.795H1.734v5.732H.4a.4.4,0,1,0,0,.795H1.734V22.64H.4a.4.4,0,0,0,0,.795H1.734v5.319H.4a.4.4,0,1,0,0,.795H1.734v2.866a.4.4,0,0,0,.4.4H25.212a.4.4,0,0,0,.4-.4V.4a.4.4,0,0,0-.4-.4M6.734,32.017h-4.2V29.549H4.281a.4.4,0,1,0,0-.795H2.529V23.435H4.281a.4.4,0,1,0,0-.795H2.529V16.907H4.281a.4.4,0,1,0,0-.795H2.529V10.38H4.281a.4.4,0,1,0,0-.795H2.529V3.853H4.281a.4.4,0,1,0,0-.795H2.529V.795h4.2Zm18.081,0H7.528V.795H24.815Z" transform="translate(0)" fill="#fff"/><path d="M103.081,127H92.835a.4.4,0,0,1,0-.795h10.246a.4.4,0,1,1,0,.795" transform="translate(-81.945 -111.882)" fill="#fff"/><path d="M113.291,156.647h-7.354a.4.4,0,1,1,0-.795h7.354a.4.4,0,0,1,0,.795" transform="translate(-93.56 -138.161)" fill="#fff"/></g></svg>