<svg xmlns="http://www.w3.org/2000/svg" xmlns:xlink="http://www.w3.org/1999/xlink" width="57.593" height="38.749" viewBox="0 0 57.593 38.749"><defs><clipPath id="a"><rect width="57.593" height="38.749" transform="translate(0 0)" fill="none" stroke="#797979" stroke-width="1.5"/></clipPath></defs><g transform="translate(0 0)"><g clip-path="url(#a)"><path d="M8.474,36.171v1.978H48.731V36.171" fill="none" stroke="#797979" stroke-linecap="round" stroke-linejoin="round" stroke-width="1.5"/><path d="M33.142,4.877H24.451a2.138,2.138,0,0,1,0-4.277h8.691a2.138,2.138,0,1,1,0,4.277Z" fill="none" stroke="#797979" stroke-linecap="round" stroke-linejoin="round" stroke-width="1.5"/><line y2="5.794" transform="translate(30.802 4.877)" fill="none" stroke="#797979" stroke-linecap="round" stroke-linejoin="round" stroke-width="1.5"/><line y1="5.794" transform="translate(26.791 4.877)" fill="none" stroke="#797979" stroke-linecap="round" stroke-linejoin="round" stroke-width="1.5"/><path d="M49.086,28.186a20.493,20.493,0,0,0-40.579,0,2.322,2.322,0,0,0,.032,4.644H49.053a2.321,2.321,0,0,0,.033-4.642Z" fill="none" stroke="#797979" stroke-linecap="round" stroke-linejoin="round" stroke-width="1.5"/><path d="M33.293,16.038a15.856,15.856,0,0,1,8.853,6.8" fill="none" stroke="#797979" stroke-linecap="round" stroke-linejoin="round" stroke-width="1.5"/><line x2="34.673" transform="translate(8.507 28.184)" fill="none" stroke="#797979" stroke-linecap="round" stroke-linejoin="round" stroke-width="1.5"/><line y1="3.647" x2="2.981" transform="translate(44.742 7.837)" fill="none" stroke="#797979" stroke-linecap="round" stroke-linejoin="round" stroke-width="1.5"/><line y1="4.438" x2="6.269" transform="translate(49.402 12.04)" fill="none" stroke="#797979" stroke-linecap="round" stroke-linejoin="round" stroke-width="1.5"/><line y1="1.589" x2="4.434" transform="translate(52.559 20.947)" fill="none" stroke="#797979" stroke-linecap="round" stroke-linejoin="round" stroke-width="1.5"/><line x1="2.981" y1="3.647" transform="translate(9.87 7.837)" fill="none" stroke="#797979" stroke-linecap="round" stroke-linejoin="round" stroke-width="1.5"/><line x1="6.269" y1="4.438" transform="translate(1.922 12.04)" fill="none" stroke="#797979" stroke-linecap="round" stroke-linejoin="round" stroke-width="1.5"/><line x1="4.434" y1="1.589" transform="translate(0.6 20.947)" fill="none" stroke="#797979" stroke-linecap="round" stroke-linejoin="round" stroke-width="1.5"/></g></g></svg>