<svg xmlns="http://www.w3.org/2000/svg" xmlns:xlink="http://www.w3.org/1999/xlink" width="26.291" height="33.094" viewBox="0 0 26.291 33.094"><defs><clipPath id="a"><rect width="26.29" height="33.094" fill="#fff"/></clipPath></defs><g clip-path="url(#a)"><path d="M4.619,33.094A4.371,4.371,0,0,1,0,29.074c0-.019.005-.045.007-.075L1.957,7.033a.438.438,0,0,1,.437-.4H6.9l.007-.491a6.237,6.237,0,0,1,12.472,0l.008.491H23.9a.442.442,0,0,1,.437.4l1.956,22.021,0,.009a4.367,4.367,0,0,1-4.619,4.033ZM.885,29.078v.029a3.51,3.51,0,0,0,3.734,3.1H21.672a3.511,3.511,0,0,0,3.734-3.1v-.026L23.488,7.522H19.381V9.043l.052.016a1.952,1.952,0,1,1-.993-.037l.057-.013V7.522H7.787V9.029l.054.015a1.952,1.952,0,1,1-.993-.009L6.9,9.02v-1.5H2.8ZM18.4,9.773a1.247,1.247,0,1,0,1.094.076l-.109-.064V10.88a.442.442,0,0,1-.885,0V9.732ZM6.8,9.8a1.246,1.246,0,1,0,1.094.018l-.106-.054V10.88a.443.443,0,0,1-.885,0V9.751ZM13.145.885A5.381,5.381,0,0,0,7.794,6.121l-.011.509H18.507L18.5,6.121A5.379,5.379,0,0,0,13.145.885M18.435,16.2v3.634a1.732,1.732,0,0,1-1.329,1.688l-.034.009v8.454a.375.375,0,0,1-.749,0V21.533l-.034-.008a1.733,1.733,0,0,1-1.329-1.688V16.2a.375.375,0,0,1,.749,0v3.634a.983.983,0,0,0,.549.884l.064.032V16.2a.375.375,0,0,1,.749,0v4.55l.064-.032a.983.983,0,0,0,.549-.884V16.2a.375.375,0,0,1,.749,0m-6.2,3.625a2.193,2.193,0,0,1-1.781,2.152l-.036.007v7.992a.374.374,0,0,1-.749,0V21.987l-.036-.007a2.193,2.193,0,0,1-1.781-2.152c0-1.935.881-4.008,2.191-4.008s2.191,2.073,2.191,4.008m-.749,0a5.634,5.634,0,0,0-.467-2.275c-.284-.616-.649-.984-.976-.984s-.691.368-.976.984A5.625,5.625,0,0,0,8.6,19.827a1.443,1.443,0,1,0,2.885,0" fill="#fff"/></g></svg>