<svg xmlns="http://www.w3.org/2000/svg" xmlns:xlink="http://www.w3.org/1999/xlink" width="279.018" height="70.044" viewBox="0 0 279.018 70.044"><defs><clipPath id="a"><path d="M0,29.856H279.018V-40.188H0Z" transform="translate(0 40.188)" fill="none"/></clipPath></defs><g transform="translate(-36 81.188)"><g transform="translate(36 -81.188)" clip-path="url(#a)"><g transform="translate(0 0)"><path d="M10.469,2.394C17.955-.755,25.123-4.741,33.2-2.634c2.878.748,3.869,6.168.791,7.827a4.787,4.787,0,0,1-4.6-.03c-.99-.676-1.475-1.715-2.675-2.093a8.035,8.035,0,0,0-5.886.65C13.965,7.024,6.788,9.593,2.368,16.409c-1.02,1.555-.878,3.083-.474,4.784a4.976,4.976,0,0,0,2.825,3.294c6.1,2.44,10.879-2.592,18.328-1.389,1.922.305,3.965-1.736,6.128-2.241.422-.089,1.251.411,1.67.774,1.384,1.189,1.525,2.961,2.316,4.575.993,2.02.349,5.114-2.224,5.659-6.177,1.3-11.683,4.174-17.717,4.07-8.427-.139-17.128.073-24.829-4.145-4.49-2.473-1.82-7.932-.284-11.735.739-1.825,1.028-4.179,3.054-5.091a26.438,26.438,0,0,0,6.067-3.859c.49-.4.993-1.422,1.558-1.781C2.732,6.87,6.293,4.153,10.469,2.394" transform="translate(14.092 3.223)" fill="#080007"/></g><g transform="translate(43.44 13.913)"><path d="M6.261.646c3.59-.812,2.959,2.968,1.9,4.842C6.141,9.08,3.76,14.216,6.78,17.9c4.383-5.677,10.254-9.616,14.131-15.948,1.652-2.689,5.295-3.82,7.641-1.771C29.405.907,29,3.07,28.4,4.121,21.75,15.8,21.811,16.74,18.346,25.257c-5.926,8.2-9.182,18.306-15.1,27.318-.908,1.389-2.3,2.653-3.78,2.686-3.019.063-4.3-3.2-6.825-5.025-.821-.591-1.346-2.085-.917-2.752,1.631-2.424,4.439-3.526,6.259-5.989,1.07-1.481,1.745-3.073,2.656-4.62,4.448-7.545,11.1-13.523,13.366-22.1-3.153,2.034-4.539,5.576-7.486,7.878C4.438,24.293,2.141,27.826-.392,25.3c-4.9-4.906-1.457-9.671,2.3-16.324A45.469,45.469,0,0,0,4.4,2.488,2.651,2.651,0,0,1,6.261.646" transform="translate(8.428 0.869)" fill="#080007"/></g><g transform="translate(77.114 14.353)"><path d="M5.4,2.332c2.559-1.917,4.73-6.248,8.03-5.351.8.218,4.669,4.753,4.481,6.6C17.46,8.1,10.509,13.126,14.65,17.354c3.69-1.637,7.078-4.88,11.371-3.725C31.83,8.155,40.877-1.309,44.185-1.558c1.983-.143,4.5-.964,6.721-.392,1.239.305,1.466,1.5.589,2.083-2.989,1.982-7.977,3.6-9.657,6.688-.533.969-1.8,3.224.068,3,1.605-.2,3.995-3.573,4.321-5.056.185-.823,5.265-1.4,5.694.887.336,1.748.169,4.471,2,5.408,1.067.546,2.424.059,3.725-.295,1.9-.535,1.607,2.055.54,2.773C52.677,17.238,46.88,22,44.839,18.548c-.981-1.663-.422-5.654-2.632-5.429-2.158.211-3.359,3.324-4.211,5.734-.645,1.823-2.2,4.371-4.317,3.5-3.13-1.272-5.325-3.3-8.355-5.936a3.825,3.825,0,0,0-3.087-.173c-4.176,1.513-6.464,5.992-10.834,7.249-3.9,1.117-6.492-2.142-7.453-5.454-1.1-3.815,3.036-6.515,3.39-10.325.044-.413-.39-1.488-.873-1.363-4.9,1.278-8.558,6.518-13.731,5.933a3.164,3.164,0,0,1,.533-1.138C-2.72,7.986,1.245,5.426,5.4,2.332" transform="translate(7.274 3.139)" fill="#080007"/></g><g transform="translate(143.805 12.927)"><path d="M5.679,3.967c-.976,1.792-1.011,3.7-1.56,5.61-.061.209.352.558.629.343C9.368,6.176,11.824.942,16.654-2.485c2.334-1.673,5.352.711,6.3,3.388.678,1.943-.685,3.571-1.067,5.549-.483,2.616-.444,6.147,1.987,7.216,1.264.563,5.671-2.186,5.99-2.968C32.753,3.448,38.7-1.125,45.126-4.569c3.289-1.76,6.695-.225,9.473,1.79,2.911,2.121,8.335,7.97,6.417,13.091-1.523,2.213-2.212,4.708-3.871,6.954a9.744,9.744,0,0,1-9.272,3.707c-6.084-.727-12.908-1.774-17.4-6.372-3.235.31-3.2,3.074-6.566,5.387A7.842,7.842,0,0,1,12.46,17.661c-1.893-3.026.216-6.151-.507-9.326-3.493,3.216-6.288,6.8-9.513,10.4-1.169,1.309-2.822,3.142-4.3,2.008-2.024-1.536-6.2-3.029-5.746-4.631C-6.651,12.743-.463,4.051,3.134-2.377c.549-.971,1.706-2.165,2.879-2.055.856.084,2.2.347,2.487,1.436C9.2-.282,6.909,1.686,5.679,3.967M41.689,5.66c-.643.7-1.041,2.025-.688,2.374,2.8,2.837,10.055,4.664,10.825,4.01,1.152-.957,1.612-3.292,1.14-4.024-2.112-3.1-.826-7.378-4.044-7.711C46.1.011,43.848,3.376,41.689,5.66" transform="translate(7.644 5.34)" fill="#080007"/></g><g transform="translate(222.615 20.767)"><path d="M6.206,1.25A2.932,2.932,0,0,0,3.283-1.676l-8.7-.007A2.933,2.933,0,0,0-8.347,1.238l-.007,8.706A2.933,2.933,0,0,0-5.433,12.87l8.7.009A2.936,2.936,0,0,0,6.2,9.956Z" transform="translate(8.354 1.683)" fill="#e93994"/></g><g transform="translate(243.532 20.785)"><path d="M6.209,1.252A2.934,2.934,0,0,0,3.288-1.676l-8.708-.009A2.933,2.933,0,0,0-8.348,1.236l-.01,8.708A2.931,2.931,0,0,0-5.437,12.87l8.711.009A2.936,2.936,0,0,0,6.2,9.956Z" transform="translate(8.358 1.685)" fill="#541e5b"/></g><g transform="translate(264.457 20.804)"><path d="M6.207,1.253a2.93,2.93,0,0,0-2.921-2.93l-8.7-.01A2.931,2.931,0,0,0-8.345,1.232l-.01,8.708A2.935,2.935,0,0,0-5.43,12.868l8.7.007A2.938,2.938,0,0,0,6.2,9.952Z" transform="translate(8.355 1.687)" fill="#ff6f28"/></g><g transform="translate(81.669 54.368)"><path d="M.734,1.837a.655.655,0,0,1,.3.054.532.532,0,0,1,.188.174L3.11,4.657a.426.426,0,0,0,.394.207h.871L2.259,1.984a1.082,1.082,0,0,0-.324-.308,2.79,2.79,0,0,0,.751-.284A2.1,2.1,0,0,0,3.249.938,1.9,1.9,0,0,0,3.6.338a2.108,2.108,0,0,0,.12-.72,2.131,2.131,0,0,0-.157-.833,1.613,1.613,0,0,0-.483-.634,2.267,2.267,0,0,0-.828-.4,4.509,4.509,0,0,0-1.19-.139H-.988V4.865H-.01V1.837ZM-.01-1.617H1.063a2.071,2.071,0,0,1,1.274.329,1.16,1.16,0,0,1,.427.978,1.463,1.463,0,0,1-.112.582,1.2,1.2,0,0,1-.331.453,1.537,1.537,0,0,1-.547.295,2.545,2.545,0,0,1-.756.1H-.01ZM10.4-2.391V4.865h4.471v-.8H11.383V1.59H14.2V.819H11.383v-2.41h3.484v-.8Zm14.8.668a2.55,2.55,0,0,0-.875-.556,3.062,3.062,0,0,0-1.11-.193,2.564,2.564,0,0,0-.959.167,2.127,2.127,0,0,0-.7.446,1.942,1.942,0,0,0-.432.638,1.931,1.931,0,0,0-.15.744,1.948,1.948,0,0,0,.15.809,1.615,1.615,0,0,0,.392.544,2.074,2.074,0,0,0,.554.354,5.846,5.846,0,0,0,.638.241l.638.2a2.582,2.582,0,0,1,.556.241,1.217,1.217,0,0,1,.392.352.906.906,0,0,1,.148.539,1.391,1.391,0,0,1-.1.542,1.154,1.154,0,0,1-.291.418,1.333,1.333,0,0,1-.464.27,1.852,1.852,0,0,1-.622.1,1.975,1.975,0,0,1-.711-.113,2.687,2.687,0,0,1-.5-.251,3.819,3.819,0,0,1-.342-.251.407.407,0,0,0-.242-.113.23.23,0,0,0-.131.038.352.352,0,0,0-.1.092L20.655,4a3.026,3.026,0,0,0,.99.69,3.142,3.142,0,0,0,1.285.256,2.812,2.812,0,0,0,1.03-.178,2.221,2.221,0,0,0,.765-.486,2.056,2.056,0,0,0,.472-.727,2.437,2.437,0,0,0,.162-.892,1.737,1.737,0,0,0-.148-.76,1.62,1.62,0,0,0-.4-.521,2.209,2.209,0,0,0-.558-.352A6.729,6.729,0,0,0,23.62.779C23.4.7,23.19.633,22.982.563a2.815,2.815,0,0,1-.556-.246,1.269,1.269,0,0,1-.4-.342.819.819,0,0,1-.15-.5,1.127,1.127,0,0,1,.087-.443.955.955,0,0,1,.254-.357,1.247,1.247,0,0,1,.424-.241,1.754,1.754,0,0,1,.582-.089,1.8,1.8,0,0,1,.594.087,2.34,2.34,0,0,1,.422.19,2.942,2.942,0,0,1,.288.19.363.363,0,0,0,.2.085.2.2,0,0,0,.131-.038.379.379,0,0,0,.1-.113Zm5.637-.668v.826h2.355v6.43h.983v-6.43h2.344v-.826Zm14.077,0h-1l-2.9,7.256h.76a.325.325,0,0,0,.213-.07.4.4,0,0,0,.122-.162l.678-1.752h3.256l.68,1.752a.391.391,0,0,0,.12.167.329.329,0,0,0,.213.064h.76ZM44.2-.775c.033-.089.068-.19.1-.307s.071-.244.11-.382a5.235,5.235,0,0,0,.218.683l1.138,2.952H43.059ZM55.423,3.93a1.694,1.694,0,0,1-.6-.427,1.86,1.86,0,0,1-.375-.654,2.55,2.55,0,0,1-.129-.835V-2.391h-.978V2.02a3.287,3.287,0,0,0,.2,1.164,2.6,2.6,0,0,0,1.485,1.544,3.367,3.367,0,0,0,2.41,0,2.6,2.6,0,0,0,.91-.615,2.7,2.7,0,0,0,.572-.929,3.287,3.287,0,0,0,.2-1.164V-2.391h-.978V2.02a2.55,2.55,0,0,1-.129.835,1.86,1.86,0,0,1-.375.654,1.707,1.707,0,0,1-.6.425,2.035,2.035,0,0,1-.805.152,1.984,1.984,0,0,1-.807-.155M67.588,1.837a.66.66,0,0,1,.3.054.532.532,0,0,1,.188.174l1.884,2.592a.424.424,0,0,0,.394.207h.871L69.112,1.984a1.043,1.043,0,0,0-.324-.308,2.78,2.78,0,0,0,.753-.284A2.062,2.062,0,0,0,70.1.938a1.838,1.838,0,0,0,.352-.6,2.067,2.067,0,0,0,.122-.72,2.131,2.131,0,0,0-.157-.833,1.629,1.629,0,0,0-.483-.634,2.267,2.267,0,0,0-.828-.4,4.509,4.509,0,0,0-1.19-.139H65.866V4.865h.978V1.837Zm-.744-3.454h1.074a2.062,2.062,0,0,1,1.272.329,1.156,1.156,0,0,1,.429.978,1.463,1.463,0,0,1-.112.582,1.216,1.216,0,0,1-.331.453,1.552,1.552,0,0,1-.547.295,2.545,2.545,0,0,1-.756.1H66.844Zm13.474-.774h-1l-2.9,7.256h.76a.325.325,0,0,0,.213-.07.4.4,0,0,0,.122-.162l.678-1.752h3.256l.678,1.752a.409.409,0,0,0,.122.167.329.329,0,0,0,.213.064h.76ZM79.606-.775c.033-.089.068-.19.1-.307s.071-.244.11-.382a5.544,5.544,0,0,0,.216.683l1.14,2.952H78.466Zm10-1.616H89.1V4.865h.861V-.3c0-.068,0-.141-.005-.223s-.009-.164-.014-.247l4.2,5.464a.475.475,0,0,0,.155.136.41.41,0,0,0,.2.04h.495V-2.391h-.861v5.14q0,.118.005.241t.021.256l-4.2-5.469a.487.487,0,0,0-.143-.134.437.437,0,0,0-.2-.033m11.372,0v.826h2.355v6.43h.983v-6.43h2.344v-.826Zm19.1,0h-.507V4.865h.861V-.3c0-.068,0-.141-.005-.223s-.009-.164-.014-.247l4.2,5.464a.475.475,0,0,0,.155.136.41.41,0,0,0,.2.04h.495V-2.391H124.6v5.14q0,.118.005.241t.021.256l-4.2-5.469a.487.487,0,0,0-.143-.134.437.437,0,0,0-.2-.033m15.181,0h-1l-2.9,7.256h.76a.325.325,0,0,0,.213-.07.4.4,0,0,0,.122-.162l.678-1.752h3.256l.68,1.752a.391.391,0,0,0,.12.167.329.329,0,0,0,.213.064h.76Zm-.713,1.616c.033-.089.068-.19.1-.307s.071-.244.11-.382a5.238,5.238,0,0,0,.218.683l1.138,2.952h-2.708Zm8.087-1.616v.826h2.355v6.43h.981v-6.43h2.346v-.826ZM156.327,3.93a1.694,1.694,0,0,1-.6-.427,1.86,1.86,0,0,1-.375-.654,2.55,2.55,0,0,1-.129-.835V-2.391h-.978V2.02a3.287,3.287,0,0,0,.2,1.164,2.659,2.659,0,0,0,.575.929,2.623,2.623,0,0,0,.912.615,3.367,3.367,0,0,0,2.41,0,2.609,2.609,0,0,0,.908-.615,2.7,2.7,0,0,0,.572-.929,3.288,3.288,0,0,0,.2-1.164V-2.391h-.978V2.02a2.549,2.549,0,0,1-.129.835,1.86,1.86,0,0,1-.375.654,1.692,1.692,0,0,1-.6.425,2.035,2.035,0,0,1-.805.152,1.984,1.984,0,0,1-.807-.155m12.165-2.093a.655.655,0,0,1,.3.054.532.532,0,0,1,.188.174l1.884,2.592a.426.426,0,0,0,.394.207h.871l-2.116-2.881a1.082,1.082,0,0,0-.324-.308,2.789,2.789,0,0,0,.751-.284,2.1,2.1,0,0,0,.563-.453,1.865,1.865,0,0,0,.35-.6,2.067,2.067,0,0,0,.122-.72,2.131,2.131,0,0,0-.157-.833,1.612,1.612,0,0,0-.483-.634,2.267,2.267,0,0,0-.828-.4,4.509,4.509,0,0,0-1.19-.139H166.77V4.865h.978V1.837Zm-.744-3.454h1.074a2.071,2.071,0,0,1,1.274.329,1.16,1.16,0,0,1,.427.978,1.462,1.462,0,0,1-.112.582,1.2,1.2,0,0,1-.331.453,1.537,1.537,0,0,1-.547.295,2.545,2.545,0,0,1-.756.1h-1.028Zm10.407-.774V4.865h4.471v-.8h-3.484V1.59h2.822V.819h-2.822v-2.41h3.484v-.8Zm11.829,0H189V4.865h4.122V4.04h-3.139Z" transform="translate(0.988 2.473)"/></g></g></g></svg>