<svg xmlns="http://www.w3.org/2000/svg" xmlns:xlink="http://www.w3.org/1999/xlink" width="322.943" height="186.12" viewBox="0 0 322.943 186.12"><defs><clipPath id="a"><path d="M0,112.724H322.943V-73.4H0Z" transform="translate(0 73.396)" fill="none"/></clipPath></defs><g transform="translate(0 73.396)"><g transform="translate(0 -73.396)" clip-path="url(#a)"><g transform="translate(0 84.21)"><path d="M21.643,4.95C32.534.368,42.964-5.432,54.715-2.366c4.187,1.088,5.63,8.974,1.151,11.388-1.712.923-4.722,1.314-6.687-.043-1.44-.984-2.145-2.5-3.892-3.046a11.69,11.69,0,0,0-8.563.946C26.729,11.685,16.287,15.423,9.856,25.34,8.373,27.6,8.578,29.826,9.166,32.3a7.24,7.24,0,0,0,4.111,4.793c8.873,3.55,15.829-3.771,26.667-2.021,2.8.444,5.769-2.526,8.916-3.261.614-.129,1.821.6,2.429,1.126,2.013,1.729,2.219,4.308,3.37,6.657,1.445,2.939.507,7.44-3.236,8.234-8.987,1.894-17,6.073-25.777,5.921-12.261-.2-24.92.107-36.125-6.03-6.532-3.6-2.647-11.541-.413-17.074,1.075-2.655,1.5-6.081,4.443-7.407a38.466,38.466,0,0,0,8.827-5.614c.713-.583,1.445-2.069,2.267-2.592,5.741-3.57,10.922-7.524,17-10.082" transform="translate(14.092 3.223)" fill="#fff"/></g><g transform="translate(63.203 104.452)"><path d="M12.944,1.335C18.168.153,17.25,5.653,15.708,8.379c-2.939,5.226-6.4,12.7-2.008,18.063,6.378-8.259,14.918-13.99,20.56-23.2,2.4-3.913,7.7-5.559,11.117-2.576,1.24,1.052.647,4.2-.228,5.728-9.669,17-9.58,18.359-14.622,30.752C21.905,49.077,17.168,63.777,8.559,76.89c-1.321,2.021-3.342,3.86-5.5,3.908-4.392.091-6.251-4.651-9.93-7.311-1.194-.86-1.958-3.033-1.334-4C-5.832,65.955-1.746,64.353.9,60.77c1.557-2.155,2.538-4.471,3.865-6.722C11.237,43.069,20.916,34.372,24.213,21.9c-4.587,2.959-6.6,8.112-10.891,11.462-3.03,2.384-6.373,7.524-10.057,3.852-7.131-7.138-2.12-14.071,3.342-23.751,1.59-2.84,2.46-6.246,3.634-9.443a3.856,3.856,0,0,1,2.7-2.68" transform="translate(8.428 0.869)" fill="#fff"/></g><g transform="translate(112.196 105.092)"><path d="M11.172,4.822c3.723-2.789,6.882-9.091,11.683-7.785,1.169.317,6.793,6.915,6.52,9.6-.662,6.583-10.775,13.889-4.75,20.041,5.368-2.381,10.3-7.1,16.544-5.419C49.62,13.294,62.783-.476,67.6-.838c2.886-.208,6.55-1.4,9.778-.571,1.8.444,2.133,2.186.857,3.03C73.883,4.5,66.625,6.865,64.181,11.351c-.776,1.41-2.622,4.691.1,4.372,2.335-.289,5.812-5.2,6.286-7.356.269-1.2,7.661-2.034,8.285,1.291.489,2.543.246,6.5,2.911,7.869,1.552.794,3.527.086,5.419-.429,2.772-.779,2.338,2.99.786,4.035-8.016,5.376-16.45,12.3-19.419,7.283-1.428-2.419-.614-8.226-3.829-7.9-3.139.307-4.887,4.836-6.127,8.343-.938,2.652-3.2,6.36-6.281,5.094-4.554-1.851-7.747-4.805-12.157-8.637-.811-.707-3.053-.766-4.491-.251-6.076,2.2-9.405,8.718-15.763,10.547-5.68,1.625-9.446-3.117-10.843-7.935-1.6-5.551,4.417-9.479,4.932-15.022.063-.6-.568-2.166-1.27-1.983C5.585,12.53.268,20.156-7.259,19.3a4.6,4.6,0,0,1,.776-1.656c5.835-4.6,11.6-8.325,17.654-12.826" transform="translate(7.274 3.139)" fill="#fff"/></g><g transform="translate(209.227 103.018)"><path d="M11.74,8.2c-1.42,2.607-1.471,5.389-2.27,8.163-.089.3.512.811.915.5,6.722-5.449,10.3-13.065,17.322-18.05C31.1-3.62,35.5-.151,36.867,3.744c.986,2.827-1,5.2-1.552,8.074-.7,3.806-.647,8.944,2.891,10.5,1.838.819,8.252-3.18,8.716-4.319C51.131,7.446,59.783.792,69.133-4.219c4.785-2.561,9.74-.327,13.782,2.6,4.235,3.086,12.126,11.6,9.337,19.047-2.216,3.221-3.218,6.849-5.632,10.118-3.266,4.395-8.386,6.015-13.491,5.394-8.853-1.057-18.78-2.581-25.32-9.271-4.706.451-4.656,4.473-9.552,7.838a11.409,11.409,0,0,1-16.65-3.385c-2.754-4.4.314-8.949-.738-13.569-5.082,4.679-9.149,9.89-13.841,15.134-1.7,1.9-4.106,4.572-6.261,2.921-2.942-2.234-9.025-4.407-8.361-6.738C-6.2,20.97,2.8,8.323,8.037-1.029c.8-1.412,2.483-3.149,4.189-2.99,1.245.122,3.205.5,3.619,2.09C16.87,2.019,13.53,4.882,11.74,8.2m52.393,2.462c-.936,1.014-1.514,2.947-1,3.454C67.2,18.246,77.76,20.9,78.881,19.953c1.676-1.392,2.346-4.79,1.658-5.855-3.073-4.514-1.2-10.734-5.883-11.218-4.111-.434-7.382,4.463-10.524,7.785" transform="translate(7.644 5.34)" fill="#fff"/></g><g transform="translate(225.964 160.437)"><path d="M12.83,2.585A4.266,4.266,0,0,0,8.578-1.673l-12.661-.01a4.267,4.267,0,0,0-4.26,4.25l-.01,12.666A4.267,4.267,0,0,0-4.1,19.491L8.56,19.5a4.271,4.271,0,0,0,4.26-4.253Z" transform="translate(8.354 1.683)" fill="#e93994"/></g><g transform="translate(256.397 160.462)"><path d="M12.836,2.588a4.269,4.269,0,0,0-4.25-4.26L-4.083-1.685a4.267,4.267,0,0,0-4.26,4.25l-.015,12.669a4.265,4.265,0,0,0,4.25,4.258L8.566,19.5a4.271,4.271,0,0,0,4.26-4.253Z" transform="translate(8.358 1.685)" fill="#541e5b"/></g><g transform="translate(286.842 160.49)"><path d="M12.832,2.591a4.263,4.263,0,0,0-4.25-4.263L-4.08-1.687A4.265,4.265,0,0,0-8.34,2.561L-8.355,15.23A4.27,4.27,0,0,0-4.1,19.49l12.659.01a4.274,4.274,0,0,0,4.26-4.253Z" transform="translate(8.355 1.687)" fill="#ff6f28"/></g><g transform="translate(203.092 27.437)"><path d="M28.93,5.937C22.119-5.913,6.617-7.2-5.692,3.063S-22.458,31.254-15.647,43.1,6.668,56.24,18.974,45.977,35.744,17.786,28.93,5.937M-10.685,38.968c-5.295-9.213-1.831-23.15,7.739-31.13S18.673.86,23.97,10.072,25.8,33.222,16.231,41.2s-21.618,6.981-26.915-2.232" transform="translate(18.837 3.865)" fill="#9a9b9f"/></g><g transform="translate(206.998 46.255)"><path d="M24.374,9.941c-13.2,28.83-50.514,18.747-37.551-13.3.9-1.9.862-1.78,1.592-3.119-.7,1.347-.664,1.207-1.534,3.139C-25.295,28.4,10.914,38.033,24.374,9.941" transform="translate(15.871 6.473)" fill="#9a9b9f"/></g><g transform="translate(209.42 28.976)"><path d="M0,9.694C10.3-8.366,32.02-12.466,40.794,4.252,43.827,10.534,44.007,19,39.67,28.444c4.083-9.859,3.966-18.925-.984-26.4C30.245-10.367,10.719-7.587,0,9.694" transform="translate(0 6.312)" fill="#9a9b9f"/></g><g transform="translate(207.661 32.38)"><path d="M14.292,14.262l-1.8-3.139L28.46-3.514,31.285,1.4Zm-.036-1.547-3.193-1.362L19.876-8.875l5,2.13Zm-.743-1.156-3.725.784-.713-20.4,5.832-1.227ZM12.259,11.1,9,13.82-1.042-1.283l5.1-4.258Zm-1.428.368L8.911,15.4-7.772,9.631l3.007-6.142Zm-1.217,1.1-.068,4.078L-9.306,21.768l.107-6.385Zm-.68,1.527,1.8,3.137L-5.233,31.868l-2.825-4.917Zm.033,1.547L12.16,17,3.35,37.226l-5-2.128Zm.746,1.156,3.728-.786.71,20.4L8.318,37.637Zm1.255.454,3.261-2.718,10.042,15.1-5.1,4.258Zm1.428-.368,1.922-3.925L31,18.72l-3.007,6.142Zm1.217-1.1.068-4.078L32.533,6.586l-.107,6.383Zm-3.558-.309c-1.141-1.986,1.975-4.585,3.117-2.6S11.2,17.464,10.055,15.476Zm3.515-2.931a1.933,1.933,0,0,0-3.038-.254,2.938,2.938,0,0,0-.872,3.517,1.933,1.933,0,0,0,3.038.251A2.938,2.938,0,0,0,13.57,12.545ZM10.79,14.863a1.229,1.229,0,0,1,.368-1.478c1.088-.91,2,.675.91,1.585A.812.812,0,0,1,10.79,14.863Z" transform="translate(9.306 9.286)" fill="none" stroke="#9a9b9f" stroke-width="0.65"/></g><g transform="translate(12.582 15.538)"><path d="M8.411,16.275a70.01,70.01,0,0,0-6.837,17.8c-.061.274-.1.55-.16.827-.682,3.193-1.8,3.537-4.372,1.347-2.483-2.12-2.853-4.869-2.29-7.856a37.833,37.833,0,0,1,3.385-9.253C1.011,13.131,4.336,7.347,6.945,1.21c.538-1.263.986-2.561,1.605-4.182A17.59,17.59,0,0,0,4.209-1.146c-.431.188-.867.639-1.354.332-.571-.36-.388-1.007-.314-1.544A6.766,6.766,0,0,1,6.26-7.407a23.345,23.345,0,0,1,9.829-2.812c4.96-.434,9.94-.751,14.837.553,3.781,1.007,6.92,2.888,7.975,6.961,1.1,4.22-.332,7.727-3.5,10.579-4.511,4.065-10.148,5.556-15.884,6.659-1.866.36-2.379.882-1.724,2.708C19.946,23.251,22.649,28.9,27.68,33.1c.981.822.918,1.326-.048,2.09a6.954,6.954,0,0,1-9.707-.482c-3.54-3.363-5.6-7.668-7.341-12.134-.733-1.884-1.324-3.821-2.173-6.3M24.6-7.255a25.806,25.806,0,0,0-4.96.9,3.015,3.015,0,0,0-2.155,2.064,146.074,146.074,0,0,1-6.7,15.4c-.725,1.42-.274,1.77,1.108,1.524a30.915,30.915,0,0,0,12.3-4.59A14.423,14.423,0,0,0,30.48-.088C31.773-4.833,29.9-7.26,24.6-7.255" transform="translate(5.476 10.597)" fill="#9a9b9f"/></g><g transform="translate(48.572 32.79)"><path d="M11.377,11.827c-1.7,1.775-3.076,3.3-4.539,4.734A16.825,16.825,0,0,1,.354,20.733c-5.122,1.7-8.292-.915-7.689-6.332C-6.206,4.262,2.436-5.059,12.678-7.134c4.118-.837,8.186-.913,12.139.918,1.506.7,1.691,1.395.893,2.871-3.345,6.172-6.317,12.512-7.531,19.511a32.971,32.971,0,0,0-.609,4.785c-.046,1.859-.921,2.013-2.277,1.354-2.708-1.319-3.583-3.8-3.892-6.542a38.238,38.238,0,0,1-.023-3.936m8.29-15.778c-.913-.074-1.324-.137-1.735-.134C12.2-4.065,8.5-.612,5.329,3.562A15.67,15.67,0,0,0,1.954,11.38c-.208,1.973.614,2.607,2.49,1.983a9.869,9.869,0,0,0,3.738-2.652c4.331-4.319,7.412-9.6,11.485-14.662" transform="translate(7.408 7.701)" fill="#9a9b9f"/></g><g transform="translate(116.088 25.636)"><path d="M.006,19.708C.242,13.5,2.971,8.307,6.911,3.758,14.5-5.014,23.417-11.67,35.462-12.783c5.285-.487,7.952,2.7,6.8,7.886-.791,3.545-2.99,6.1-5.782,8.206-5.186,3.918-11.188,5.848-17.52,6.684a4.242,4.242,0,0,0-3.9,2.893c-1.037,2.6-2.161,5.158-2.133,8.049.023,2.221,1.131,3.2,3.276,3.215,3.905.033,6.9-1.968,9.692-4.364a34.463,34.463,0,0,0,5.249-5.718c.347-.472.72-1.164,1.423-.994.842.2.918,1.04,1.009,1.76.4,3.2-1.068,5.721-3.292,7.7A27.621,27.621,0,0,1,7.842,29.428c-5.536-.654-8.028-4.111-7.836-9.72M21.941,4.726a28.841,28.841,0,0,0,3.218-.71c4.651-1.567,9.154-3.4,11.566-8.132.446-.875,1-1.9.2-2.909-.875-1.1-1.978-.837-3.111-.512-5.939,1.7-9.644,6.132-13.131,10.79-1.012,1.357.091,1.5,1.263,1.473" transform="translate(0.004 12.832)" fill="#9a9b9f"/></g><g transform="translate(79.965 25.208)"><path d="M.026,19.146A61.031,61.031,0,0,1,9.489-6.816c3.018-4.679,7.077-6.276,11.317-5.059,2.264.647,3.109,1.473,1.572,3.885a73.926,73.926,0,0,0-9.745,22.414,11.1,11.1,0,0,0-.431,2.437c-.015,1.5-.791,3.35.713,4.367,1.7,1.149,3.416-.048,4.912-.882a23.7,23.7,0,0,0,7.384-7.017A96.418,96.418,0,0,0,37.383-10.026c.347-.921.383-2.282,1.628-2.427,1.291-.152,1.97,1.024,2.6,1.942a6.553,6.553,0,0,1,.578,5.954c-2.47,8.137-7.283,14.84-12.945,20.976C23.7,22.43,17.518,27.606,9.309,29.581,2.265,31.277-.393,29,.026,19.146" transform="translate(0.017 12.466)" fill="#9a9b9f"/></g><g transform="translate(154.884 0)"><path d="M.009,35.441c.281-7.744,3.3-14.7,6.54-21.522a138.742,138.742,0,0,1,18.339-29.1,24.717,24.717,0,0,1,7.742-6.608,10.189,10.189,0,0,1,6.91-1.075c1.354.289,2.855.639,3.34,1.953.535,1.453-1.131,2.016-1.937,2.848C25.687-2.292,14.555,15.865,8.978,37.224a41.024,41.024,0,0,0-1.144,7.658C7.673,47.3,6.613,47.8,4.614,46.4.836,43.731-.145,39.818.009,35.441" transform="translate(0.006 23.076)" fill="#9a9b9f"/></g><g transform="translate(167.614 27.9)"><path d="M16.777,12.568a71.808,71.808,0,0,1-10.526.885A2.039,2.039,0,0,0,4.194,14.89C2.574,18.182.9,21.448-.753,24.724a17.964,17.964,0,0,1-2.4,3.56,5.449,5.449,0,0,1-6.692,1.468c-1.161-.52-1.407-1.1-.634-2.216A118.719,118.719,0,0,0-2.756,14.13c.558-1.08.69-1.778-.563-2.483A3.7,3.7,0,0,1-5.054,7.8c.081-.89.4-1.2,1.349-.789C-.177,8.528-.142,8.51,1.4,5.051A78.692,78.692,0,0,0,5.729-6.535c.345-1.293.938-1.648,2.221-1.273A4.224,4.224,0,0,1,11.1-2.66,47.567,47.567,0,0,1,7.582,7.379c-.888,2.09-.85,2.2,1.412,2.2,2.353,0,4.7-.066,7.055-.1a3.39,3.39,0,0,0,3.36-2.1A60.62,60.62,0,0,1,27.144-4.793c2.518-2.987,5.8-4.083,8.845-2.957,1.557.576,1.605.857.5,2.062a69.977,69.977,0,0,0-17.02,32.149,32.254,32.254,0,0,0-.56,4.253c-.157,1.717-.591,1.98-2.166,1.184-2.541-1.281-3.91-4.367-3.449-7.643A45.269,45.269,0,0,1,16.45,13.567c.1-.259.175-.53.327-1" transform="translate(10.924 8.183)" fill="#9a9b9f"/></g><g transform="translate(266.904 38.51)"><path d="M0,13.323A17.312,17.312,0,0,1,4.68,2.536C9.818-3.393,15.848-7.894,23.993-8.642c3.568-.33,5.371,1.833,4.587,5.343a9.539,9.539,0,0,1-3.918,5.546A25.092,25.092,0,0,1,12.607,6.8a2.455,2.455,0,0,0-2.239,1.552A15.3,15.3,0,0,0,8.74,13.96c-.051,1.714.781,2.419,2.437,2.379,2.47-.061,4.4-1.308,6.185-2.82a22.356,22.356,0,0,0,3.576-3.844c.269-.368.533-.964,1.093-.819.659.167.657.85.7,1.4a5.894,5.894,0,0,1-2.254,5A18.706,18.706,0,0,1,5.294,19.906C1.554,19.46-.125,17.122,0,13.323M13.388,2.932a4.865,4.865,0,0,0,3.474-.2c3.19-.951,6.2-2.249,7.914-5.373.347-.634.784-1.4.157-2.15-.606-.723-1.364-.51-2.122-.284C18.584-3.826,16.1-.588,13.388,2.932" transform="translate(0.003 8.675)" fill="#9a9b9f"/></g><g transform="translate(293.885 21.162)"><path d="M.006,24c.17-5.242,2.214-9.946,4.4-14.561A92.8,92.8,0,0,1,16.943-10.4c1.9-2.282,4.022-4.319,7.052-5.029a5.677,5.677,0,0,1,2.5-.1c.984.208,2.112.391,2.48,1.341.406,1.05-.822,1.463-1.4,2.074C17.341-1.468,9.819,10.742,6.092,25.125a46.835,46.835,0,0,0-.758,4.968c-.086.609.051,1.364-.629,1.669-.74.332-1.349-.183-1.889-.616C.523,29.307-.091,26.8.006,24" transform="translate(0.004 15.628)" fill="#9a9b9f"/></g><g transform="translate(254.877 30.713)"><path d="M9.921,5.292c1.8,0,3.124-.038,4.448.01,1.656.061,1.955.649,1.113,2.079a2.778,2.778,0,0,1-3,1.516c-4.166-.829-6.139,1.306-7.7,4.856C2.212,19.622-.334,25.442-.372,31.995c-.01,1.6-.786,1.823-1.993,1.265-2.888-1.341-3.905-3.892-4.07-6.842-.238-4.253,1.3-8.11,2.891-11.934.3-.713.672-1.39.966-2.1.421-1.022,1.605-2.046,1.179-3.007-.449-1.012-1.9-.337-2.9-.444-1.139-.119-1.253-.7-.9-1.572A2.779,2.779,0,0,1-2.132,5.318c2.574.391,4.065-.707,5.409-2.855C4.781.056,6.523-2.351,9.579-3.1a8.535,8.535,0,0,1,2.275-.34c1.4.051,3.142.107,3.723,1.43.459,1.037-1.151,1.707-1.869,2.5A44.129,44.129,0,0,0,9.921,5.292" transform="translate(6.46 3.446)" fill="#9a9b9f"/></g><g transform="translate(229.927 15.291)"><path d="M7.629,4.279a4.641,4.641,0,0,1-3.687-1.6A1.163,1.163,0,0,0,2.182,2.4a8.72,8.72,0,0,1-4.5,1.347,3.866,3.866,0,0,1-1.74-.314c-.406-.2-.933-.385-.905-.872.025-.408.571-.479.928-.642A30.6,30.6,0,0,0,2.867-2.139c1.268-1.032,1.879-.837,2.65.647a15.331,15.331,0,0,0,2.749,3.86c.4.4,1.286.662,1.057,1.276-.254.7-1.156.563-1.694.636" transform="translate(4.967 2.786)" fill="#9a9b9f"/></g></g></g></svg>