<svg xmlns="http://www.w3.org/2000/svg" xmlns:xlink="http://www.w3.org/1999/xlink" width="195" height="99.485" viewBox="0 0 195 99.485"><defs><clipPath id="a"><rect width="195" height="99.485"/></clipPath></defs><g clip-path="url(#a)"><path d="M1251.358,596.9l-9.7,2.463V598.04l4.906-1.153c1.208-.286,2.42-.547,3.355-.718v-.029c-.964-.16-2.119-.461-3.37-.792l-4.892-1.3v-1.31l4.921-1.179c1.15-.274,2.305-.535,3.326-.678v-.029c-1.064-.2-2.148-.475-3.355-.778l-4.892-1.279v-1.281l9.7,2.749v1.31l-5.05,1.222a29.688,29.688,0,0,1-3.169.635v.029a27.418,27.418,0,0,1,3.169.747l5.05,1.382Z" transform="translate(-1056.444 -499.88)"/><rect width="9.698" height="1.267" transform="translate(185.216 82.756)"/><path d="M1251.358,482.209h-9.7v-1.382l4.906-3.1a26.952,26.952,0,0,1,3.15-1.727l-.015-.043c-1.293.114-2.472.143-3.985.143h-4.057v-1.179h9.7v1.267l-4.921,3.078a27.606,27.606,0,0,1-3.241,1.8l.014.043c1.227-.072,2.391-.086,4-.086h4.143Z" transform="translate(-1056.444 -404.082)"/><path d="M1246.81,407.782v3.756h3.5v-4.2h1.05v5.47h-9.7v-5.255h1.05v3.988h3.064v-3.756Z" transform="translate(-1056.444 -346.575)"/><path d="M1250,344.035a6.806,6.806,0,0,0,.057-1.05c0-1.3-.472-2.492-1.885-2.492-1.308,0-1.871,1.138-1.871,2.506v1.036Zm-4.634,0V342.9c0-1.308-.706-2.086-1.642-2.086-1.122,0-1.58.85-1.58,2.114a5.424,5.424,0,0,0,.086,1.11Zm-3.971,1.253a11.092,11.092,0,0,1-.215-2.289,3.954,3.954,0,0,1,.7-2.649,2.049,2.049,0,0,1,1.714-.821,2.3,2.3,0,0,1,2.133,1.642h.043a2.47,2.47,0,0,1,2.415-2,2.546,2.546,0,0,1,1.943.835,4.8,4.8,0,0,1,.907,3.338,14.751,14.751,0,0,1-.115,1.945Z" transform="translate(-1056.036 -288.576)"/><path d="M1247.33,264.661l-2.792.964c-.635.217-1.208.36-1.771.5v.031c.563.143,1.165.286,1.756.489l2.806.95Zm.978,3.2,3.05,1.007v1.3l-9.7-3.31v-1.5l9.7-3.31v1.339l-3.05,1.036Z" transform="translate(-1056.444 -222.955)"/><path d="M1245.8,198.831V197.55c0-1.339-.735-2.188-1.843-2.188-1.255,0-1.8.907-1.8,2.231a5.546,5.546,0,0,0,.1,1.238Zm-4.419,1.253a14.641,14.641,0,0,1-.2-2.405,4.007,4.007,0,0,1,.792-2.806,2.471,2.471,0,0,1,1.857-.761,2.542,2.542,0,0,1,2.458,1.813h.042a2.435,2.435,0,0,1,1.957-1.41,15.482,15.482,0,0,0,2.663-.749v1.3a12.1,12.1,0,0,1-2.315.632c-1.341.289-1.842.821-1.885,1.957v1.181h4.2v1.253Z" transform="translate(-1056.036 -164.862)"/><path d="M4.355,128.537A4.367,4.367,0,0,1,0,124.183V109.819a4.369,4.369,0,0,1,4.355-4.355H18.719a4.368,4.368,0,0,1,4.354,4.355v14.363a4.366,4.366,0,0,1-4.354,4.354Z" transform="translate(0 -89.732)" fill="#d8006b"/><path d="M4.355,330.382A4.368,4.368,0,0,1,0,326.027V311.663a4.368,4.368,0,0,1,4.355-4.354H18.719a4.367,4.367,0,0,1,4.354,4.354v14.363a4.367,4.367,0,0,1-4.354,4.355Z" transform="translate(0 -261.468)" fill="#3c1647"/><path d="M18.719,509.146H4.355A4.368,4.368,0,0,0,0,513.5v14.366a4.368,4.368,0,0,0,4.355,4.353H18.719a4.367,4.367,0,0,0,4.355-4.353V513.5a4.368,4.368,0,0,0-4.355-4.355" transform="translate(0 -433.198)" fill="#e8550c"/><path d="M230.4,362.034a6.926,6.926,0,0,1-.549,2.749,7.679,7.679,0,0,1-1.5,2.289,7.273,7.273,0,0,1-2.234,1.587,6.957,6.957,0,0,1-2.731.642H215.9a7,7,0,0,1-2.82-.57,7.473,7.473,0,0,1-3.875-3.876,6.986,6.986,0,0,1-.572-2.821v-12.7a6.959,6.959,0,0,1,.572-2.818,7.466,7.466,0,0,1,3.875-3.878,7,7,0,0,1,2.82-.57h7.455a8.036,8.036,0,0,1,2.761.668,6.989,6.989,0,0,1,2.226,1.561,7.7,7.7,0,0,1,1.5,2.286,6.964,6.964,0,0,1,.549,2.752Zm-5.886,8.577-.072-.012c.054-.007.111-.014.165-.024Zm6.693-26.928a10.638,10.638,0,0,0-2.024-2.1,10.065,10.065,0,0,0-2.514-1.462l-3.1-.639-7.665-.014a9.555,9.555,0,0,0-3.859.789,9.934,9.934,0,0,0-5.223,5.25,9.588,9.588,0,0,0-.786,3.83v12.7a9.516,9.516,0,0,0,.789,3.859,9.98,9.98,0,0,0,5.22,5.219,9.507,9.507,0,0,0,3.859.792h7.458a7.652,7.652,0,0,1,5.01,2.05,6.836,6.836,0,0,1,1.485,2.079,6.037,6.037,0,0,1,.539,2.532v.05a6.106,6.106,0,0,1-.564,2.58,6.6,6.6,0,0,1-1.551,2.121,7.565,7.565,0,0,1-2.334,1.432,7.757,7.757,0,0,1-2.866.53H215.9a7.568,7.568,0,0,1-2.84-.53,7.687,7.687,0,0,1-2.311-1.432,6.569,6.569,0,0,1-1.55-2.121,6.075,6.075,0,0,1-.567-2.58v-.7h-2.6v.7a8.5,8.5,0,0,0,.793,3.623,9.614,9.614,0,0,0,2.121,2.933,10.11,10.11,0,0,0,6.952,2.711h7.177a10.358,10.358,0,0,0,3.863-.73,10.142,10.142,0,0,0,3.139-1.981,9.61,9.61,0,0,0,2.119-2.933,8.52,8.52,0,0,0,.8-3.623v-.05a8.528,8.528,0,0,0-1.809-5.312,9.714,9.714,0,0,0-3.143-2.685,10.566,10.566,0,0,0,1.131-.78,10.71,10.71,0,0,0,2.024-2.1,9.282,9.282,0,0,0,1.334-2.644,9.882,9.882,0,0,0,.463-3.007v-12.7a9.9,9.9,0,0,0-.463-3.009,9.387,9.387,0,0,0-1.334-2.641" transform="translate(-175.302 -288.828)"/><path d="M415.522,349.327a6.96,6.96,0,0,1,.572-2.821,7.45,7.45,0,0,1,3.875-3.876,7,7,0,0,1,2.819-.571h7.962a7.2,7.2,0,0,1,5.149,2.134,7.788,7.788,0,0,1,1.546,2.313,6.942,6.942,0,0,1,.571,2.821l0,.084a8.9,8.9,0,0,1-.069,1.725,7.789,7.789,0,0,1-.439,1.565,5.1,5.1,0,0,1-.925,1.5,6.137,6.137,0,0,1-4.776,1.742H415.522Zm22.555,15.642a7.2,7.2,0,0,1-2.644,3.155,7.08,7.08,0,0,1-3.975,1.169h-8.669a6.958,6.958,0,0,1-2.819-.573,7.43,7.43,0,0,1-3.875-3.875,6.951,6.951,0,0,1-.572-2.819v-3.489h16.289a8.777,8.777,0,0,0,6.714-2.6,8.427,8.427,0,0,0,1.984-4.388,10.63,10.63,0,0,0,.16-1.623l-.049-.632a9.873,9.873,0,0,0-.76-3.794,9.54,9.54,0,0,0-2.121-3.152,10.476,10.476,0,0,0-3.13-2.106,9.548,9.548,0,0,0-3.859-.789h-7.962a9.524,9.524,0,0,0-3.857.791,10.158,10.158,0,0,0-3.112,2.109,10.019,10.019,0,0,0-2.111,3.14,9.586,9.586,0,0,0-.79,3.83v12.7a9.529,9.529,0,0,0,.79,3.857,10,10,0,0,0,5.223,5.224,9.539,9.539,0,0,0,3.857.788h8.669a9.879,9.879,0,0,0,5.363-1.544,9.4,9.4,0,0,0,3.64-4.317l.272-.628-2.371-1.079Z" transform="translate(-351.325 -288.821)"/><path d="M647.571,344.876a9.763,9.763,0,0,0-3.687-3.983,10.047,10.047,0,0,0-5.25-1.437H623.426V371.9h2.6V342.059h12.608a7.256,7.256,0,0,1,3.868,1.08,7.458,7.458,0,0,1,2.723,2.932l.317.6,2.348-1.174Z" transform="translate(-530.431 -288.821)"/><path d="M812.881,362.518a6.99,6.99,0,0,1-.573,2.821,7.454,7.454,0,0,1-3.878,3.875,6.976,6.976,0,0,1-2.816.57h-1.06a6.98,6.98,0,0,1-2.818-.57,7.454,7.454,0,0,1-3.878-3.875,7.008,7.008,0,0,1-.57-2.821V349.513h16.938l.253-2.6H797.289v-6.877h-2.6v6.877h-8.178v2.651h8.178v12.955a9.546,9.546,0,0,0,.79,3.859A10,10,0,0,0,800.7,371.6a9.507,9.507,0,0,0,3.859.792h1.06a9.574,9.574,0,0,0,3.828-.79,9.915,9.915,0,0,0,5.25-5.221,9.529,9.529,0,0,0,.79-3.859v-.7h-2.6Z" transform="translate(-669.185 -289.312)"/><path d="M1021.7,364.352l-.286.489a7.646,7.646,0,0,0,.286-1.026Zm-1.21-24.9V362.02a7.035,7.035,0,0,1-.57,2.821,7.816,7.816,0,0,1-1.547,2.313,7.2,7.2,0,0,1-5.15,2.133h-8.567a6.969,6.969,0,0,1-2.821-.57,7.6,7.6,0,0,1-2.308-1.568,7.475,7.475,0,0,1-1.568-2.31,6.954,6.954,0,0,1-.573-2.818V339.449h-2.6V362.02a9.545,9.545,0,0,0,.79,3.859,9.953,9.953,0,0,0,5.221,5.219,9.506,9.506,0,0,0,3.859.79h8.567a9.579,9.579,0,0,0,5.021-1.358,10.194,10.194,0,0,0,2.246-1.821V378a7.035,7.035,0,0,1-.57,2.821,7.846,7.846,0,0,1-1.547,2.312,7.2,7.2,0,0,1-5.15,2.133h-6.868v2.6h6.868a9.531,9.531,0,0,0,3.859-.79,10.547,10.547,0,0,0,3.131-2.1,9.606,9.606,0,0,0,2.117-3.124,9.8,9.8,0,0,0,.764-3.849V339.449Z" transform="translate(-846.392 -288.814)"/><path d="M228.911,109.649a10.557,10.557,0,0,0-3.131-2.107,9.559,9.559,0,0,0-3.857-.789h-8.568a9.517,9.517,0,0,0-3.859.791,10.169,10.169,0,0,0-3.111,2.109,10.045,10.045,0,0,0-2.111,3.141,9.579,9.579,0,0,0-.79,3.829v12.7a9.542,9.542,0,0,0,.79,3.859A10,10,0,0,0,209.5,138.4a9.546,9.546,0,0,0,3.859.789h8.568a9.541,9.541,0,0,0,3.857-.789,10.443,10.443,0,0,0,3.131-2.107,9.567,9.567,0,0,0,2.118-3.123,9.821,9.821,0,0,0,.762-3.851v-.693h-2.6v.693a6.979,6.979,0,0,1-.571,2.821,7.775,7.775,0,0,1-1.549,2.314,7.167,7.167,0,0,1-5.146,2.133h-8.568a6.93,6.93,0,0,1-2.819-.571,7.428,7.428,0,0,1-2.307-1.567,7.513,7.513,0,0,1-1.569-2.309,6.959,6.959,0,0,1-.572-2.821v-12.7a6.957,6.957,0,0,1,.572-2.821,7.462,7.462,0,0,1,3.876-3.875,6.984,6.984,0,0,1,2.819-.571h8.568a7.191,7.191,0,0,1,5.146,2.133,7.8,7.8,0,0,1,1.549,2.314,6.978,6.978,0,0,1,.571,2.821v.7h2.6v-.7a9.908,9.908,0,0,0-.759-3.822,9.559,9.559,0,0,0-2.121-3.152" transform="translate(-173.131 -90.829)"/><path d="M421.648,18.527h11.8A7.168,7.168,0,0,1,438.6,20.66a7.752,7.752,0,0,1,1.55,2.313,6.976,6.976,0,0,1,.571,2.82v22.57h2.6V25.793a9.863,9.863,0,0,0-.758-3.822,9.587,9.587,0,0,0-2.121-3.152,10.52,10.52,0,0,0-3.13-2.106,9.553,9.553,0,0,0-3.859-.789h-11.8V0h-2.6V48.363h2.6Z" transform="translate(-356.538 0.001)"/><path d="M615.418,109.363h7.963a7.174,7.174,0,0,1,5.148,2.133,7.783,7.783,0,0,1,1.549,2.314,6.977,6.977,0,0,1,.573,2.819v.084a8.874,8.874,0,0,1-.069,1.723,7.629,7.629,0,0,1-.439,1.571,5.085,5.085,0,0,1-.921,1.493,6.144,6.144,0,0,1-4.78,1.74H608.152v-6.61a6.975,6.975,0,0,1,.572-2.819,7.439,7.439,0,0,1,3.875-3.875,6.972,6.972,0,0,1,2.819-.572m-3.857,29.047a9.527,9.527,0,0,0,3.857.79h8.67a9.872,9.872,0,0,0,5.362-1.545,9.421,9.421,0,0,0,3.644-4.319l.27-.626-2.372-1.077-.282.643a7.238,7.238,0,0,1-2.646,3.153,7.068,7.068,0,0,1-3.976,1.171h-8.67a6.956,6.956,0,0,1-2.819-.573,7.45,7.45,0,0,1-3.875-3.875,6.971,6.971,0,0,1-.572-2.819v-3.488h16.289a8.779,8.779,0,0,0,6.715-2.6,8.422,8.422,0,0,0,1.985-4.391,11.165,11.165,0,0,0,.16-1.62l-.05-.632a9.889,9.889,0,0,0-.761-3.793,9.578,9.578,0,0,0-2.119-3.152,10.526,10.526,0,0,0-3.131-2.106,9.554,9.554,0,0,0-3.859-.789h-7.963a9.572,9.572,0,0,0-3.86.789,9.942,9.942,0,0,0-5.22,5.249,9.6,9.6,0,0,0-.789,3.831v12.7a9.514,9.514,0,0,0,.791,3.859,9.987,9.987,0,0,0,5.22,5.221" transform="translate(-515.221 -90.836)"/><path d="M836.034,133.552l-2.257-1.29-.349.6a7.441,7.441,0,0,1-6.453,3.736H812.8l10.223-12.111,15.032-17.726H818.208a10.86,10.86,0,0,0-2.639.322,8.631,8.631,0,0,0-2.446,1.03,9.675,9.675,0,0,0-3.637,3.687l-.341.6,2.262,1.292.346-.6a7.436,7.436,0,0,1,6.455-3.735H832.38L822.109,121.52,807.128,139.2h19.847a9.7,9.7,0,0,0,5.078-1.4,9.349,9.349,0,0,0,3.646-3.647Z" transform="translate(-686.73 -90.835)"/><path d="M1045.442,106.585h4.794a3.241,3.241,0,0,1,1.281.257,3.274,3.274,0,0,1,1.761,1.76,3.305,3.305,0,0,1,.255,1.3v10.029h1.384V109.9a4.626,4.626,0,0,0-.358-1.8,4.707,4.707,0,0,0-1.019-1.52,4.607,4.607,0,0,0-1.513-1.012,4.682,4.682,0,0,0-1.792-.35h-6.164v14.711h1.37Z" transform="translate(-888.33 -89.522)" fill="#e8550c"/><path d="M1144.51,106.164a1.87,1.87,0,0,1,1.9,1.994,1.907,1.907,0,0,1-1.875,2.04,1.863,1.863,0,0,1-1.852-1.945,1.919,1.919,0,0,1,1.828-2.089m0,5.005a3,3,0,0,0,3.033-3.033,2.871,2.871,0,0,0-2.966-2.942,3,3,0,0,0-3.033,3.055,2.882,2.882,0,0,0,2.966,2.921" transform="translate(-971.264 -89.502)" fill="#e8550c"/><path d="M1047.664,224.328a3.838,3.838,0,0,0-.912-1.283,4.192,4.192,0,0,0-2.892-1.131H1039.2l.685-4.756h7.145v-1.412h-8.319l-1.093,7.578h6.24a2.827,2.827,0,0,1,1.084.205,2.9,2.9,0,0,1,.883.551,2.363,2.363,0,0,1,.578.8,2.337,2.337,0,0,1,.208.98V228.3a2.4,2.4,0,0,1-.785,1.779,2.9,2.9,0,0,1-1.966.758h-2.782a1.586,1.586,0,0,1-.7-.159,1.751,1.751,0,0,1-.577-.443,2.248,2.248,0,0,1-.408-.681,2.319,2.319,0,0,1-.148-.838v-.506h-1.37v.444l-1.057-.539-.208.511a4,4,0,0,1-.53.926,3.4,3.4,0,0,1-.711.689,3.256,3.256,0,0,1-.85.44,2.807,2.807,0,0,1-.921.156h-6.174l9.362-9.626v-.288a5.693,5.693,0,0,0-.344-1.969,5.161,5.161,0,0,0-1-1.676,4.635,4.635,0,0,0-1.527-1.151,4.262,4.262,0,0,0-1.809-.4h-2.047a4.256,4.256,0,0,0-1.809.4,4.645,4.645,0,0,0-1.53,1.151,5.159,5.159,0,0,0-1,1.676,5.693,5.693,0,0,0-.344,1.969v.506h1.37v-.506a4.063,4.063,0,0,1,.27-1.478,3.94,3.94,0,0,1,.728-1.209,3.41,3.41,0,0,1,1.057-.8,2.8,2.8,0,0,1,1.258-.291h2.047a2.8,2.8,0,0,1,1.236.284,3.509,3.509,0,0,1,1.055.784,3.982,3.982,0,0,1,1.012,2.417l-11.366,11.622h9.558a4.341,4.341,0,0,0,2.6-.865,5.017,5.017,0,0,0,1.678-2.212l.019-.054a3.733,3.733,0,0,0,.9,2.073,3.276,3.276,0,0,0,1.017.767,2.907,2.907,0,0,0,1.281.291h2.768a4.223,4.223,0,0,0,2.892-1.131,3.811,3.811,0,0,0,1.227-2.816V225.86a3.826,3.826,0,0,0-.315-1.532" transform="translate(-871.287 -183.551)" fill="#e8550c"/><path d="M420.95,598.111a3.044,3.044,0,0,0,.559-.389,2.2,2.2,0,0,0,.55-1.617,2.745,2.745,0,0,0-2.823-2.724H416.51v10.56h3.12a3.037,3.037,0,0,0,3.018-3.118,3.068,3.068,0,0,0-1.7-2.711m-3.343-.292v-3.345h1.629a1.689,1.689,0,0,1,.363,3.345Zm0,1.1H419.8a1.854,1.854,0,0,1,1.755,1.924,1.953,1.953,0,0,1-1.938,2.008h-2.008Z" transform="translate(-354.38 -504.867)" fill="#e8550c"/><path d="M498.4,596.807a3.4,3.4,0,0,0-3.428-3.428h-3.3v10.563h1.1v-4.5l4.816,4.82.773-.773-3.312-3.326a3.625,3.625,0,0,0,.391.024,3.238,3.238,0,0,0,2.964-3.383m-5.632-2.335h2.2a2.31,2.31,0,0,1,2.331,2.335,2.334,2.334,0,0,1-2.3,2.413h-2.233Z" transform="translate(-418.33 -504.866)" fill="#e8550c"/><path d="M562.868,600.536l1,.468,1.794-3.85h4.575l1.8,3.85.995-.468-5.07-10.875Zm6.855-4.476h-3.556l1.772-3.816Z" transform="translate(-478.906 -501.702)" fill="#e8550c"/><path d="M657.536,596.83c-1.282-.321-1.853-.86-1.853-1.746a1.769,1.769,0,0,1,1.855-1.838,1.888,1.888,0,0,1,1.939,1.916l.008.169,1.095-.059-.008-.167a2.967,2.967,0,0,0-3.049-2.958,2.866,2.866,0,0,0-2.936,2.965c0,1.374.9,2.312,2.667,2.788,2.436.631,2.63,1.228,2.63,1.944a2.331,2.331,0,0,1-2.39,2.263c-.775,0-2.1-.307-2.262-2.36l-.013-.164-1.094.062.013.172a3.578,3.578,0,0,0,1.333,2.753,3.566,3.566,0,0,0,4.592-.457,3.381,3.381,0,0,0,.914-2.268c0-1.267-.585-2.265-3.442-3.015" transform="translate(-556.55 -503.818)" fill="#e8550c"/><path d="M729.4,596.83c-1.282-.32-1.853-.859-1.853-1.746a1.768,1.768,0,0,1,1.853-1.838,1.885,1.885,0,0,1,1.939,1.915l.008.169,1.1-.058-.008-.167a2.969,2.969,0,0,0-3.051-2.958,2.865,2.865,0,0,0-2.934,2.965c0,1.374.9,2.312,2.668,2.788,2.434.63,2.627,1.228,2.627,1.944a2.33,2.33,0,0,1-2.387,2.263c-.775,0-2.1-.307-2.264-2.36l-.013-.164-1.093.062.013.172a3.578,3.578,0,0,0,1.333,2.753,3.567,3.567,0,0,0,4.593-.457,3.382,3.382,0,0,0,.914-2.268c0-1.267-.585-2.265-3.443-3.015" transform="translate(-617.692 -503.818)" fill="#e8550c"/><path d="M805.142,598.915h3.091v-1.1h-3.091v-3.343h3.876v-1.1h-4.972v10.563h5.506v-1.1h-4.41Z" transform="translate(-684.108 -504.867)" fill="#e8550c"/><path d="M882.142,596.807a3.4,3.4,0,0,0-3.428-3.428h-3.3v10.563h1.1v-4.5l4.816,4.819.773-.773-3.312-3.326a3.637,3.637,0,0,0,.392.024,3.237,3.237,0,0,0,2.963-3.383m-5.631-2.335h2.2a2.375,2.375,0,0,1,.031,4.748h-2.234Z" transform="translate(-744.829 -504.866)" fill="#e8550c"/><rect width="1.096" height="10.563" transform="translate(142.246 88.513)" fill="#e8550c"/><path d="M998.4,602.846v-3.932h3.088v-1.1H998.4v-3.343h3.875v-1.1H997.3v10.563h5.5v-1.1Z" transform="translate(-848.535 -504.866)" fill="#e8550c"/></g></svg>