<svg xmlns="http://www.w3.org/2000/svg" xmlns:xlink="http://www.w3.org/1999/xlink" width="160.088" height="40.188" viewBox="0 0 160.088 40.188"><defs><clipPath id="a"><path d="M0,0H160.088V-40.188H0Z" fill="none"/></clipPath></defs><g transform="translate(0 40.188)"><g clip-path="url(#a)"><g transform="translate(14.092 -36.965)"><path d="M0,0C4.3-1.807,8.408-4.094,13.042-2.885c1.651.429,2.22,3.539.454,4.491a2.747,2.747,0,0,1-2.637-.017c-.568-.388-.846-.984-1.535-1.2A4.61,4.61,0,0,0,5.947.761C2.006,2.656-2.112,4.13-4.648,8.041a3.242,3.242,0,0,0-.272,2.745A2.855,2.855,0,0,0-3.3,12.676c3.5,1.4,6.242-1.487,10.516-.8,1.1.175,2.275-1,3.516-1.286.242-.051.718.236.958.444.794.682.875,1.7,1.329,2.625.57,1.159.2,2.934-1.276,3.247-3.544.747-6.7,2.4-10.165,2.335-4.835-.08-9.827.042-14.246-2.378-2.576-1.419-1.044-4.551-.163-6.733.424-1.047.59-2.4,1.752-2.921A15.169,15.169,0,0,0-7.6,5c.281-.23.57-.816.894-1.022A49.393,49.393,0,0,1,0,0" fill="#fff"/></g><g transform="translate(33.352 -31.337)"><path d="M0,0C2.06-.466,1.7,1.7,1.09,2.778-.069,4.839-1.435,7.786.3,9.9,2.813,6.644,6.181,4.384,8.406.751,9.354-.792,11.444-1.441,12.79-.265c.489.415.255,1.656-.09,2.259A68.081,68.081,0,0,0,6.934,14.121c-3.4,4.706-5.268,10.5-8.663,15.674A3.007,3.007,0,0,1-3.9,31.336c-1.732.036-2.465-1.834-3.916-2.883a1.453,1.453,0,0,1-.526-1.579c.936-1.391,2.547-2.023,3.591-3.436.614-.85,1-1.763,1.524-2.651,2.552-4.329,6.369-7.759,7.669-12.679-1.809,1.167-2.6,3.2-4.295,4.52-1.2.94-2.513,2.967-3.966,1.519C-6.629,11.332-4.653,8.6-2.5,4.781A26.088,26.088,0,0,0-1.066,1.057,1.521,1.521,0,0,1,0,0" fill="#fff"/></g><g transform="translate(51.518 -28.814)"><path d="M0,0C1.468-1.1,2.714-3.585,4.607-3.07,5.068-2.945,7.286-.343,7.178.716c-.261,2.6-4.249,5.477-1.873,7.9,2.117-.939,4.061-2.8,6.524-2.137,3.333-3.141,8.524-8.571,10.422-8.714,1.138-.082,2.583-.553,3.856-.225.711.175.841.862.338,1.2C24.73-.125,21.868.806,20.9,2.575c-.306.556-1.034,1.85.039,1.724.921-.114,2.292-2.05,2.479-2.9.106-.472,3.021-.8,3.267.509.193,1,.1,2.565,1.148,3.1a3.124,3.124,0,0,0,2.137-.169c1.093-.307.922,1.179.31,1.591C27.123,8.552,23.8,11.283,22.626,9.3c-.563-.954-.242-3.244-1.51-3.115C19.878,6.31,19.189,8.1,18.7,9.479c-.37,1.046-1.261,2.508-2.477,2.009a17.294,17.294,0,0,1-4.794-3.406,2.195,2.195,0,0,0-1.771-.1c-2.4.868-3.709,3.438-6.216,4.159C1.2,12.783-.283,10.913-.834,9.013-1.465,6.824.908,5.275,1.111,3.089c.025-.237-.224-.854-.5-.782-2.813.733-4.91,3.74-7.878,3.4a1.815,1.815,0,0,1,.306-.653C-4.661,3.244-2.386,1.775,0,0" fill="#fff"/></g><g transform="translate(90.152 -27.431)"><path d="M0,0A14.713,14.713,0,0,0-.895,3.219c-.035.12.2.32.361.2C2.117,1.267,3.526-1.736,6.3-3.7c1.339-.96,3.071.408,3.612,1.944C10.3-.643,9.516.291,9.3,1.426c-.277,1.5-.255,3.527,1.14,4.14.725.323,3.254-1.254,3.437-1.7C15.534-.3,18.946-2.922,22.633-4.9c1.887-1.01,3.841-.129,5.435,1.027C29.738-2.654,32.85.7,31.75,3.64c-.874,1.27-1.269,2.7-2.221,3.99a5.591,5.591,0,0,1-5.32,2.127C20.718,9.34,16.8,8.739,14.224,6.1c-1.856.178-1.836,1.764-3.767,3.091A4.5,4.5,0,0,1,3.891,7.857C2.805,6.121,4.015,4.328,3.6,2.506c-2,1.845-3.608,3.9-5.458,5.968-.671.751-1.619,1.8-2.469,1.152-1.161-.881-3.559-1.738-3.3-2.657C-7.074,5.035-3.524.048-1.46-3.64-1.145-4.2-.481-4.882.192-4.819c.491.048,1.264.2,1.427.824C2.023-2.438.706-1.309,0,0M20.661.971c-.369.4-.6,1.162-.395,1.362,1.6,1.628,5.769,2.676,6.211,2.3a2.363,2.363,0,0,0,.654-2.309c-1.212-1.78-.474-4.233-2.32-4.424C23.19-2.27,21.9-.339,20.661.971" fill="#fff"/></g><g transform="translate(136.08 -26.59)"><path d="M0,0A1.682,1.682,0,0,0-1.677-1.679l-4.993,0A1.683,1.683,0,0,0-8.35-.007l0,4.995A1.683,1.683,0,0,0-6.678,6.667l4.994.005A1.684,1.684,0,0,0,0,4.995Z" fill="#fff"/></g><g transform="translate(148.086 -26.578)"><path d="M0,0A1.683,1.683,0,0,0-1.676-1.68l-5,0A1.683,1.683,0,0,0-8.352-.009l-.006,5A1.682,1.682,0,0,0-6.682,6.666l5,.005A1.684,1.684,0,0,0,0,4.994Z" fill="#fff"/></g><g transform="translate(160.088 -26.565)"><path d="M0,0A1.681,1.681,0,0,0-1.676-1.681l-4.993-.006A1.682,1.682,0,0,0-8.349-.012l-.006,5a1.684,1.684,0,0,0,1.678,1.68l4.992,0A1.686,1.686,0,0,0,0,4.991Z" fill="#fff"/></g><g transform="translate(47.846 -6.521)"><path d="M0,0A.376.376,0,0,1,.174.031a.305.305,0,0,1,.108.1L1.363,1.618a.244.244,0,0,0,.226.119h.5L.875.084A.621.621,0,0,0,.689-.093,1.6,1.6,0,0,0,1.12-.256a1.2,1.2,0,0,0,.323-.26,1.091,1.091,0,0,0,.2-.344,1.209,1.209,0,0,0,.069-.413,1.223,1.223,0,0,0-.09-.478.925.925,0,0,0-.277-.364,1.3,1.3,0,0,0-.475-.231,2.587,2.587,0,0,0-.683-.08H-.988V1.737h.561V0ZM-.427-1.982H.189a1.188,1.188,0,0,1,.731.189.666.666,0,0,1,.245.561A.839.839,0,0,1,1.1-.9a.687.687,0,0,1-.19.26A.882.882,0,0,1,.6-.469,1.46,1.46,0,0,1,.163-.41h-.59Zm5.971-.444V1.737H8.109V1.278h-2V-.142H7.729V-.584H6.11V-1.967h2v-.459Zm8.492.383a1.463,1.463,0,0,0-.5-.319,1.757,1.757,0,0,0-.637-.111,1.471,1.471,0,0,0-.55.1,1.22,1.22,0,0,0-.4.256,1.114,1.114,0,0,0-.248.366,1.108,1.108,0,0,0-.086.427,1.118,1.118,0,0,0,.086.464.927.927,0,0,0,.225.312,1.19,1.19,0,0,0,.318.2,3.354,3.354,0,0,0,.366.138l.366.117a1.481,1.481,0,0,1,.319.138.7.7,0,0,1,.225.2A.52.52,0,0,1,13.6.555a.8.8,0,0,1-.058.311.662.662,0,0,1-.167.24.765.765,0,0,1-.266.155,1.062,1.062,0,0,1-.357.055,1.133,1.133,0,0,1-.408-.065,1.542,1.542,0,0,1-.285-.144,2.192,2.192,0,0,1-.2-.144A.234.234,0,0,0,11.724.9a.132.132,0,0,0-.075.022.2.2,0,0,0-.056.053l-.163.268a1.736,1.736,0,0,0,.568.4,1.8,1.8,0,0,0,.737.147,1.613,1.613,0,0,0,.591-.1,1.275,1.275,0,0,0,.439-.279,1.18,1.18,0,0,0,.271-.417,1.4,1.4,0,0,0,.093-.512,1,1,0,0,0-.085-.436.93.93,0,0,0-.227-.3,1.268,1.268,0,0,0-.32-.2,3.861,3.861,0,0,0-.366-.144l-.366-.124a1.615,1.615,0,0,1-.319-.141.728.728,0,0,1-.227-.2.47.47,0,0,1-.086-.289.647.647,0,0,1,.05-.254.548.548,0,0,1,.146-.205.715.715,0,0,1,.243-.138,1.006,1.006,0,0,1,.334-.051,1.031,1.031,0,0,1,.341.05,1.342,1.342,0,0,1,.242.109,1.688,1.688,0,0,1,.165.109.208.208,0,0,0,.115.049.117.117,0,0,0,.075-.022.217.217,0,0,0,.056-.065Zm3.234-.383v.474h1.351V1.737h.564V-1.952H20.53v-.474Zm8.077,0h-.572L23.11,1.737h.436a.187.187,0,0,0,.122-.04.229.229,0,0,0,.07-.093l.389-1H26l.39,1a.224.224,0,0,0,.069.1.189.189,0,0,0,.122.037h.436Zm-.409.927c.019-.051.039-.109.059-.176s.041-.14.063-.219a3,3,0,0,0,.125.392L25.838.192H24.284Zm6.44,2.7a.972.972,0,0,1-.346-.245,1.067,1.067,0,0,1-.215-.375A1.463,1.463,0,0,1,30.743.1V-2.426h-.561V.1A1.886,1.886,0,0,0,30.3.773a1.494,1.494,0,0,0,.852.886,1.8,1.8,0,0,0,.692.128,1.788,1.788,0,0,0,.691-.128,1.492,1.492,0,0,0,.522-.353,1.551,1.551,0,0,0,.328-.533A1.886,1.886,0,0,0,33.5.1V-2.426h-.561V.1a1.463,1.463,0,0,1-.074.479,1.067,1.067,0,0,1-.215.375A.979.979,0,0,1,32.3,1.2a1.167,1.167,0,0,1-.462.087,1.138,1.138,0,0,1-.463-.089M38.358,0a.378.378,0,0,1,.174.031.305.305,0,0,1,.108.1l1.081,1.487a.243.243,0,0,0,.226.119h.5L39.232.084a.6.6,0,0,0-.186-.177,1.6,1.6,0,0,0,.432-.163,1.183,1.183,0,0,0,.322-.26A1.055,1.055,0,0,0,40-.86a1.186,1.186,0,0,0,.07-.413,1.223,1.223,0,0,0-.09-.478.935.935,0,0,0-.277-.364,1.3,1.3,0,0,0-.475-.231,2.587,2.587,0,0,0-.683-.08H37.37V1.737h.561V0Zm-.427-1.982h.616a1.183,1.183,0,0,1,.73.189.664.664,0,0,1,.246.561.839.839,0,0,1-.064.334.7.7,0,0,1-.19.26.89.89,0,0,1-.314.169,1.46,1.46,0,0,1-.434.059h-.59Zm7.731-.444H45.09L43.425,1.737h.436a.187.187,0,0,0,.122-.04.229.229,0,0,0,.07-.093l.389-1H46.31l.389,1a.235.235,0,0,0,.07.1.189.189,0,0,0,.122.037h.436Zm-.409.927c.019-.051.039-.109.059-.176s.041-.14.063-.219A3.181,3.181,0,0,0,45.5-1.5L46.153.192H44.6Zm5.738-.927H50.7V1.737h.494V-1.229c0-.039,0-.081,0-.128s-.005-.094-.008-.142l2.408,3.135a.273.273,0,0,0,.089.078.235.235,0,0,0,.112.023h.284V-2.426h-.494V.523q0,.068,0,.138T53.6.808L51.185-2.33a.279.279,0,0,0-.082-.077.251.251,0,0,0-.112-.019m6.525,0v.474h1.351V1.737h.564V-1.952h1.345v-.474Zm10.96,0h-.291V1.737h.494V-1.229c0-.039,0-.081,0-.128s-.005-.094-.008-.142l2.408,3.135a.273.273,0,0,0,.089.078.235.235,0,0,0,.112.023h.284V-2.426h-.494V.523q0,.068,0,.138t.012.147L68.67-2.33a.279.279,0,0,0-.082-.077.251.251,0,0,0-.112-.019m8.71,0h-.572L74.949,1.737h.436a.187.187,0,0,0,.122-.04.229.229,0,0,0,.07-.093l.389-1h1.868l.39,1a.224.224,0,0,0,.069.1.189.189,0,0,0,.122.037h.436Zm-.409.927c.019-.051.039-.109.059-.176s.041-.14.063-.219a3,3,0,0,0,.125.392L77.677.192H76.123Zm4.64-.927v.474h1.351V1.737h.563V-1.952h1.346v-.474ZM89.272,1.2a.972.972,0,0,1-.346-.245,1.067,1.067,0,0,1-.215-.375A1.463,1.463,0,0,1,88.637.1V-2.426h-.561V.1a1.886,1.886,0,0,0,.115.668,1.526,1.526,0,0,0,.33.533,1.505,1.505,0,0,0,.523.353,1.788,1.788,0,0,0,.691.128,1.8,1.8,0,0,0,.692-.128,1.5,1.5,0,0,0,.521-.353,1.551,1.551,0,0,0,.328-.533A1.886,1.886,0,0,0,91.391.1V-2.426H90.83V.1a1.463,1.463,0,0,1-.074.479,1.067,1.067,0,0,1-.215.375A.971.971,0,0,1,90.2,1.2a1.167,1.167,0,0,1-.462.087,1.138,1.138,0,0,1-.463-.089M96.252,0a.376.376,0,0,1,.174.031.305.305,0,0,1,.108.1l1.081,1.487a.244.244,0,0,0,.226.119h.5L97.127.084a.621.621,0,0,0-.186-.177,1.6,1.6,0,0,0,.431-.163,1.2,1.2,0,0,0,.323-.26,1.07,1.07,0,0,0,.2-.344,1.186,1.186,0,0,0,.07-.413,1.223,1.223,0,0,0-.09-.478.925.925,0,0,0-.277-.364,1.3,1.3,0,0,0-.475-.231,2.587,2.587,0,0,0-.683-.08H95.264V1.737h.561V0Zm-.427-1.982h.616a1.188,1.188,0,0,1,.731.189.666.666,0,0,1,.245.561.839.839,0,0,1-.064.334.687.687,0,0,1-.19.26.882.882,0,0,1-.314.169,1.46,1.46,0,0,1-.434.059h-.59Zm5.971-.444V1.737h2.565V1.278h-2V-.142h1.619V-.584h-1.619V-1.967h2v-.459Zm6.787,0h-.564V1.737h2.365V1.264h-1.8Z" fill="#fff"/></g></g></g></svg>