<svg xmlns="http://www.w3.org/2000/svg" xmlns:xlink="http://www.w3.org/1999/xlink" width="127.352" height="73.396" viewBox="0 0 127.352 73.396"><defs><clipPath id="a"><rect width="127.352" height="73.396" transform="translate(0 0)" fill="none"/></clipPath></defs><g transform="translate(0 0)"><g clip-path="url(#a)"><path d="M14.092,36.431c4.295-1.807,8.408-4.094,13.042-2.885,1.651.429,2.22,3.539.454,4.491a2.747,2.747,0,0,1-2.637-.017c-.568-.388-.846-.984-1.535-1.2a4.61,4.61,0,0,0-3.377.373c-3.941,1.9-8.059,3.369-10.595,7.28a3.242,3.242,0,0,0-.272,2.745,2.855,2.855,0,0,0,1.621,1.89c3.5,1.4,6.242-1.487,10.516-.8,1.1.175,2.275-1,3.516-1.286.242-.051.718.236.958.444.794.682.875,1.7,1.329,2.625.57,1.159.2,2.934-1.276,3.247-3.544.747-6.7,2.4-10.165,2.335-4.835-.08-9.827.042-14.246-2.378-2.576-1.419-1.044-4.551-.163-6.733.424-1.047.59-2.4,1.752-2.921a15.169,15.169,0,0,0,3.481-2.214c.281-.23.57-.816.894-1.022a49.393,49.393,0,0,1,6.7-3.976" fill="#fff"/><path d="M33.352,42.059c2.06-.466,1.7,1.7,1.09,2.778-1.159,2.061-2.525,5.008-.792,7.123,2.515-3.257,5.883-5.517,8.108-9.15.948-1.543,3.038-2.192,4.384-1.016.489.415.255,1.656-.09,2.259A68.081,68.081,0,0,0,40.286,56.18c-3.4,4.706-5.268,10.5-8.663,15.674a3.007,3.007,0,0,1-2.169,1.541c-1.732.036-2.465-1.834-3.916-2.883a1.453,1.453,0,0,1-.526-1.579c.936-1.391,2.547-2.023,3.591-3.436.614-.85,1-1.763,1.524-2.651,2.552-4.329,6.369-7.759,7.669-12.679-1.809,1.167-2.6,3.2-4.3,4.52-1.195.94-2.513,2.967-3.966,1.519-2.812-2.815-.836-5.549,1.318-9.366a26.088,26.088,0,0,0,1.433-3.724,1.521,1.521,0,0,1,1.066-1.057" fill="#fff"/><path d="M51.518,44.582c1.468-1.1,2.714-3.585,4.607-3.07.461.125,2.679,2.727,2.571,3.786-.261,2.6-4.249,5.477-1.873,7.9,2.117-.939,4.061-2.8,6.524-2.137,3.333-3.141,8.524-8.571,10.422-8.714,1.138-.082,2.583-.553,3.856-.225.711.175.841.862.338,1.195-1.715,1.137-4.577,2.068-5.541,3.837-.306.556-1.034,1.85.039,1.724.921-.114,2.292-2.05,2.479-2.9.106-.472,3.021-.8,3.267.509.193,1,.1,2.565,1.148,3.1a3.124,3.124,0,0,0,2.137-.169c1.093-.307.922,1.179.31,1.591-3.161,2.12-6.487,4.851-7.658,2.872-.563-.954-.242-3.244-1.51-3.115-1.238.121-1.927,1.907-2.416,3.29-.37,1.046-1.261,2.508-2.477,2.009a17.294,17.294,0,0,1-4.794-3.406,2.195,2.195,0,0,0-1.771-.1c-2.4.868-3.709,3.438-6.216,4.159-2.24.641-3.725-1.229-4.276-3.129-.631-2.189,1.742-3.738,1.945-5.924.025-.237-.224-.854-.5-.782-2.813.733-4.91,3.74-7.878,3.4a1.815,1.815,0,0,1,.306-.653c2.3-1.814,4.576-3.283,6.962-5.058" fill="#fff"/><path d="M110.813,46.936c-.369.4-.6,1.162-.4,1.362,1.6,1.628,5.769,2.676,6.211,2.3a2.363,2.363,0,0,0,.654-2.309c-1.212-1.78-.474-4.233-2.32-4.424-1.621-.171-2.911,1.76-4.15,3.07m-20.661-.971a14.713,14.713,0,0,0-.895,3.219c-.035.12.2.32.361.2,2.651-2.149,4.06-5.152,6.831-7.118,1.339-.96,3.071.408,3.612,1.944.389,1.115-.393,2.049-.612,3.184-.277,1.5-.255,3.527,1.14,4.14.725.323,3.254-1.254,3.437-1.7,1.66-4.161,5.072-6.785,8.759-8.761,1.887-1.01,3.841-.129,5.435,1.027,1.67,1.217,4.782,4.573,3.682,7.511-.874,1.27-1.269,2.7-2.221,3.99a5.591,5.591,0,0,1-5.32,2.127c-3.491-.417-7.406-1.018-9.985-3.656-1.856.178-1.836,1.764-3.767,3.091a4.5,4.5,0,0,1-6.566-1.335c-1.086-1.736.124-3.529-.291-5.351-2,1.845-3.608,3.9-5.458,5.968-.671.751-1.619,1.8-2.469,1.152-1.16-.881-3.559-1.738-3.3-2.657.55-1.934,4.1-6.921,6.164-10.609.315-.557.979-1.242,1.652-1.179.491.048,1.264.2,1.427.824.4,1.557-.913,2.686-1.619,3.995" fill="#fff"/><path d="M1.678,0H6.671A1.679,1.679,0,0,1,8.35,1.679V6.673A1.678,1.678,0,0,1,6.672,8.351H1.678A1.678,1.678,0,0,1,0,6.672V1.678A1.678,1.678,0,0,1,1.678,0Z" transform="translate(89.11 63.27)" fill="#fff"/><path d="M1.678,0h5A1.678,1.678,0,0,1,8.351,1.678v5A1.677,1.677,0,0,1,6.674,8.353h-5A1.678,1.678,0,0,1,0,6.675v-5A1.678,1.678,0,0,1,1.678,0Z" transform="translate(101.109 71.627) rotate(-89.943)" fill="#fff"/><path d="M121.471,64.976a1.681,1.681,0,0,0-1.676-1.681l-4.993-.006a1.682,1.682,0,0,0-1.68,1.675l-.006,5a1.684,1.684,0,0,0,1.678,1.68l4.992,0a1.686,1.686,0,0,0,1.68-1.677Z" fill="#fff"/><path d="M83.3,27.711c-2.088-3.633-.722-9.129,3.052-12.276s8.525-2.752,10.614.881.722,9.129-3.052,12.275-8.525,2.753-10.614-.88M98.926,14.685c-2.686-4.673-8.8-5.18-13.653-1.133s-6.612,11.117-3.926,15.79,8.8,5.18,13.653,1.133,6.613-11.117,3.926-15.79" fill="#fff"/><path d="M97.5,24.713c-5.2,11.369-19.92,7.393-14.808-5.243.353-.751.34-.7.628-1.23-.278.531-.262.476-.605,1.238-4.8,12.515,9.477,16.313,14.785,5.235" fill="#fff"/><path d="M82.585,17.739C86.646,10.617,95.212,9,98.672,15.593c1.2,2.477,1.267,5.817-.443,9.54,1.61-3.888,1.564-7.463-.389-10.411-3.328-4.894-11.028-3.8-15.255,3.017" fill="#fff"/><path d="M88.488,31.679l.272-4.067-1.708,3.924-2.6-1.1,2.04-3.74-3.076,2.821-1.459-2.539,3.38-2.558-3.78,1.027.054-3.226,3.934-.589-3.5-1.211,1.493-3.049,3.308,1.693-2.126-3.2,2.552-2.13,1.681,3.411-.145-4.152,2.988-.628-.273,4.066,1.71-3.923,2.595,1.106-2.04,3.74,3.078-2.821,1.459,2.538-3.38,2.559L98.722,18.6l-.053,3.225-3.935.589,3.5,1.211-1.493,3.049-3.307-1.692,2.126,3.2L93.01,30.31,91.331,26.9l.145,4.15Zm1.042-5.834-.336,5.022,1.613-.34-.176-5.046-.5-1.016Zm-4.162,4.268,1.345.573,2.176-5,.085-1.271-1,.916Zm5.908-4.794,1.952,3.963L94.7,28.054l-2.444-3.677-1.031-.527Zm-8.468,1.827.769,1.338,3.879-3.556.7-1.279-1.133.309Zm9.9-3.27,3.75,1.919.879-1.8-3.987-1.377-1.342.2Zm-10.449-1.1-.031,1.81,4.5-1.225,1.2-.911-1.059-.366Zm7.414,1-.009.14.1-.219Zm.8-.1.1.213-.027-.394Zm-1.448-.272-.086.157.1-.091,0-.071Zm2.176-.307.321.165-.226-.341-.1.015Zm-2.535-.393-.255.194.176-.049Zm1.434-.584-.281.163.282-.161v0m1.476.049.032.048.412-.062-.292-.1Zm-1.395-.266a.418.418,0,0,0-.083.173c.113-.1.092-.163.083-.173m-1.918-.034.295.1.153-.115-.033-.05Zm4.088-.287,1.058.365,4.621-.692.03-1.809-4.5,1.224Zm-9.4-1.549,3.985,1.377,1.343-.2-.7-1.051-3.751-1.92ZM91.7,21.184l-.081.147.259-.2Zm-2.933-.412.225.34.1-.015,0-.161Zm2.481-.209,0,.071.018-.005.085-.157Zm-1.524-.031.011.006.079-.181-.1-.21Zm3.1-1.417-.7,1.278,1.136-.308L97.474,16.9l-.769-1.338Zm-2.2,1-.1.22.087-.079Zm-2.6-.453,1.031.527-.052-1.467L87.052,14.76l-1.469,1.228Zm3.366-1.314-.086,1.272,1-.915,2.608-4.779-1.345-.574Zm-1.742.212.5,1.012.6-1.381.336-5.02-1.613.34Z" fill="#fff"/><path d="M16.823,7.445a10.176,10.176,0,0,0-1.956.356,1.189,1.189,0,0,0-.85.814,57.6,57.6,0,0,1-2.642,6.072c-.286.56-.108.7.437.6a12.191,12.191,0,0,0,4.851-1.81,5.688,5.688,0,0,0,2.478-3.207c.51-1.871-.227-2.828-2.318-2.826m-6.385,9.279a27.608,27.608,0,0,0-2.7,7.019c-.024.108-.04.217-.063.326-.269,1.259-.711,1.4-1.724.531a3.014,3.014,0,0,1-.9-3.1,14.92,14.92,0,0,1,1.335-3.649c1.133-2.369,2.444-4.65,3.473-7.07.212-.5.389-1.01.633-1.649a6.936,6.936,0,0,0-1.712.72c-.17.074-.342.252-.534.131-.225-.142-.153-.4-.124-.609A2.668,2.668,0,0,1,9.59,7.385a9.206,9.206,0,0,1,3.876-1.109,16.8,16.8,0,0,1,5.851.218,3.894,3.894,0,0,1,3.145,2.745,3.977,3.977,0,0,1-1.38,4.172,12.4,12.4,0,0,1-6.264,2.626c-.736.142-.938.348-.68,1.068a13.74,13.74,0,0,0,3.9,6.253c.387.324.362.523-.019.824a2.742,2.742,0,0,1-3.828-.19A12.69,12.69,0,0,1,11.3,19.207c-.289-.743-.522-1.507-.857-2.483" fill="#fff"/><path d="M29.831,14.409c-.36-.029-.522-.054-.684-.053-2.26.008-3.718,1.37-4.97,3.016a6.18,6.18,0,0,0-1.331,3.083c-.082.778.242,1.028.982.782A3.892,3.892,0,0,0,25.3,20.191a68.928,68.928,0,0,0,4.529-5.782m-3.269,6.222c-.669.7-1.213,1.3-1.79,1.867a6.635,6.635,0,0,1-2.557,1.645c-2.02.669-3.27-.361-3.032-2.5a10.237,10.237,0,0,1,7.892-8.492,7.487,7.487,0,0,1,4.787.362c.594.275.667.55.352,1.132a25.332,25.332,0,0,0-2.97,7.694A13,13,0,0,0,29,24.229c-.018.733-.363.794-.9.534a2.937,2.937,0,0,1-1.535-2.58,15.079,15.079,0,0,1-.009-1.552" fill="#fff"/><path d="M54.433,17.034a11.374,11.374,0,0,0,1.269-.28c1.834-.618,3.61-1.342,4.561-3.207.176-.345.393-.748.077-1.147-.345-.434-.78-.33-1.227-.2-2.342.669-3.8,2.418-5.178,4.255-.4.535.036.593.5.581m-8.65,5.908a10.084,10.084,0,0,1,2.723-6.29c2.994-3.459,6.509-6.084,11.259-6.523,2.084-.192,3.136,1.065,2.68,3.11a5.562,5.562,0,0,1-2.28,3.236,14.3,14.3,0,0,1-6.909,2.636,1.673,1.673,0,0,0-1.537,1.141,8.34,8.34,0,0,0-.841,3.174,1.132,1.132,0,0,0,1.292,1.268,5.755,5.755,0,0,0,3.822-1.721,13.591,13.591,0,0,0,2.07-2.255c.137-.186.284-.459.561-.392.332.08.362.41.4.694a3.4,3.4,0,0,1-1.3,3.036,10.892,10.892,0,0,1-8.85,2.719c-2.183-.258-3.166-1.621-3.09-3.833" fill="#fff"/><path d="M31.551,22.407a24.067,24.067,0,0,1,3.732-10.238c1.19-1.845,2.791-2.475,4.463-1.995.893.255,1.226.581.62,1.532a29.153,29.153,0,0,0-3.843,8.839,4.377,4.377,0,0,0-.17.961c-.006.591-.312,1.321.281,1.722.669.453,1.347-.019,1.937-.348a9.346,9.346,0,0,0,2.912-2.767,38.023,38.023,0,0,0,4.8-9.21c.137-.363.151-.9.642-.957.509-.06.777.4,1.026.766a2.584,2.584,0,0,1,.228,2.348,21.477,21.477,0,0,1-5.1,8.272c-2.186,2.37-4.625,4.411-7.862,5.19-2.778.669-3.826-.229-3.661-4.115" fill="#fff"/><path d="M61.084,23.076a21.679,21.679,0,0,1,2.579-8.487A54.713,54.713,0,0,1,70.895,3.112,9.747,9.747,0,0,1,73.948.506,4.018,4.018,0,0,1,76.673.082C77.207.2,77.8.334,77.99.852c.211.573-.446.795-.764,1.123a48.807,48.807,0,0,0-12.6,21.8,16.178,16.178,0,0,0-.451,3.02c-.064.955-.482,1.152-1.27.6a4.645,4.645,0,0,1-1.816-4.32" fill="#fff"/><path d="M77.022,19.185a28.318,28.318,0,0,1-4.151.349.8.8,0,0,0-.811.567c-.639,1.3-1.3,2.586-1.951,3.878a7.084,7.084,0,0,1-.946,1.4,2.149,2.149,0,0,1-2.639.579c-.458-.2-.555-.433-.25-.874A46.817,46.817,0,0,0,69.319,19.8c.22-.426.272-.7-.222-.979a1.457,1.457,0,0,1-.684-1.519c.032-.351.157-.473.532-.311,1.391.6,1.4.593,2.012-.771a31.032,31.032,0,0,0,1.708-4.569c.136-.51.37-.65.876-.5a1.666,1.666,0,0,1,1.242,2.03A18.758,18.758,0,0,1,73.4,17.139c-.35.824-.335.867.557.867.928,0,1.855-.026,2.782-.039a1.337,1.337,0,0,0,1.325-.828,23.905,23.905,0,0,1,3.05-4.8A3.1,3.1,0,0,1,84.6,11.173c.614.227.633.338.2.813a27.6,27.6,0,0,0-6.712,12.678,12.72,12.72,0,0,0-.221,1.677c-.062.677-.233.781-.854.467a2.855,2.855,0,0,1-1.36-3.014,17.852,17.852,0,0,1,1.243-4.215c.041-.1.069-.209.129-.394" fill="#fff"/><path d="M110.534,19.763a1.918,1.918,0,0,0,1.37-.079,4.771,4.771,0,0,0,3.121-2.119c.137-.25.309-.554.062-.848s-.538-.2-.837-.112c-1.667.493-2.648,1.77-3.716,3.158m-5.278,4.1a6.827,6.827,0,0,1,1.844-4.254c2.026-2.338,4.4-4.113,7.616-4.408,1.407-.13,2.118.723,1.809,2.107a3.762,3.762,0,0,1-1.545,2.187,9.9,9.9,0,0,1-4.754,1.8.968.968,0,0,0-.883.612,6.032,6.032,0,0,0-.642,2.212c-.02.676.308.954.961.938a3.905,3.905,0,0,0,2.439-1.112,8.816,8.816,0,0,0,1.41-1.516c.106-.145.21-.38.431-.323.26.066.259.335.276.551a2.324,2.324,0,0,1-.889,1.971,7.377,7.377,0,0,1-5.987,1.836,2.21,2.21,0,0,1-2.086-2.6" fill="#fff"/><path d="M115.9,23.973a14.548,14.548,0,0,1,1.736-5.742,36.6,36.6,0,0,1,4.943-7.826,5.242,5.242,0,0,1,2.781-1.983,2.239,2.239,0,0,1,.985-.038c.388.082.833.154.978.529.16.414-.324.577-.554.818A32.953,32.953,0,0,0,118.3,24.416a18.471,18.471,0,0,0-.3,1.959c-.034.24.02.538-.248.658-.292.131-.532-.072-.745-.243a3.2,3.2,0,0,1-1.108-2.817" fill="#fff"/><path d="M106.97,15.558c.71,0,1.232-.015,1.754,0,.653.024.771.256.439.82a1.1,1.1,0,0,1-1.182.6c-1.643-.327-2.421.515-3.036,1.915-1.015,2.314-2.019,4.609-2.034,7.193,0,.629-.31.719-.786.5a2.868,2.868,0,0,1-1.605-2.7,10.665,10.665,0,0,1,1.14-4.706c.117-.281.265-.548.381-.828.166-.4.633-.807.465-1.186-.177-.4-.749-.133-1.144-.175-.449-.047-.494-.275-.354-.62a1.1,1.1,0,0,1,1.209-.806,1.953,1.953,0,0,0,2.133-1.126,4.267,4.267,0,0,1,2.485-2.2,3.366,3.366,0,0,1,.9-.134c.551.02,1.239.042,1.468.564.181.409-.454.673-.737.985a17.4,17.4,0,0,0-1.493,1.9" fill="#fff"/><path d="M95.639,8.816a1.83,1.83,0,0,1-1.454-.631.459.459,0,0,0-.694-.111,3.439,3.439,0,0,1-1.776.531,1.524,1.524,0,0,1-.686-.124c-.16-.08-.368-.152-.357-.344.01-.161.225-.189.366-.253a12.065,12.065,0,0,0,2.723-1.6c.5-.407.741-.33,1.045.255A6.046,6.046,0,0,0,95.89,8.062c.157.158.507.261.417.5-.1.275-.456.222-.668.251" fill="#fff"/></g></g></svg>