<svg xmlns="http://www.w3.org/2000/svg" xmlns:xlink="http://www.w3.org/1999/xlink" width="118.122" height="71.363" viewBox="0 0 118.122 71.363"><defs><clipPath id="a"><rect width="118.122" height="71.363" fill="none"/></clipPath></defs><g clip-path="url(#a)"><path d="M143.554,84.035,136.6,85.8v-.953l3.52-.827c.866-.206,1.736-.392,2.407-.515v-.02c-.691-.115-1.52-.33-2.417-.569l-3.509-.93v-.94l3.53-.846c.825-.2,1.653-.384,2.386-.488v-.02c-.763-.144-1.54-.341-2.406-.558l-3.509-.917V77.3l6.957,1.972v.942l-3.622.877a21.484,21.484,0,0,1-2.277.455v.02a19.692,19.692,0,0,1,2.277.536l3.622.991Z" transform="translate(-25.514 -14.438)" fill="#fff"/><rect width="6.956" height="0.909" transform="translate(111.083 59.36)" fill="#fff"/><path d="M143.554,67.711H136.6V66.72l3.52-2.22a19.386,19.386,0,0,1,2.259-1.239l-.011-.031c-.928.081-1.774.1-2.858.1H136.6v-.846h6.957V63.4l-3.53,2.208a19.812,19.812,0,0,1-2.324,1.291l.011.031c.88-.051,1.715-.062,2.872-.062h2.971Z" transform="translate(-25.514 -11.671)" fill="#fff"/><path d="M140.289,53.913v2.694h2.51V53.593h.753v3.923H136.6V53.747h.753v2.86h2.2V53.913Z" transform="translate(-25.513 -10.01)" fill="#fff"/><path d="M142.858,48.115a4.854,4.854,0,0,0,.041-.753c0-.93-.339-1.789-1.352-1.789-.938,0-1.342.813-1.342,1.8v.743Zm-3.324,0V47.3c0-.938-.507-1.5-1.178-1.5-.8,0-1.133.609-1.133,1.517a3.9,3.9,0,0,0,.062.8Zm-2.846.9a7.95,7.95,0,0,1-.155-1.642,2.835,2.835,0,0,1,.5-1.9,1.47,1.47,0,0,1,1.229-.589,1.65,1.65,0,0,1,1.53,1.178h.031a1.772,1.772,0,0,1,1.732-1.436,1.827,1.827,0,0,1,1.393.6,3.44,3.44,0,0,1,.651,2.395,10.529,10.529,0,0,1-.081,1.4Z" transform="translate(-25.499 -8.335)" fill="#fff"/><path d="M140.664,36.354l-2,.691c-.455.156-.866.259-1.27.361v.022c.407.1.836.206,1.26.351l2.014.681Zm.7,2.292,2.188.722V40.3L136.6,37.922V36.849l6.957-2.375v.96l-2.188.743Z" transform="translate(-25.513 -6.439)" fill="#fff"/><path d="M139.844,29.127v-.922c0-.96-.527-1.57-1.321-1.57-.9,0-1.291.651-1.291,1.6a3.969,3.969,0,0,0,.072.888Zm-3.172.9a10.484,10.484,0,0,1-.144-1.726,2.873,2.873,0,0,1,.569-2.013,1.773,1.773,0,0,1,1.332-.546,1.823,1.823,0,0,1,1.763,1.3h.03a1.748,1.748,0,0,1,1.4-1.012,11.128,11.128,0,0,0,1.91-.538v.93a8.715,8.715,0,0,1-1.661.454c-.962.207-1.321.589-1.352,1.4v.847h3.009v.9Z" transform="translate(-25.498 -4.762)" fill="#fff"/><path d="M17.809,60.853a4.963,4.963,0,0,1-.394,1.972,5.5,5.5,0,0,1-1.077,1.642,5.229,5.229,0,0,1-1.6,1.139,4.992,4.992,0,0,1-1.959.46H7.411a5.029,5.029,0,0,1-2.023-.407,5.358,5.358,0,0,1-2.78-2.78A5.016,5.016,0,0,1,2.2,60.856V51.748a4.994,4.994,0,0,1,.407-2.022,5.354,5.354,0,0,1,2.78-2.782,5.029,5.029,0,0,1,2.023-.407h5.348a5.768,5.768,0,0,1,1.98.48,5.009,5.009,0,0,1,1.6,1.12,5.516,5.516,0,0,1,1.077,1.639,5,5,0,0,1,.394,1.974ZM13.587,67,13.536,67c.038,0,.081-.01.118-.017Zm4.8-19.315a7.641,7.641,0,0,0-1.452-1.509,7.221,7.221,0,0,0-1.8-1.048l-2.221-.459-5.5-.011a6.849,6.849,0,0,0-2.765.569A7.124,7.124,0,0,0,.9,49a6.876,6.876,0,0,0-.564,2.747v9.108a6.822,6.822,0,0,0,.569,2.765A7.151,7.151,0,0,0,4.646,67.36a6.822,6.822,0,0,0,2.765.569H12.76a5.487,5.487,0,0,1,3.594,1.47,4.9,4.9,0,0,1,1.065,1.491,4.329,4.329,0,0,1,.387,1.816v.042A4.378,4.378,0,0,1,17.4,74.6a4.735,4.735,0,0,1-1.112,1.522,5.425,5.425,0,0,1-1.674,1.027,5.572,5.572,0,0,1-2.056.38H7.408a5.435,5.435,0,0,1-2.033-.38A5.517,5.517,0,0,1,3.718,76.12,4.712,4.712,0,0,1,2.606,74.6a4.366,4.366,0,0,1-.407-1.85v-.5H.335v.5a6.106,6.106,0,0,0,.569,2.6,6.89,6.89,0,0,0,1.522,2.1A7.251,7.251,0,0,0,7.412,79.4h5.148a7.431,7.431,0,0,0,2.771-.524,7.27,7.27,0,0,0,2.252-1.421,6.9,6.9,0,0,0,1.52-2.1,6.106,6.106,0,0,0,.569-2.6v-.036a6.112,6.112,0,0,0-1.3-3.81,6.963,6.963,0,0,0-2.254-1.926,7.508,7.508,0,0,0,.813-.559,7.705,7.705,0,0,0,1.452-1.508,6.65,6.65,0,0,0,.957-1.9,7.083,7.083,0,0,0,.332-2.157V51.749a7.1,7.1,0,0,0-.332-2.159,6.747,6.747,0,0,0-.957-1.895" transform="translate(-0.063 -8.342)" fill="#fff"/><path d="M29.424,51.742a5,5,0,0,1,.407-2.023,5.343,5.343,0,0,1,2.78-2.78,5.023,5.023,0,0,1,2.022-.407h5.711a5.161,5.161,0,0,1,3.693,1.531,5.608,5.608,0,0,1,1.109,1.659,4.972,4.972,0,0,1,.407,2.023v.06a6.363,6.363,0,0,1-.05,1.238,5.553,5.553,0,0,1-.315,1.123,3.652,3.652,0,0,1-.664,1.073,4.4,4.4,0,0,1-3.416,1.249H29.424ZM45.6,62.965a5.162,5.162,0,0,1-1.9,2.263,5.075,5.075,0,0,1-2.852.838H34.637a4.985,4.985,0,0,1-2.022-.411,5.33,5.33,0,0,1-2.78-2.78,4.994,4.994,0,0,1-.407-2.022v-2.5H41.113a6.3,6.3,0,0,0,4.816-1.862,6.041,6.041,0,0,0,1.423-3.148,7.552,7.552,0,0,0,.115-1.164l-.035-.454A7.077,7.077,0,0,0,46.887,49a6.842,6.842,0,0,0-1.522-2.262A7.516,7.516,0,0,0,43.12,45.23a6.849,6.849,0,0,0-2.765-.569H34.644a6.822,6.822,0,0,0-2.765.569,7.289,7.289,0,0,0-2.232,1.513A7.19,7.19,0,0,0,28.132,49a6.881,6.881,0,0,0-.569,2.747v9.108a6.822,6.822,0,0,0,.569,2.765,7.17,7.17,0,0,0,3.747,3.747,6.851,6.851,0,0,0,2.765.565h6.218a7.091,7.091,0,0,0,3.839-1.1,6.746,6.746,0,0,0,2.611-3.1l.2-.451-1.7-.774Z" transform="translate(-5.148 -8.342)" fill="#fff"/><path d="M72.573,48.55a7,7,0,0,0-2.645-2.857,7.209,7.209,0,0,0-3.766-1.03H55.254V67.932h1.865v-21.4h9.044a5.206,5.206,0,0,1,2.775.775,5.346,5.346,0,0,1,1.952,2.1l.228.433L72.8,49Z" transform="translate(-10.32 -8.342)" fill="#fff"/><path d="M95.628,60.867a5.017,5.017,0,0,1-.411,2.023,5.347,5.347,0,0,1-2.781,2.78,5.011,5.011,0,0,1-2.02.407h-.76a5.008,5.008,0,0,1-2.022-.407,5.347,5.347,0,0,1-2.781-2.78,5.029,5.029,0,0,1-.407-2.023V51.538H96.6l.181-1.866H84.444V44.739h-1.87v4.933H76.707v1.9h5.867v9.293a6.849,6.849,0,0,0,.569,2.765,7.173,7.173,0,0,0,3.745,3.741,6.822,6.822,0,0,0,2.765.569h.76a6.87,6.87,0,0,0,2.745-.569,7.112,7.112,0,0,0,3.766-3.746,6.822,6.822,0,0,0,.569-2.765v-.5H95.628Z" transform="translate(-14.327 -8.356)" fill="#fff"/><path d="M123.42,62.522l-.206.351a5.486,5.486,0,0,0,.206-.736Zm-.868-17.862V60.85a5.057,5.057,0,0,1-.407,2.023,5.608,5.608,0,0,1-1.109,1.659,5.164,5.164,0,0,1-3.694,1.53H111.2a5,5,0,0,1-2.023-.407,5.449,5.449,0,0,1-1.656-1.125,5.356,5.356,0,0,1-1.125-1.657,4.979,4.979,0,0,1-.411-2.022V44.66h-1.866V60.85a6.849,6.849,0,0,0,.569,2.765,7.139,7.139,0,0,0,3.745,3.741,6.822,6.822,0,0,0,2.765.569h6.145a6.871,6.871,0,0,0,3.6-.976,7.329,7.329,0,0,0,1.611-1.306V72.3a5.043,5.043,0,0,1-.407,2.023,5.608,5.608,0,0,1-1.109,1.659,5.164,5.164,0,0,1-3.694,1.53h-4.926v1.866h4.926a6.836,6.836,0,0,0,2.765-.569,7.555,7.555,0,0,0,2.245-1.51,6.892,6.892,0,0,0,1.518-2.24,7.031,7.031,0,0,0,.548-2.765V44.649Z" transform="translate(-19.447 -8.34)" fill="#fff"/><path d="M18.239,16.121a7.564,7.564,0,0,0-2.246-1.512,6.852,6.852,0,0,0-2.765-.569H7.08a6.822,6.822,0,0,0-2.765.569,7.3,7.3,0,0,0-2.231,1.513A7.2,7.2,0,0,0,.569,18.374,6.877,6.877,0,0,0,0,21.121v9.108a6.849,6.849,0,0,0,.569,2.765,7.169,7.169,0,0,0,3.746,3.746,6.849,6.849,0,0,0,2.765.569h6.146a6.849,6.849,0,0,0,2.765-.569,7.479,7.479,0,0,0,2.246-1.511,6.873,6.873,0,0,0,1.519-2.24,7.044,7.044,0,0,0,.546-2.765v-.5h-1.87v.5a5,5,0,0,1-.407,2.023,5.591,5.591,0,0,1-1.111,1.66,5.141,5.141,0,0,1-3.691,1.53H7.08a4.968,4.968,0,0,1-2.022-.407A5.323,5.323,0,0,1,3.4,33.906,5.393,5.393,0,0,1,2.277,32.25a5,5,0,0,1-.407-2.023V21.119A4.986,4.986,0,0,1,2.277,19.1a5.351,5.351,0,0,1,2.78-2.78A5.009,5.009,0,0,1,7.08,15.91h6.146a5.158,5.158,0,0,1,3.691,1.53,5.591,5.591,0,0,1,1.111,1.66,5,5,0,0,1,.407,2.023v.5h1.87v-.5a7.109,7.109,0,0,0-.544-2.741A6.842,6.842,0,0,0,18.24,16.12" transform="translate(0 -2.622)" fill="#fff"/><path d="M30.227,13.29h8.466a5.141,5.141,0,0,1,3.691,1.53A5.567,5.567,0,0,1,43.5,16.48,5,5,0,0,1,43.9,18.5V34.691h1.865V18.5a7.064,7.064,0,0,0-.543-2.741A6.876,6.876,0,0,0,43.7,13.5a7.555,7.555,0,0,0-2.245-1.51,6.849,6.849,0,0,0-2.765-.569H30.227V0h-1.87V34.692h1.87Z" transform="translate(-5.297)" fill="#fff"/><path d="M59.982,15.913h5.712a5.146,5.146,0,0,1,3.693,1.53A5.591,5.591,0,0,1,70.5,19.1a5.013,5.013,0,0,1,.411,2.022v.06a6.346,6.346,0,0,1-.05,1.236,5.471,5.471,0,0,1-.315,1.127,3.641,3.641,0,0,1-.66,1.071,4.407,4.407,0,0,1-3.429,1.247H54.77V21.126a5,5,0,0,1,.407-2.022,5.335,5.335,0,0,1,2.78-2.78,5,5,0,0,1,2.022-.407M57.214,36.753a6.822,6.822,0,0,0,2.765.569H66.2a7.076,7.076,0,0,0,3.846-1.108,6.756,6.756,0,0,0,2.614-3.1l.194-.449-1.7-.773-.2.461a5.191,5.191,0,0,1-1.9,2.262,5.07,5.07,0,0,1-2.852.839H59.98a4.986,4.986,0,0,1-2.022-.411,5.347,5.347,0,0,1-2.78-2.78,5,5,0,0,1-.407-2.022v-2.5H66.456a6.3,6.3,0,0,0,4.817-1.863,6.044,6.044,0,0,0,1.424-3.15,7.955,7.955,0,0,0,.115-1.162l-.036-.454a7.086,7.086,0,0,0-.546-2.721,6.876,6.876,0,0,0-1.52-2.261,7.546,7.546,0,0,0-2.246-1.511,6.855,6.855,0,0,0-2.765-.569H59.987a6.863,6.863,0,0,0-2.765.569,7.129,7.129,0,0,0-3.741,3.765,6.885,6.885,0,0,0-.569,2.748v9.108a6.822,6.822,0,0,0,.569,2.765,7.165,7.165,0,0,0,3.741,3.745" transform="translate(-9.883 -2.624)" fill="#fff"/><path d="M100.16,33.265,98.54,32.34l-.25.429a5.338,5.338,0,0,1-4.629,2.684H83.5l7.333-8.687,10.782-12.715H87.372a7.775,7.775,0,0,0-1.893.231,6.205,6.205,0,0,0-1.754.738,6.94,6.94,0,0,0-2.609,2.645l-.244.433,1.626.927.248-.429a5.334,5.334,0,0,1,4.63-2.679H97.542l-7.367,8.72L79.429,37.32H93.665a6.953,6.953,0,0,0,3.642-1A6.705,6.705,0,0,0,99.923,33.7Z" transform="translate(-14.836 -2.624)" fill="#fff"/><path d="M111.581,14.824h3.439A2.361,2.361,0,0,1,117.2,16.27a2.37,2.37,0,0,1,.183.93v7.194h.993V17.2a3.321,3.321,0,0,0-.257-1.291,3.369,3.369,0,0,0-.732-1.091,3.314,3.314,0,0,0-1.085-.725,3.353,3.353,0,0,0-1.286-.251H110.6V24.394h.982Z" transform="translate(-20.657 -2.585)" fill="#fff"/><path d="M125.549,14.535a1.341,1.341,0,0,1,1.365,1.318q0,.056,0,.112a1.368,1.368,0,0,1-1.269,1.461c-.025,0-.051,0-.076,0a1.337,1.337,0,0,1-1.33-1.342c0-.018,0-.035,0-.053a1.377,1.377,0,0,1,1.247-1.495l.063,0m0,3.59a2.154,2.154,0,0,0,2.175-2.133v-.042a2.059,2.059,0,0,0-2-2.114c-.041,0-.082,0-.124,0a2.149,2.149,0,0,0-2.175,2.123c0,.023,0,.046,0,.068a2.068,2.068,0,0,0,2.039,2.1h.089" transform="translate(-23.052 -2.584)" fill="#fff"/><path d="M124.908,34.549a2.755,2.755,0,0,0-.651-.92,3.009,3.009,0,0,0-2.075-.813h-3.342l.488-3.416h5.123V28.388h-5.967l-.784,5.436h4.473a2.038,2.038,0,0,1,.777.147,2.082,2.082,0,0,1,.633.4,1.7,1.7,0,0,1,.415.573,1.673,1.673,0,0,1,.149.7v1.751a1.721,1.721,0,0,1-.564,1.276,2.08,2.08,0,0,1-1.41.543h-2a1.139,1.139,0,0,1-.5-.114,1.246,1.246,0,0,1-.414-.318,1.6,1.6,0,0,1-.293-.488,1.667,1.667,0,0,1-.107-.6v-.363h-.982v.318l-.758-.387-.149.367a2.863,2.863,0,0,1-.38.664,2.446,2.446,0,0,1-.51.494,2.323,2.323,0,0,1-.61.316,2,2,0,0,1-.66.112h-4.429l6.716-6.9V32.1a4.082,4.082,0,0,0-.244-1.413,3.7,3.7,0,0,0-.719-1.2,3.319,3.319,0,0,0-1.1-.826,3.048,3.048,0,0,0-1.3-.284h-1.469a3.045,3.045,0,0,0-1.3.284,3.326,3.326,0,0,0-1.1.826,3.684,3.684,0,0,0-.717,1.2,4.082,4.082,0,0,0-.244,1.413v.363h.982V32.1a2.919,2.919,0,0,1,.194-1.057,2.833,2.833,0,0,1,.522-.867,2.447,2.447,0,0,1,.758-.577,2.006,2.006,0,0,1,.9-.209h1.469a2,2,0,0,1,.886.2,2.518,2.518,0,0,1,.756.562,2.858,2.858,0,0,1,.726,1.734l-8.145,8.339h6.855a3.113,3.113,0,0,0,1.864-.62,3.6,3.6,0,0,0,1.2-1.587l.014-.038a2.682,2.682,0,0,0,.646,1.487,2.336,2.336,0,0,0,.732.551,2.08,2.08,0,0,0,.919.209h1.985a3.029,3.029,0,0,0,2.075-.813,2.734,2.734,0,0,0,.88-2.02V35.647a2.735,2.735,0,0,0-.226-1.1" transform="translate(-20.166 -5.3)" fill="#fff"/><path d="M31.214,81.466a2.209,2.209,0,0,0,.4-.279,1.58,1.58,0,0,0,.394-1.16,1.97,1.97,0,0,0-1.987-1.953h-1.99V85.65h2.238a2.178,2.178,0,0,0,2.166-2.192v-.045a2.2,2.2,0,0,0-1.22-1.944m-2.4-.21v-2.4h1.169a1.211,1.211,0,0,1,.26,2.4Zm0,.786h1.572a1.329,1.329,0,0,1,1.259,1.382,1.4,1.4,0,0,1-1.361,1.439H28.819Z" transform="translate(-5.236 -14.583)" fill="#fff"/><path d="M42.744,80.528a2.44,2.44,0,0,0-2.42-2.459h-2.4v7.582H38.7V82.425l3.455,3.458.555-.555-2.376-2.386a2.474,2.474,0,0,0,.28.018,2.323,2.323,0,0,0,2.127-2.427M38.7,78.859h1.58A1.657,1.657,0,0,1,41.956,80.5v.032a1.674,1.674,0,0,1-1.615,1.731H38.7Z" transform="translate(-7.083 -14.582)" fill="#fff"/><path d="M47.286,85.383l.714.336,1.287-2.765h3.281l1.288,2.765.714-.336-3.637-7.8ZM52.2,82.173H49.652l1.271-2.737Z" transform="translate(-8.832 -14.491)" fill="#fff"/><path d="M61.738,81.268c-.919-.23-1.329-.616-1.329-1.252A1.271,1.271,0,0,1,61.628,78.7c.037,0,.075,0,.112,0a1.355,1.355,0,0,1,1.391,1.318v.056l.006.121.786-.042-.006-.12a2.129,2.129,0,0,0-2.134-2.123h-.053a2.056,2.056,0,0,0-2.106,2c0,.041,0,.082,0,.123,0,.986.643,1.659,1.913,2,1.748.452,1.887.882,1.887,1.395a1.672,1.672,0,0,1-1.714,1.626c-.555,0-1.505-.22-1.626-1.693l-.01-.118-.785.045.01.123a2.429,2.429,0,0,0,4.25,1.649,2.425,2.425,0,0,0,.655-1.626c0-.909-.42-1.626-2.469-2.162" transform="translate(-11.074 -14.552)" fill="#fff"/><path d="M71.194,81.268c-.919-.23-1.329-.616-1.329-1.252A1.268,1.268,0,0,1,71.081,78.7q.056,0,.112,0a1.353,1.353,0,0,1,1.391,1.313v.06l.006.121.787-.042-.006-.12a2.129,2.129,0,0,0-2.136-2.123h-.053a2.055,2.055,0,0,0-2.105,2c0,.041,0,.082,0,.124,0,.986.643,1.659,1.914,2,1.746.452,1.885.881,1.885,1.395a1.671,1.671,0,0,1-1.712,1.626c-.555,0-1.505-.22-1.626-1.693l-.01-.118-.784.045.01.123a2.429,2.429,0,0,0,4.251,1.649,2.425,2.425,0,0,0,.655-1.626c0-.909-.42-1.626-2.469-2.162" transform="translate(-12.84 -14.551)" fill="#fff"/><path d="M79.8,82.043h2.217v-.782H79.8v-2.4h2.78v-.786H79.019v7.575h3.947v-.786H79.8Z" transform="translate(-14.759 -14.583)" fill="#fff"/><path d="M93.235,80.528a2.44,2.44,0,0,0-2.42-2.459H88.407v7.582H89.2V82.423l3.455,3.456.555-.555-2.375-2.386a2.5,2.5,0,0,0,.281.018,2.322,2.322,0,0,0,2.125-2.427M89.2,78.855h1.58a1.7,1.7,0,0,1,.022,3.406H89.2Z" transform="translate(-16.513 -14.582)" fill="#fff"/><rect width="0.786" height="7.577" transform="translate(80.261 63.49)" fill="#fff"/><path d="M105.232,84.862v-2.82h2.215v-.786h-2.215v-2.4h2.78v-.786h-3.566v7.58h3.947v-.786Z" transform="translate(-19.508 -14.582)" fill="#fff"/></g></svg>