<svg xmlns="http://www.w3.org/2000/svg" width="164.622" height="54.912" viewBox="0 0 164.622 54.912"><g transform="translate(-140 -188.289)"><g transform="translate(140 188.289)"><g transform="translate(101.051 14.553)"><path d="M345.372,62.1c-3.613-6.287-11.835-6.968-18.364-1.524s-8.895,14.953-5.281,21.239,11.836,6.968,18.364,1.524S348.986,68.383,345.372,62.1ZM324.36,79.617c-2.81-4.886-.972-12.279,4.1-16.511s11.468-3.7,14.277,1.184.972,12.28-4.1,16.511S327.169,84.5,324.36,79.617Z" transform="translate(-320.035 -56.898)" fill="#5d8720"/><path d="M344.948,82.786c-7,15.293-26.793,9.944-19.918-7.052.475-1.01.457-.945.845-1.655-.374.714-.353.641-.814,1.665C318.6,92.578,337.808,97.686,344.948,82.786Z" transform="translate(-321.529 -64.097)" fill="none" stroke="#417c24" stroke-miterlimit="10" stroke-width="1"/><path d="M325.813,66.794c5.462-9.579,16.984-11.755,21.638-2.887,1.608,3.332,1.7,7.824-.6,12.832,2.165-5.23,2.1-10.038-.523-14C341.855,56.153,331.5,57.628,325.813,66.794Z" transform="translate(-322.456 -57.487)" fill="none" stroke="#fff" stroke-miterlimit="10" stroke-width="1"/><g transform="translate(2.487 2.7)"><path d="M345.053,76.151,344.1,74.5l8.423-7.716,1.489,2.591Z" transform="translate(-332.608 -63.739)" fill="none" stroke="#417c24" stroke-miterlimit="10" stroke-width="1"/><path d="M344.492,73.3l-1.684-.717,4.647-10.662,2.635,1.122Z" transform="translate(-332.065 -61.701)" fill="none" stroke="#417c24" stroke-miterlimit="10" stroke-width="1"/><path d="M343.344,72.532l-1.965.414L341,62.192l3.075-.648Z" transform="translate(-331.31 -61.544)" fill="none" stroke="#417c24" stroke-miterlimit="10" stroke-width="1"/><path d="M338.833,73.716l-1.719,1.433-5.3-7.962,2.69-2.244Z" transform="translate(-327.46 -62.969)" fill="none" stroke="#417c24" stroke-miterlimit="10" stroke-width="1"/><path d="M335.52,77.343l-1.013,2.07-8.8-3.039,1.586-3.238Z" transform="translate(-324.9 -66.402)" fill="none" stroke="#417c24" stroke-miterlimit="10" stroke-width="1"/><path d="M334.295,81.371l-.036,2.15-9.942,2.7.056-3.365Z" transform="translate(-324.317 -69.852)" fill="none" stroke="#417c24" stroke-miterlimit="10" stroke-width="1"/><path d="M334.41,82.755l.95,1.655-8.422,7.716-1.489-2.591Z" transform="translate(-324.792 -70.432)" fill="none" stroke="#417c24" stroke-miterlimit="10" stroke-width="1"/><path d="M336.867,84.159l1.684.717L333.9,95.538l-2.635-1.122Z" transform="translate(-327.23 -71.021)" fill="none" stroke="#417c24" stroke-miterlimit="10" stroke-width="1"/><path d="M341.052,84.91l1.965-.414.374,10.753-3.075.648Z" transform="translate(-331.021 -71.162)" fill="none" stroke="#417c24" stroke-miterlimit="10" stroke-width="1"/><path d="M342.72,84.587l1.72-1.433,5.3,7.962-2.691,2.244Z" transform="translate(-332.029 -70.6)" fill="none" stroke="#417c24" stroke-miterlimit="10" stroke-width="1"/><path d="M344.017,83.794l1.013-2.069,8.8,3.038L352.242,88Z" transform="translate(-332.572 -70.001)" fill="none" stroke="#417c24" stroke-miterlimit="10" stroke-width="1"/><path d="M345.122,80.8l.036-2.15,9.942-2.7-.056,3.365Z" transform="translate(-333.035 -67.579)" fill="none" stroke="#417c24" stroke-miterlimit="10" stroke-width="1"/><path d="M341.8,82.753c-.6-1.045,1.042-2.416,1.643-1.37S342.4,83.8,341.8,82.753Z" transform="translate(-331.588 -69.701)" fill="none" stroke="#417c24" stroke-miterlimit="10" stroke-width="1"/></g><path d="M343.488,81.025a1.02,1.02,0,0,0-1.6-.133,1.546,1.546,0,0,0-.46,1.853,1.02,1.02,0,0,0,1.6.133A1.55,1.55,0,0,0,343.488,81.025Zm-1.466,1.222a.651.651,0,0,1,.194-.78c.573-.479,1.055.357.48.837A.429.429,0,0,1,342.022,82.246Z" transform="translate(-328.937 -66.818)" fill="none" stroke="#417c24" stroke-miterlimit="10" stroke-width="1"/></g><path d="M153.463,60.288a37.194,37.194,0,0,0-3.626,9.441c-.032.145-.054.292-.085.438-.362,1.695-.956,1.877-2.318.715a4.052,4.052,0,0,1-1.215-4.167,20.064,20.064,0,0,1,1.8-4.908c1.523-3.187,3.288-6.255,4.672-9.509.285-.67.523-1.359.852-2.218a9.352,9.352,0,0,0-2.3.967c-.229.1-.46.339-.717.177-.3-.191-.206-.534-.168-.819a3.59,3.59,0,0,1,1.974-2.679,12.38,12.38,0,0,1,5.214-1.491,22.6,22.6,0,0,1,7.87.293c2.005.534,3.67,1.532,4.231,3.692a5.351,5.351,0,0,1-1.857,5.611c-2.393,2.157-5.383,2.947-8.425,3.532-.991.191-1.261.468-.914,1.436,1.142,3.188,2.575,6.187,5.244,8.412.521.435.487.7-.025,1.107a3.689,3.689,0,0,1-5.15-.254,17.083,17.083,0,0,1-3.893-6.437c-.39-1-.7-2.027-1.154-3.339m8.589-12.48a13.6,13.6,0,0,0-2.632.478,1.6,1.6,0,0,0-1.143,1.095,77.647,77.647,0,0,1-3.553,8.168c-.385.754-.146.938.587.808a16.389,16.389,0,0,0,6.525-2.434,7.655,7.655,0,0,0,3.334-4.314c.686-2.517-.306-3.8-3.118-3.8" transform="translate(-146.098 -37.793)" fill="#292928"/><path d="M188.921,72.143c-.9.942-1.633,1.749-2.408,2.512a8.921,8.921,0,0,1-3.439,2.212c-2.718.9-4.4-.486-4.078-3.359a13.771,13.771,0,0,1,10.615-11.422,10.084,10.084,0,0,1,6.439.487c.8.37.9.74.473,1.523a34.111,34.111,0,0,0-4,10.35,17.661,17.661,0,0,0-.322,2.538c-.024.985-.489,1.067-1.208.717a3.947,3.947,0,0,1-2.065-3.47,20.189,20.189,0,0,1-.012-2.087m4.4-8.368c-.485-.04-.7-.073-.92-.072-3.04.011-5,1.843-6.684,4.057a8.308,8.308,0,0,0-1.791,4.146c-.11,1.047.326,1.383,1.321,1.052a5.222,5.222,0,0,0,1.983-1.407c2.3-2.291,3.933-5.093,6.092-7.777" transform="translate(-159.867 -44.393)" fill="#292928"/><path d="M240.605,72.514a13.57,13.57,0,0,1,3.662-8.461c4.027-4.652,8.756-8.182,15.145-8.773,2.8-.259,4.218,1.432,3.6,4.183a7.479,7.479,0,0,1-3.066,4.352,19.244,19.244,0,0,1-9.293,3.546,2.252,2.252,0,0,0-2.068,1.535,11.227,11.227,0,0,0-1.131,4.269,1.522,1.522,0,0,0,1.738,1.706,7.741,7.741,0,0,0,5.141-2.315,18.316,18.316,0,0,0,2.783-3.033c.185-.25.383-.618.755-.528.447.107.488.551.536.934a4.569,4.569,0,0,1-1.746,4.084,14.65,14.65,0,0,1-11.9,3.658c-2.936-.348-4.258-2.181-4.156-5.156m11.634-7.947a15.211,15.211,0,0,0,1.707-.376c2.467-.831,4.856-1.8,6.135-4.313.236-.464.529-1.006.1-1.543-.463-.584-1.048-.444-1.65-.272-3.149.9-5.115,3.253-6.964,5.724-.538.719.048.8.669.781" transform="translate(-185.698 -41.656)" fill="#5d8720"/><path d="M207.641,71.631a32.394,32.394,0,0,1,5.02-13.772c1.6-2.482,3.754-3.328,6-2.683,1.2.345,1.649.783.834,2.062a39.172,39.172,0,0,0-5.168,11.888,5.821,5.821,0,0,0-.229,1.293c-.008.795-.419,1.777.378,2.316.9.608,1.813-.026,2.606-.468A12.573,12.573,0,0,0,221,68.546a51.17,51.17,0,0,0,6.457-12.389c.184-.488.2-1.21.864-1.287.684-.08,1.044.544,1.38,1.03a3.478,3.478,0,0,1,.306,3.158,28.908,28.908,0,0,1-6.866,11.127c-2.941,3.188-6.221,5.932-10.575,6.981-3.736.9-5.147-.308-4.925-5.535" transform="translate(-171.877 -41.492)" fill="#5d8720"/><path d="M276.029,62.887c.149-4.108,1.749-7.8,3.468-11.416a73.671,73.671,0,0,1,9.728-15.437,13.119,13.119,0,0,1,4.106-3.5,5.4,5.4,0,0,1,3.665-.57c.718.153,1.515.339,1.772,1.036.284.77-.6,1.068-1.028,1.511-8.093,8.367-14,18-16.955,29.327a21.8,21.8,0,0,0-.607,4.063c-.086,1.284-.648,1.549-1.708.8-2-1.413-2.524-3.489-2.442-5.81" transform="translate(-200.541 -31.848)" fill="#5d8720"/><path d="M302.337,68.328a38.019,38.019,0,0,1-5.584.469,1.082,1.082,0,0,0-1.09.763c-.86,1.746-1.748,3.478-2.625,5.215a9.474,9.474,0,0,1-1.272,1.889,2.891,2.891,0,0,1-3.55.779c-.615-.276-.746-.583-.336-1.175a63.154,63.154,0,0,0,4.1-7.112c.3-.573.365-.943-.3-1.317a1.96,1.96,0,0,1-.92-2.043c.044-.473.211-.637.716-.419,1.87.808,1.889.8,2.706-1.036a41.826,41.826,0,0,0,2.3-6.145c.184-.687.5-.875,1.179-.676a2.242,2.242,0,0,1,1.67,2.731,25.336,25.336,0,0,1-1.866,5.325c-.471,1.108-.451,1.166.749,1.166,1.248,0,2.5-.035,3.742-.052a1.8,1.8,0,0,0,1.781-1.114,32.151,32.151,0,0,1,4.1-6.456,4.171,4.171,0,0,1,4.691-1.569c.827.306.852.454.269,1.093A37.111,37.111,0,0,0,303.767,75.7a17.2,17.2,0,0,0-.3,2.255c-.083.912-.313,1.05-1.148.628a3.838,3.838,0,0,1-1.829-4.053,23.987,23.987,0,0,1,1.671-5.67c.056-.137.093-.281.174-.529" transform="translate(-205.411 -42.522)" fill="#292928"/><path d="M378.3,78.677a9.186,9.186,0,0,1,2.481-5.722c2.724-3.145,5.923-5.532,10.244-5.929,1.892-.174,2.849.973,2.432,2.834a5.053,5.053,0,0,1-2.078,2.941,13.306,13.306,0,0,1-6.4,2.415,1.3,1.3,0,0,0-1.187.823,8.083,8.083,0,0,0-.863,2.976c-.027.909.414,1.283,1.292,1.261a5.252,5.252,0,0,0,3.281-1.5,11.776,11.776,0,0,0,1.9-2.039c.143-.2.282-.511.581-.435.349.089.347.451.371.742a3.127,3.127,0,0,1-1.2,2.651,9.925,9.925,0,0,1-8.053,2.469c-1.985-.236-2.875-1.477-2.806-3.492m7.1-5.512a2.579,2.579,0,0,0,1.843-.107c1.693-.5,3.291-1.192,4.2-2.85.185-.336.415-.745.084-1.14s-.724-.27-1.126-.151c-2.242.664-3.562,2.381-5,4.249" transform="translate(-243.398 -46.581)" fill="#292928"/><path d="M402.935,72.19a19.564,19.564,0,0,1,2.336-7.723,49.239,49.239,0,0,1,6.648-10.528,7.056,7.056,0,0,1,3.741-2.667,3.01,3.01,0,0,1,1.325-.051c.523.11,1.121.206,1.316.711.216.557-.436.777-.745,1.1a44.328,44.328,0,0,0-11.391,19.753,24.51,24.51,0,0,0-.4,2.634c-.047.324.026.724-.335.885-.393.176-.715-.1-1-.327a4.308,4.308,0,0,1-1.49-3.789" transform="translate(-253.721 -39.944)" fill="#292928"/><path d="M376,64.525c.956,0,1.658-.021,2.359,0,.878.033,1.037.346.591,1.1a1.474,1.474,0,0,1-1.591.805c-2.209-.439-3.256.693-4.082,2.576-1.366,3.112-2.717,6.2-2.737,9.675,0,.847-.417.968-1.057.672a3.859,3.859,0,0,1-2.159-3.629,14.37,14.37,0,0,1,1.533-6.331c.158-.377.357-.737.513-1.114.224-.541.852-1.085.625-1.595-.237-.536-1.006-.179-1.538-.236-.6-.064-.664-.37-.476-.834a1.472,1.472,0,0,1,1.626-1.083,2.627,2.627,0,0,0,2.869-1.515,5.735,5.735,0,0,1,3.343-2.952,4.469,4.469,0,0,1,1.206-.18c.742.026,1.667.056,1.975.758.243.551-.612.906-.992,1.325A23.421,23.421,0,0,0,376,64.525" transform="translate(-238.797 -43.599)" fill="#292928"/><path d="M351.218,49.556a2.462,2.462,0,0,1-1.956-.849.616.616,0,0,0-.933-.148,4.637,4.637,0,0,1-2.389.714,2.058,2.058,0,0,1-.923-.167c-.214-.107-.495-.2-.48-.463.013-.216.3-.254.492-.339a16.339,16.339,0,0,0,3.663-2.151c.672-.548,1-.445,1.406.342a8.117,8.117,0,0,0,1.457,2.048c.212.211.682.351.562.676-.135.369-.614.3-.9.338" transform="translate(-229.251 -37.698)" fill="#292928"/></g><g transform="translate(201.755 232.956)"><path d="M257.783,108.732l1.271,3.913h4.115l-3.329,2.418,1.272,3.913-3.329-2.419-3.329,2.419,1.271-3.913-3.329-2.418h4.115Z" transform="translate(-252.397 -108.732)" fill="#292928"/><path d="M283.895,108.732l1.271,3.913h4.115l-3.329,2.418,1.272,3.913-3.329-2.419-3.329,2.419,1.271-3.913-3.329-2.418h4.115Z" transform="translate(-263.339 -108.732)" fill="#292928"/><path d="M310.006,108.732l1.271,3.913h4.115l-3.328,2.418,1.271,3.913-3.328-2.419-3.329,2.419,1.272-3.913-3.329-2.418h4.115Z" transform="translate(-274.28 -108.732)" fill="#292928"/></g></g></svg>