<svg xmlns="http://www.w3.org/2000/svg" xmlns:xlink="http://www.w3.org/1999/xlink" width="326.451" height="81.951" viewBox="0 0 326.451 81.951"><defs><clipPath id="a"><path d="M0,41.763H326.451V-40.188H0Z" transform="translate(0 40.188)" fill="#fff"/></clipPath></defs><g transform="translate(0 40.188)"><g transform="translate(0 -40.188)" clip-path="url(#a)"><g transform="translate(0 0)"><path d="M14.644,3.349C23.4-.336,31.79-5,41.239-2.534c3.367.875,4.527,7.217.926,9.158a5.6,5.6,0,0,1-5.377-.035C35.63,5.8,35.063,4.583,33.658,4.14a9.4,9.4,0,0,0-6.886.761c-8.036,3.864-16.434,6.87-21.605,14.845-1.193,1.819-1.028,3.607-.555,5.6A5.822,5.822,0,0,0,7.917,29.2c7.135,2.855,12.729-3.032,21.444-1.625,2.249.357,4.639-2.031,7.17-2.622.493-.1,1.464.481,1.954.905,1.619,1.391,1.784,3.465,2.71,5.353,1.162,2.363.408,5.983-2.6,6.621-7.227,1.523-13.669,4.884-20.728,4.762-9.86-.163-20.039.086-29.05-4.849-5.253-2.894-2.129-9.28-.332-13.73.865-2.135,1.2-4.89,3.573-5.956a30.932,30.932,0,0,0,7.1-4.515c.573-.469,1.162-1.664,1.823-2.084,4.617-2.871,8.783-6.05,13.669-8.108" transform="translate(14.092 3.223)" fill="#fff"/></g><g transform="translate(50.825 16.278)"><path d="M8.758.9c4.2-.95,3.463,3.473,2.223,5.665-2.363,4.2-5.149,10.212-1.615,14.525,5.129-6.642,12-11.25,16.534-18.659,1.933-3.146,6.2-4.47,8.94-2.072,1,.846.52,3.377-.184,4.607C26.881,18.636,26.952,19.733,22.9,29.7,15.965,39.3,12.155,51.116,5.232,61.661,4.17,63.286,2.545,64.765.809,64.8c-3.532.073-5.027-3.74-7.985-5.879-.96-.691-1.574-2.439-1.073-3.22C-6.34,52.868-3.055,51.579-.926,48.7c1.252-1.733,2.041-3.6,3.108-5.406,5.2-8.828,12.988-15.822,15.639-25.855-3.689,2.38-5.31,6.523-8.758,9.217-2.437,1.917-5.124,6.05-8.087,3.1-5.734-5.74-1.7-11.315,2.688-19.1A53.2,53.2,0,0,0,6.584,3.059,3.1,3.1,0,0,1,8.758.9" transform="translate(8.428 0.869)" fill="#fff"/></g><g transform="translate(90.223 16.793)"><path d="M7.559,3.262C10.553,1.019,13.094-4.048,16.954-3c.94.255,5.463,5.561,5.243,7.72-.532,5.294-8.665,11.169-3.819,16.116,4.317-1.915,8.281-5.71,13.3-4.358C38.477,10.075,49.063-1,52.933-1.289c2.321-.167,5.267-1.128,7.863-.459,1.45.357,1.715,1.758.689,2.437-3.5,2.319-9.333,4.217-11.3,7.824-.624,1.134-2.109,3.773.08,3.516,1.878-.232,4.674-4.18,5.055-5.916.216-.962,6.16-1.635,6.662,1.038.394,2.045.2,5.231,2.341,6.328,1.248.638,2.837.069,4.358-.345,2.229-.626,1.88,2.4.632,3.244C62.868,20.7,56.086,26.271,53.7,22.235c-1.148-1.945-.493-6.615-3.079-6.352-2.525.247-3.93,3.889-4.927,6.709-.754,2.133-2.571,5.114-5.051,4.1-3.662-1.489-6.23-3.864-9.776-6.945-.653-.569-2.455-.616-3.611-.2-4.886,1.77-7.563,7.011-12.676,8.481-4.568,1.307-7.6-2.506-8.72-6.381-1.287-4.464,3.552-7.623,3.966-12.08C9.876,9.078,9.368,7.82,8.8,7.967,3.067,9.462-1.209,15.593-7.262,14.908a3.7,3.7,0,0,1,.624-1.332c4.692-3.7,9.331-6.695,14.2-10.314" transform="translate(7.274 3.139)" fill="#fff"/></g><g transform="translate(168.251 15.124)"><path d="M7.943,5.55C6.8,7.646,6.761,9.883,6.118,12.114c-.071.245.412.653.736.4C12.26,8.133,15.134,2.01,20.784-2c2.73-1.958,6.262.832,7.366,3.964.793,2.274-.8,4.178-1.248,6.493-.565,3.061-.52,7.192,2.325,8.442,1.478.659,6.636-2.557,7.009-3.473C39.62,4.942,46.578-.409,54.1-4.438,57.945-6.5,61.929-4.7,65.18-2.344c3.405,2.482,9.751,9.325,7.508,15.316-1.782,2.59-2.588,5.508-4.529,8.136A11.4,11.4,0,0,1,57.31,25.446c-7.119-.85-15.1-2.076-20.361-7.455-3.785.363-3.744,3.6-7.682,6.3a9.175,9.175,0,0,1-13.389-2.722c-2.215-3.54.253-7.2-.593-10.912C11.2,14.422,7.927,18.613,4.155,22.83,2.786,24.361.853,26.506-.88,25.179c-2.368-1.8-7.257-3.544-6.723-5.418C-6.482,15.817.757,5.647,4.966-1.873c.642-1.136,2-2.533,3.369-2.4,1,.1,2.578.406,2.91,1.68C12.069.578,9.383,2.88,7.943,5.55M50.075,7.53c-.752.816-1.217,2.37-.805,2.777,3.271,3.32,11.764,5.457,12.665,4.692,1.348-1.12,1.886-3.852,1.334-4.709C60.8,6.661,62.3,1.659,58.538,1.269,55.232.921,52.6,4.858,50.075,7.53" transform="translate(7.644 5.34)" fill="#fff"/></g><g transform="translate(260.458 24.297)"><path d="M8.681,1.749a3.43,3.43,0,0,0-3.42-3.424L-4.92-1.683A3.432,3.432,0,0,0-8.346,1.735L-8.354,11.92a3.431,3.431,0,0,0,3.418,3.424l10.184.01a3.435,3.435,0,0,0,3.426-3.42Z" transform="translate(8.354 1.683)" fill="#e93994"/></g><g transform="translate(284.932 24.318)"><path d="M8.686,1.751A3.433,3.433,0,0,0,5.268-1.675L-4.92-1.685A3.432,3.432,0,0,0-8.346,1.733l-.012,10.188A3.43,3.43,0,0,0-4.94,15.344l10.192.01a3.435,3.435,0,0,0,3.426-3.42Z" transform="translate(8.358 1.685)" fill="#541e5b"/></g><g transform="translate(309.414 24.34)"><path d="M8.682,1.753A3.428,3.428,0,0,0,5.265-1.675L-4.917-1.687A3.43,3.43,0,0,0-8.343,1.729l-.012,10.188a3.434,3.434,0,0,0,3.422,3.426l10.18.008a3.437,3.437,0,0,0,3.426-3.42Z" transform="translate(8.355 1.687)" fill="#ff6f28"/></g><g transform="translate(95.552 63.61)"><path d="M1.027,2.57a.766.766,0,0,1,.355.063.623.623,0,0,1,.22.2l2.2,3.032a.5.5,0,0,0,.461.243h1.02L2.811,2.741a1.266,1.266,0,0,0-.379-.361,3.264,3.264,0,0,0,.879-.332,2.453,2.453,0,0,0,.659-.53,2.225,2.225,0,0,0,.412-.7,2.466,2.466,0,0,0,.141-.842A2.494,2.494,0,0,0,4.338-1a1.887,1.887,0,0,0-.565-.742A2.653,2.653,0,0,0,2.8-2.214a5.276,5.276,0,0,0-1.393-.163h-2.4V6.112H.156V2.57ZM.156-1.472H1.412A2.423,2.423,0,0,1,2.9-1.086,1.357,1.357,0,0,1,3.4.058a1.712,1.712,0,0,1-.131.681,1.4,1.4,0,0,1-.387.53,1.8,1.8,0,0,1-.64.345,2.978,2.978,0,0,1-.885.12H.156Zm12.176-.905V6.112h5.231V5.176H13.486V2.28h3.3v-.9h-3.3v-2.82h4.076v-.936ZM29.649-1.6a2.983,2.983,0,0,0-1.024-.651,3.582,3.582,0,0,0-1.3-.226,3,3,0,0,0-1.122.2,2.489,2.489,0,0,0-.822.522,2.273,2.273,0,0,0-.506.746,2.259,2.259,0,0,0-.175.871,2.279,2.279,0,0,0,.175.946,1.89,1.89,0,0,0,.459.636,2.426,2.426,0,0,0,.648.414,6.84,6.84,0,0,0,.746.281l.746.239a3.021,3.021,0,0,1,.651.281,1.424,1.424,0,0,1,.459.412,1.061,1.061,0,0,1,.173.63,1.627,1.627,0,0,1-.118.634,1.35,1.35,0,0,1-.341.489,1.56,1.56,0,0,1-.542.316,2.166,2.166,0,0,1-.728.112,2.311,2.311,0,0,1-.832-.133,3.144,3.144,0,0,1-.581-.294,4.469,4.469,0,0,1-.4-.294.476.476,0,0,0-.283-.133.269.269,0,0,0-.153.045.412.412,0,0,0-.114.108l-.332.547a3.541,3.541,0,0,0,1.158.808,3.677,3.677,0,0,0,1.5.3A3.29,3.29,0,0,0,28.2,6a2.6,2.6,0,0,0,.9-.569,2.406,2.406,0,0,0,.553-.85,2.851,2.851,0,0,0,.19-1.044,2.033,2.033,0,0,0-.173-.889,1.9,1.9,0,0,0-.463-.61,2.585,2.585,0,0,0-.653-.412,7.873,7.873,0,0,0-.746-.294c-.255-.088-.5-.171-.746-.253a3.293,3.293,0,0,1-.651-.288,1.484,1.484,0,0,1-.463-.4A.958.958,0,0,1,25.768-.2a1.319,1.319,0,0,1,.1-.518,1.117,1.117,0,0,1,.3-.418,1.459,1.459,0,0,1,.5-.281,2.052,2.052,0,0,1,.681-.1,2.1,2.1,0,0,1,.7.1,2.737,2.737,0,0,1,.493.222,3.443,3.443,0,0,1,.336.222.425.425,0,0,0,.235.1.239.239,0,0,0,.153-.045.444.444,0,0,0,.114-.133Zm6.595-.781v.967H39V6.112h1.15V-1.411h2.743v-.967Zm16.471,0H51.548l-3.4,8.489h.889a.381.381,0,0,0,.249-.082.468.468,0,0,0,.143-.19l.793-2.049h3.809l.8,2.049a.457.457,0,0,0,.141.2.385.385,0,0,0,.249.075h.889ZM51.88-.487c.039-.1.08-.222.12-.359s.084-.285.128-.447a6.125,6.125,0,0,0,.255.8l1.332,3.454H50.547ZM65.013,5.019a1.982,1.982,0,0,1-.706-.5,2.177,2.177,0,0,1-.438-.765,2.983,2.983,0,0,1-.151-.977V-2.377H62.574V2.784a3.846,3.846,0,0,0,.235,1.362,3.046,3.046,0,0,0,1.737,1.807,3.939,3.939,0,0,0,2.82,0,3.042,3.042,0,0,0,1.064-.72A3.163,3.163,0,0,0,69.1,4.146a3.846,3.846,0,0,0,.235-1.362V-2.377H68.19V2.784a2.983,2.983,0,0,1-.151.977,2.177,2.177,0,0,1-.438.765,2,2,0,0,1-.7.5,2.381,2.381,0,0,1-.942.177,2.321,2.321,0,0,1-.944-.181M79.246,2.57a.772.772,0,0,1,.355.063.623.623,0,0,1,.22.2l2.2,3.032a.5.5,0,0,0,.461.243h1.02L81.028,2.741a1.22,1.22,0,0,0-.379-.361,3.252,3.252,0,0,0,.881-.332,2.412,2.412,0,0,0,.657-.53,2.151,2.151,0,0,0,.412-.7,2.418,2.418,0,0,0,.143-.842A2.494,2.494,0,0,0,82.558-1a1.906,1.906,0,0,0-.565-.742,2.653,2.653,0,0,0-.969-.471,5.276,5.276,0,0,0-1.393-.163h-2.4V6.112h1.144V2.57Zm-.871-4.042h1.256a2.413,2.413,0,0,1,1.489.385,1.353,1.353,0,0,1,.5,1.144,1.712,1.712,0,0,1-.131.681,1.423,1.423,0,0,1-.387.53,1.816,1.816,0,0,1-.64.345,2.978,2.978,0,0,1-.885.12h-1.2ZM94.14-2.377H92.974l-3.4,8.489h.889a.381.381,0,0,0,.249-.082.468.468,0,0,0,.143-.19l.793-2.049h3.809l.793,2.049a.479.479,0,0,0,.143.2.385.385,0,0,0,.249.075h.889Zm-.834,1.89c.039-.1.08-.222.12-.359s.084-.285.128-.447a6.486,6.486,0,0,0,.253.8l1.334,3.454H91.973Zm11.7-1.89h-.593V6.112h1.007V.064c0-.08,0-.165-.006-.261s-.01-.192-.016-.29l4.91,6.393a.556.556,0,0,0,.181.159.48.48,0,0,0,.228.047h.579V-2.377h-1.007V3.636q0,.138.006.281t.024.3l-4.919-6.4a.569.569,0,0,0-.167-.157.511.511,0,0,0-.228-.039m13.306,0v.967h2.755V6.112h1.15V-1.411h2.743v-.967Zm22.35,0h-.593V6.112h1.007V.064c0-.08,0-.165-.006-.261s-.01-.192-.016-.29l4.91,6.393a.556.556,0,0,0,.181.159.48.48,0,0,0,.228.047h.579V-2.377h-1.007V3.636q0,.138.006.281t.024.3l-4.919-6.4a.569.569,0,0,0-.167-.157.511.511,0,0,0-.228-.039m17.761,0h-1.166l-3.4,8.489h.889A.381.381,0,0,0,155,6.03a.468.468,0,0,0,.143-.19l.793-2.049h3.809l.8,2.049a.457.457,0,0,0,.141.2.385.385,0,0,0,.249.075h.889Zm-.834,1.89c.039-.1.08-.222.12-.359s.084-.285.128-.447a6.129,6.129,0,0,0,.255.8l1.332,3.454h-3.169Zm9.462-1.89v.967h2.755V6.112h1.148V-1.411H173.7v-.967Zm16.018,7.4a1.981,1.981,0,0,1-.706-.5,2.176,2.176,0,0,1-.438-.765,2.983,2.983,0,0,1-.151-.977V-2.377h-1.144V2.784a3.846,3.846,0,0,0,.235,1.362,3.111,3.111,0,0,0,.673,1.087,3.069,3.069,0,0,0,1.067.72,3.939,3.939,0,0,0,2.82,0,3.053,3.053,0,0,0,1.062-.72,3.163,3.163,0,0,0,.669-1.087,3.846,3.846,0,0,0,.234-1.362V-2.377h-1.144V2.784a2.983,2.983,0,0,1-.151.977,2.176,2.176,0,0,1-.438.765,1.979,1.979,0,0,1-.7.5,2.38,2.38,0,0,1-.942.177,2.321,2.321,0,0,1-.944-.181M197.3,2.57a.766.766,0,0,1,.355.063.623.623,0,0,1,.22.2l2.2,3.032a.5.5,0,0,0,.461.243h1.02l-2.476-3.371a1.266,1.266,0,0,0-.379-.361,3.264,3.264,0,0,0,.879-.332,2.453,2.453,0,0,0,.659-.53,2.183,2.183,0,0,0,.41-.7,2.419,2.419,0,0,0,.143-.842A2.494,2.494,0,0,0,200.615-1a1.887,1.887,0,0,0-.565-.742,2.653,2.653,0,0,0-.969-.471,5.276,5.276,0,0,0-1.393-.163h-2.4V6.112h1.144V2.57Zm-.871-4.042h1.256a2.423,2.423,0,0,1,1.491.385,1.357,1.357,0,0,1,.5,1.144,1.711,1.711,0,0,1-.131.681,1.4,1.4,0,0,1-.387.53,1.8,1.8,0,0,1-.64.345,2.978,2.978,0,0,1-.885.12h-1.2Zm12.176-.905V6.112h5.231V5.176h-4.076V2.28h3.3v-.9h-3.3v-2.82h4.076v-.936Zm13.84,0H221.3V6.112h4.823V5.147h-3.673Z" transform="translate(0.988 2.473)" fill="#fff"/></g></g></g></svg>