<svg xmlns="http://www.w3.org/2000/svg" xmlns:xlink="http://www.w3.org/1999/xlink" width="234.243" height="135" viewBox="0 0 234.243 135"><defs><clipPath id="a"><path d="M0,61.6H234.243v-135H0Z" transform="translate(0 73.396)" fill="none"/></clipPath></defs><g transform="translate(0 73.396)"><g transform="translate(0 -73.396)" clip-path="url(#a)"><g transform="translate(0 61.081)"><path d="M11.828,2.705c7.9-3.324,15.465-7.53,23.989-5.306,3.037.789,4.083,6.509.835,8.26a5.052,5.052,0,0,1-4.85-.031c-1.045-.714-1.556-1.81-2.823-2.209a8.479,8.479,0,0,0-6.211.686C15.518,7.59,7.943,10.3,3.279,17.5c-1.076,1.641-.927,3.254-.5,5.049A5.252,5.252,0,0,0,5.76,26.021C12.2,28.6,17.241,23.285,25.1,24.555c2.029.322,4.184-1.832,6.467-2.365.445-.094,1.321.434,1.762.817,1.46,1.254,1.609,3.125,2.444,4.828,1.048,2.132.368,5.4-2.347,5.972C26.91,35.18,21.1,38.212,14.732,38.1c-8.893-.147-18.075.077-26.2-4.374-4.738-2.61-1.92-8.371-.3-12.384.78-1.926,1.085-4.411,3.223-5.373a27.9,27.9,0,0,0,6.4-4.072c.517-.423,1.048-1.5,1.644-1.88,4.164-2.59,7.922-5.457,12.329-7.313" transform="translate(14.092 3.223)" fill="#fff"/></g><g transform="translate(45.844 75.763)"><path d="M7.074.729c3.789-.857,3.123,3.132,2,5.11-2.132,3.791-4.644,9.211-1.457,13.1C12.248,12.95,18.443,8.793,22.535,2.111,24.279-.727,28.123-1.921,30.6.242c.9.763.469,3.046-.166,4.155C23.42,16.724,23.484,17.714,19.828,26.7c-6.254,8.656-9.69,19.319-15.934,28.83C2.935,57,1.469,58.332-.1,58.367c-3.186.066-4.534-3.373-7.2-5.3-.866-.624-1.42-2.2-.967-2.9,1.722-2.559,4.685-3.721,6.605-6.32C-.532,42.276.18,40.6,1.142,38.964,5.836,31,12.857,24.692,15.248,15.643c-3.327,2.147-4.79,5.884-7.9,8.314-2.2,1.729-4.622,5.457-7.295,2.794C-5.119,21.573-1.485,16.544,2.477,9.523a47.984,47.984,0,0,0,2.636-6.85A2.8,2.8,0,0,1,7.074.729" transform="translate(8.428 0.869)" fill="#fff"/></g><g transform="translate(81.38 76.228)"><path d="M6.105,2.635C8.806.612,11.1-3.959,14.579-3.012c.848.23,4.928,5.016,4.729,6.964-.48,4.775-7.815,10.074-3.445,14.536,3.894-1.727,7.47-5.15,12-3.931C33.993,8.78,43.541-1.207,47.033-1.47c2.093-.151,4.751-1.017,7.092-.414,1.308.322,1.547,1.586.622,2.2-3.154,2.091-8.419,3.8-10.192,7.058-.563,1.023-1.9,3.4.072,3.171,1.694-.21,4.216-3.771,4.56-5.336.195-.868,5.557-1.475,6.009.936.355,1.845.178,4.718,2.112,5.707,1.126.576,2.559.063,3.931-.311,2.01-.565,1.7,2.169.57,2.926-5.814,3.9-11.932,8.923-14.086,5.283-1.036-1.755-.445-5.967-2.777-5.73-2.277.223-3.544,3.508-4.444,6.051-.681,1.924-2.319,4.613-4.556,3.7-3.3-1.343-5.619-3.486-8.818-6.265a4.037,4.037,0,0,0-3.257-.182c-4.407,1.6-6.822,6.324-11.433,7.65-4.12,1.179-6.852-2.261-7.865-5.755-1.161-4.026,3.2-6.875,3.578-10.9.046-.436-.412-1.571-.922-1.438C2.053,8.227-1.8,13.757-7.263,13.139a3.339,3.339,0,0,1,.563-1.2C-2.468,8.6,1.717,5.9,6.105,2.635" transform="translate(7.274 3.139)" fill="#fff"/></g><g transform="translate(151.761 74.723)"><path d="M6.416,4.482C5.386,6.373,5.349,8.391,4.77,10.4c-.064.221.372.589.664.362C10.31,6.813,12.9,1.289,18-2.327c2.463-1.766,5.649.75,6.644,3.576.716,2.051-.723,3.769-1.126,5.856-.509,2.761-.469,6.487,2.1,7.615,1.334.594,5.985-2.307,6.322-3.132C34.988,3.934,41.264-.892,48.045-4.527c3.471-1.858,7.065-.237,10,1.889,3.072,2.238,8.8,8.411,6.772,13.815-1.608,2.336-2.334,4.968-4.085,7.339a10.283,10.283,0,0,1-9.785,3.912c-6.421-.767-13.622-1.872-18.366-6.725-3.414.327-3.377,3.245-6.929,5.685a8.275,8.275,0,0,1-12.077-2.456c-2-3.193.228-6.491-.535-9.842C9.351,12.485,6.4,16.265,3,20.069,1.764,21.45.02,23.385-1.543,22.188c-2.134-1.62-6.546-3.2-6.064-4.887C-6.6,13.743-.066,4.571,3.73-2.213,4.31-3.237,5.531-4.5,6.769-4.381c.9.088,2.325.366,2.625,1.516C10.137,0,7.714,2.075,6.416,4.482m38,1.786c-.679.736-1.1,2.137-.727,2.505,2.95,2.994,10.611,4.922,11.424,4.232,1.216-1.01,1.7-3.475,1.2-4.247C54.09,5.485,55.447.973,52.052.622,49.07.307,46.7,3.859,44.418,6.268" transform="translate(7.644 5.34)" fill="#fff"/></g><g transform="translate(163.9 116.371)"><path d="M7.012,1.413A3.094,3.094,0,0,0,3.927-1.676l-9.184-.007A3.1,3.1,0,0,0-8.347,1.4l-.007,9.187a3.1,3.1,0,0,0,3.083,3.088l9.186.009A3.1,3.1,0,0,0,7,10.6Z" transform="translate(8.354 1.683)" fill="#e93994"/></g><g transform="translate(185.975 116.39)"><path d="M7.015,1.414a3.1,3.1,0,0,0-3.083-3.09l-9.189-.009A3.1,3.1,0,0,0-8.347,1.4l-.011,9.189a3.094,3.094,0,0,0,3.083,3.088l9.193.009A3.1,3.1,0,0,0,7.008,10.6Z" transform="translate(8.358 1.685)" fill="#541e5b"/></g><g transform="translate(208.058 116.41)"><path d="M7.013,1.416A3.092,3.092,0,0,0,3.93-1.676l-9.184-.011a3.094,3.094,0,0,0-3.09,3.081l-.011,9.189a3.1,3.1,0,0,0,3.086,3.09l9.182.007A3.1,3.1,0,0,0,7,10.6Z" transform="translate(8.355 1.687)" fill="#ff6f28"/></g><g transform="translate(147.311 19.901)"><path d="M15.81,3.244C10.87-5.351-.374-6.283-9.3,1.16S-21.464,21.608-16.523,30.2-.337,39.731,8.589,32.287,20.753,11.84,15.81,3.244M-12.924,27.2c-3.841-6.682-1.328-16.791,5.614-22.58S8.37-.438,12.213,6.244,13.541,23.036,6.6,28.822-9.081,33.886-12.924,27.2" transform="translate(18.837 3.865)" fill="#9a9b9f"/></g><g transform="translate(150.144 33.55)"><path d="M13.321,5.433c-9.572,20.911-36.64,13.6-27.237-9.644.649-1.381.625-1.291,1.155-2.262-.511.977-.482.876-1.113,2.277C-22.706,18.823,3.558,25.809,13.321,5.433" transform="translate(15.871 6.473)" fill="#9a9b9f"/></g><g transform="translate(151.901 21.018)"><path d="M0,5.3C7.47-7.8,23.225-10.776,29.589,1.351c2.2,4.556,2.33,10.7-.815,17.547,2.961-7.151,2.877-13.727-.714-19.149C21.938-9.253,7.775-7.237,0,5.3" transform="translate(0 6.312)" fill="#9a9b9f"/></g><g transform="translate(150.625 23.487)"><path d="M7.811,7.794,6.5,5.517,18.087-5.1l2.049,3.565ZM7.785,6.672,5.469,5.684,11.861-8.988l3.623,1.545Zm-.539-.839-2.7.568L4.027-8.4l4.23-.89ZM6.336,5.5,3.97,7.474-3.312-3.481l3.7-3.088ZM5.3,5.769,3.908,8.618l-12.1-4.183L-6.012-.019Zm-.883.795-.05,2.958L-9.306,13.239l.077-4.631ZM3.924,7.671,5.23,9.946-6.352,20.565-8.4,17Zm.024,1.122,2.316.986L-.126,24.451l-3.625-1.543Zm.541.839,2.7-.57.515,14.8-4.23.89Zm.91.329L7.765,7.989l7.284,10.955-3.7,3.088Zm1.036-.267L7.829,6.847l12.1,4.181-2.181,4.455ZM7.318,8.9l.05-2.958L21.041,2.226l-.077,4.63ZM4.737,8.675C3.91,7.235,6.17,5.35,7,6.788S5.565,10.117,4.737,8.675ZM7.287,6.549a1.4,1.4,0,0,0-2.2-.184A2.131,2.131,0,0,0,4.45,8.916a1.4,1.4,0,0,0,2.2.182A2.131,2.131,0,0,0,7.287,6.549ZM5.271,8.23a.891.891,0,0,1,.267-1.072c.789-.66,1.449.489.66,1.15A.589.589,0,0,1,5.271,8.23Z" transform="translate(9.306 9.286)" fill="none" stroke="#9a9b9f" stroke-width="0.65"/></g><g transform="translate(9.126 11.27)"><path d="M4.6,8.895A50.781,50.781,0,0,0-.362,21.8c-.044.2-.074.4-.116.6-.495,2.316-1.308,2.566-3.171.977-1.8-1.538-2.069-3.532-1.661-5.7a27.442,27.442,0,0,1,2.456-6.712c2.084-4.357,4.5-8.553,6.388-13,.39-.916.716-1.858,1.164-3.033A12.758,12.758,0,0,0,1.549-3.742c-.313.136-.629.464-.982.241-.414-.261-.281-.73-.228-1.12a4.908,4.908,0,0,1,2.7-3.662,16.933,16.933,0,0,1,7.129-2.04c3.6-.315,7.21-.544,10.762.4,2.742.73,5.02,2.1,5.785,5.049A7.316,7.316,0,0,1,24.174,2.8c-3.272,2.948-7.361,4.03-11.522,4.83-1.354.261-1.725.64-1.251,1.964,1.562,4.359,3.522,8.459,7.172,11.5.712.6.666.962-.035,1.516a5.044,5.044,0,0,1-7.041-.349,23.341,23.341,0,0,1-5.325-8.8c-.532-1.367-.96-2.772-1.576-4.567M16.341-8.173a18.718,18.718,0,0,0-3.6.655,2.187,2.187,0,0,0-1.563,1.5A105.953,105.953,0,0,1,6.32,5.148c-.526,1.03-.2,1.284.8,1.105a22.424,22.424,0,0,0,8.923-3.329,10.461,10.461,0,0,0,4.558-5.9c.938-3.441-.418-5.2-4.264-5.2" transform="translate(5.476 10.597)" fill="#9a9b9f"/></g><g transform="translate(35.231 23.784)"><path d="M6.218,6.463C4.987,7.751,3.987,8.854,2.925,9.9a12.2,12.2,0,0,1-4.7,3.026c-3.715,1.231-6.015-.664-5.577-4.593C-6.536.977-.268-5.785,7.161-7.289a13.771,13.771,0,0,1,8.8.666c1.093.506,1.227,1.012.647,2.082C14.188-.064,12.032,4.534,11.151,9.61a23.915,23.915,0,0,0-.441,3.471c-.033,1.348-.668,1.46-1.652.982-1.964-.956-2.6-2.755-2.823-4.745a27.735,27.735,0,0,1-.017-2.855M12.231-4.981c-.662-.053-.96-.1-1.258-.1C6.816-5.064,4.134-2.559,1.831.469A11.366,11.366,0,0,0-.617,6.14C-.768,7.571-.172,8.03,1.189,7.578A7.159,7.159,0,0,0,3.9,5.654C7.042,2.522,9.277-1.31,12.231-4.981" transform="translate(7.408 7.701)" fill="#9a9b9f"/></g><g transform="translate(84.203 18.594)"><path d="M0,10.771A18.547,18.547,0,0,1,5.012-.8c5.507-6.362,11.972-11.191,20.709-12,3.833-.353,5.768,1.959,4.929,5.72a10.229,10.229,0,0,1-4.194,5.952A26.31,26.31,0,0,1,13.749,3.724a3.077,3.077,0,0,0-2.827,2.1,15.34,15.34,0,0,0-1.547,5.838,2.081,2.081,0,0,0,2.376,2.332c2.833.024,5-1.427,7.03-3.166A25,25,0,0,0,22.589,6.68c.252-.342.522-.844,1.032-.721.611.147.666.754.732,1.276a6.244,6.244,0,0,1-2.387,5.584,20.034,20.034,0,0,1-16.278,5C1.672,17.346-.136,14.839,0,10.771M15.914-.1a20.92,20.92,0,0,0,2.334-.515c3.373-1.137,6.64-2.468,8.389-5.9.324-.635.723-1.376.142-2.11-.635-.8-1.435-.607-2.257-.372-4.308,1.231-7,4.448-9.524,7.826-.734.984.066,1.091.916,1.069" transform="translate(0.004 12.832)" fill="#9a9b9f"/></g><g transform="translate(58.002 18.284)"><path d="M.014,10.463A44.268,44.268,0,0,1,6.878-8.368c2.189-3.394,5.134-4.552,8.209-3.669,1.643.469,2.255,1.069,1.14,2.818A53.621,53.621,0,0,0,9.159,7.039a8.051,8.051,0,0,0-.313,1.768c-.011,1.087-.574,2.43.517,3.167,1.231.833,2.478-.035,3.563-.64a17.191,17.191,0,0,0,5.356-5.089A69.936,69.936,0,0,0,27.111-10.7c.252-.668.278-1.655,1.181-1.76.936-.11,1.429.743,1.887,1.409A4.753,4.753,0,0,1,30.6-6.729c-1.792,5.9-5.283,10.764-9.39,15.215C17.188,12.845,12.7,16.6,6.748,18.032c-5.11,1.231-7.037-.421-6.734-7.569" transform="translate(0.017 12.466)" fill="#9a9b9f"/></g><g transform="translate(112.344 0)"><path d="M.005,19.369C.209,13.751,2.4,8.7,4.749,3.758a100.635,100.635,0,0,1,13.3-21.11,17.928,17.928,0,0,1,5.615-4.793,7.391,7.391,0,0,1,5.012-.78c.982.21,2.071.464,2.422,1.416.388,1.054-.82,1.462-1.405,2.066C18.63-8,10.556,5.169,6.511,20.662a29.756,29.756,0,0,0-.83,5.555c-.118,1.757-.887,2.119-2.336,1.1C.6,25.382-.107,22.543.005,19.369" transform="translate(0.006 23.076)" fill="#9a9b9f"/></g><g transform="translate(121.577 20.237)"><path d="M9.169,6.868a52.085,52.085,0,0,1-7.635.642A1.479,1.479,0,0,0,.042,8.553c-1.175,2.387-2.389,4.757-3.589,7.133a13.03,13.03,0,0,1-1.74,2.582,3.952,3.952,0,0,1-4.854,1.065c-.842-.377-1.021-.8-.46-1.608A86.112,86.112,0,0,0-5,8c.4-.784.5-1.289-.408-1.8A2.68,2.68,0,0,1-6.666,3.407c.059-.646.289-.87.979-.572,2.559,1.1,2.584,1.091,3.7-1.418a57.078,57.078,0,0,0,3.142-8.4c.25-.938.681-1.2,1.611-.923A3.064,3.064,0,0,1,5.051-4.177,34.5,34.5,0,0,1,2.5,3.1C1.856,4.621,1.883,4.7,3.524,4.7c1.707,0,3.412-.048,5.117-.072A2.459,2.459,0,0,0,11.078,3.1a43.97,43.97,0,0,1,5.61-8.829C18.514-7.891,20.9-8.685,23.1-7.869c1.129.418,1.164.622.366,1.5A50.757,50.757,0,0,0,11.124,16.946a23.4,23.4,0,0,0-.406,3.085c-.114,1.245-.429,1.437-1.571.859a5.252,5.252,0,0,1-2.5-5.544A32.835,32.835,0,0,1,8.932,7.593c.075-.188.127-.384.237-.725" transform="translate(10.924 8.183)" fill="#9a9b9f"/></g><g transform="translate(193.596 27.933)"><path d="M0,7.281A12.557,12.557,0,0,1,3.394-.543c3.726-4.3,8.1-7.565,14.008-8.108,2.588-.239,3.9,1.33,3.327,3.875A6.919,6.919,0,0,1,17.888-.753a18.2,18.2,0,0,1-8.744,3.3A1.781,1.781,0,0,0,7.52,3.674,11.1,11.1,0,0,0,6.339,7.743C6.3,8.986,6.905,9.5,8.106,9.468a7.183,7.183,0,0,0,4.486-2.045,16.215,16.215,0,0,0,2.593-2.788c.195-.267.386-.7.793-.594.478.121.476.616.508,1.013a4.275,4.275,0,0,1-1.635,3.625A13.568,13.568,0,0,1,3.839,12.056C1.126,11.732-.092,10.037,0,7.281M9.71-.256A3.528,3.528,0,0,0,12.23-.4c2.314-.69,4.5-1.631,5.741-3.9.252-.46.568-1.019.114-1.56-.44-.524-.99-.37-1.54-.206-3.066.907-4.871,3.256-6.835,5.809" transform="translate(0.003 8.675)" fill="#9a9b9f"/></g><g transform="translate(213.167 15.35)"><path d="M0,13.117C.126,9.315,1.609,5.9,3.2,2.556a67.313,67.313,0,0,1,9.092-14.395A9.643,9.643,0,0,1,17.4-15.487a4.118,4.118,0,0,1,1.812-.07c.714.151,1.532.283,1.8.973.294.761-.6,1.061-1.019,1.5C12.577-5.357,7.121,3.5,4.418,13.932a33.972,33.972,0,0,0-.55,3.6c-.063.441.037.99-.456,1.21-.537.241-.979-.132-1.37-.447A5.885,5.885,0,0,1,0,13.117" transform="translate(0.004 15.628)" fill="#9a9b9f"/></g><g transform="translate(184.872 22.277)"><path d="M5.422,2.892c1.306,0,2.266-.028,3.226.007,1.2.044,1.418.471.807,1.508a2.015,2.015,0,0,1-2.174,1.1c-3.022-.6-4.453.947-5.584,3.522-1.867,4.256-3.714,8.478-3.741,13.23-.007,1.157-.57,1.322-1.446.918-2.1-.973-2.833-2.823-2.952-4.963-.173-3.085.94-5.882,2.1-8.656.215-.517.487-1.008.7-1.523.305-.741,1.164-1.484.855-2.181-.326-.734-1.378-.245-2.1-.322-.826-.086-.909-.506-.651-1.14A2.015,2.015,0,0,1-3.321,2.911C-1.454,3.194-.372,2.4.6.84,1.694-.906,2.957-2.651,5.174-3.2a6.19,6.19,0,0,1,1.65-.246c1.013.037,2.279.077,2.7,1.037.333.752-.835,1.238-1.356,1.812A32.009,32.009,0,0,0,5.422,2.892" transform="translate(6.46 3.446)" fill="#9a9b9f"/></g><g transform="translate(166.775 11.091)"><path d="M4.169,2.338A3.366,3.366,0,0,1,1.495,1.178.844.844,0,0,0,.218.974a6.325,6.325,0,0,1-3.267.977A2.8,2.8,0,0,1-4.31,1.722c-.294-.147-.677-.28-.657-.633.018-.3.414-.348.673-.465A22.192,22.192,0,0,0,.715-2.317c.92-.749,1.363-.607,1.922.469A11.12,11.12,0,0,0,4.631.951c.289.291.933.48.767.925-.184.506-.839.408-1.229.462" transform="translate(4.967 2.786)" fill="#9a9b9f"/></g></g></g></svg>