<svg xmlns="http://www.w3.org/2000/svg" xmlns:xlink="http://www.w3.org/1999/xlink" width="413.738" height="103.864" viewBox="0 0 413.738 103.864"><defs><clipPath id="a"><path d="M0,63.676H413.738V-40.188H0Z" transform="translate(0 40.188)" fill="none"/></clipPath></defs><g transform="translate(0 40.188)"><g transform="translate(0 -40.188)" clip-path="url(#a)"><g transform="translate(0 0)"><path d="M22.328,5.107C33.428.436,44.058-5.474,56.034-2.35,60.3-1.241,61.771,6.8,57.207,9.257c-1.744.941-4.812,1.339-6.815-.044-1.468-1-2.186-2.543-3.967-3.1a11.914,11.914,0,0,0-8.728.964c-10.185,4.9-20.828,8.707-27.382,18.815-1.512,2.305-1.3,4.572-.7,7.094A7.379,7.379,0,0,0,13.8,37.867c9.043,3.618,16.132-3.843,27.178-2.06,2.851.452,5.88-2.574,9.087-3.324.625-.132,1.856.61,2.476,1.147,2.052,1.763,2.261,4.391,3.435,6.784,1.473,3,.517,7.583-3.3,8.392C43.52,50.737,35.356,55,26.409,54.842c-12.5-.207-25.4.109-36.818-6.146-6.658-3.667-2.7-11.762-.421-17.4,1.1-2.706,1.525-6.2,4.528-7.549a39.2,39.2,0,0,0,9-5.722c.726-.594,1.473-2.109,2.31-2.641,5.851-3.639,11.131-7.668,17.324-10.276" transform="translate(14.092 3.223)" fill="#fff"/></g><g transform="translate(64.415 20.63)"><path d="M13.353,1.377c5.324-1.2,4.388,4.4,2.817,7.18-3,5.327-6.526,12.943-2.047,18.409,6.5-8.418,15.2-14.258,20.955-23.648C37.528-.67,42.93-2.347,46.408.692c1.264,1.073.659,4.28-.233,5.838-9.854,17.321-9.764,18.711-14.9,31.342C22.487,50.034,17.659,65.016,8.885,78.381c-1.346,2.06-3.406,3.934-5.606,3.983-4.476.093-6.371-4.74-10.121-7.451-1.217-.876-2-3.091-1.359-4.081,2.419-3.595,6.583-5.228,9.281-8.88,1.587-2.2,2.587-4.556,3.939-6.851,6.6-11.188,16.46-20.053,19.82-32.768-4.675,3.016-6.73,8.268-11.1,11.682-3.088,2.429-6.495,7.668-10.25,3.926C-3.779,30.664,1.328,23.6,6.895,13.733c1.62-2.895,2.507-6.365,3.7-9.624a3.93,3.93,0,0,1,2.755-2.732" transform="translate(8.428 0.869)" fill="#fff"/></g><g transform="translate(114.347 21.283)"><path d="M11.525,4.974C15.319,2.131,18.54-4.291,23.432-2.96c1.191.323,6.924,7.048,6.645,9.785C29.4,13.534,19.1,20.98,25.236,27.249c5.471-2.427,10.5-7.236,16.861-5.523C50.711,13.609,64.127-.425,69.032-.794c2.941-.212,6.676-1.429,9.966-.581,1.838.452,2.174,2.228.874,3.088-4.432,2.939-11.829,5.345-14.32,9.917-.791,1.437-2.672,4.781.1,4.456,2.38-.295,5.924-5.3,6.407-7.5.274-1.22,7.808-2.073,8.443,1.315.5,2.592.251,6.629,2.967,8.02,1.582.809,3.595.088,5.523-.437,2.825-.793,2.383,3.047.8,4.112C81.623,27.076,73.027,34.134,70,29.02c-1.455-2.466-.625-8.384-3.9-8.051-3.2.313-4.98,4.929-6.244,8.5-.956,2.7-3.259,6.482-6.4,5.192-4.642-1.887-7.9-4.9-12.39-8.8-.827-.721-3.112-.781-4.577-.256-6.192,2.243-9.586,8.885-16.065,10.749-5.789,1.657-9.627-3.176-11.051-8.087-1.631-5.657,4.5-9.661,5.027-15.31.065-.613-.579-2.207-1.295-2.021-7.27,1.894-12.69,9.666-20.36,8.8a4.691,4.691,0,0,1,.791-1.688C-.521,13.358,5.359,9.562,11.525,4.974" transform="translate(7.274 3.139)" fill="#fff"/></g><g transform="translate(213.238 19.168)"><path d="M12.111,8.461c-1.447,2.657-1.5,5.492-2.313,8.319-.09.31.522.827.933.509,6.851-5.554,10.493-13.315,17.654-18.4,3.461-2.481,7.937,1.054,9.335,5.024,1.005,2.882-1.016,5.3-1.582,8.229-.716,3.879-.659,9.115,2.946,10.7,1.874.835,8.41-3.241,8.883-4.4C52.258,7.691,61.076.91,70.6-4.2c4.877-2.61,9.927-.333,14.046,2.654C88.967,1.6,97.01,10.276,94.167,17.869c-2.259,3.282-3.28,6.981-5.74,10.312-3.329,4.479-8.547,6.13-13.749,5.5-9.022-1.078-19.14-2.631-25.806-9.449-4.8.46-4.745,4.559-9.736,7.989a11.628,11.628,0,0,1-16.969-3.45c-2.807-4.487.32-9.121-.752-13.829-5.179,4.768-9.325,10.079-14.106,15.424C5.575,32.3,3.125,35.022.928,33.339c-3-2.277-9.2-4.492-8.521-6.867C-6.171,21.474,3,8.585,8.338-.946c.814-1.44,2.53-3.21,4.269-3.047,1.269.124,3.267.514,3.688,2.13,1.044,4.024-2.36,6.942-4.184,10.325m53.4,2.509c-.954,1.034-1.543,3-1.021,3.52C68.633,18.7,79.4,21.407,80.54,20.438c1.708-1.419,2.391-4.882,1.69-5.967C79.1,9.87,81,3.53,76.234,3.037c-4.189-.442-7.523,4.549-10.725,7.934" transform="translate(7.644 5.34)" fill="#fff"/></g><g transform="translate(330.101 30.794)"><path d="M13.236,2.667A4.347,4.347,0,0,0,8.9-1.673L-4-1.683A4.349,4.349,0,0,0-8.344,2.649l-.01,12.909A4.349,4.349,0,0,0-4.022,19.9l12.907.013a4.353,4.353,0,0,0,4.342-4.334Z" transform="translate(8.354 1.683)" fill="#e93994"/></g><g transform="translate(361.118 30.82)"><path d="M13.243,2.67A4.351,4.351,0,0,0,8.911-1.672L-4-1.685A4.349,4.349,0,0,0-8.342,2.647l-.016,12.912A4.347,4.347,0,0,0-4.026,19.9l12.917.013a4.353,4.353,0,0,0,4.342-4.334Z" transform="translate(8.358 1.685)" fill="#541e5b"/></g><g transform="translate(392.146 30.849)"><path d="M13.238,2.673A4.345,4.345,0,0,0,8.906-1.671L-4-1.687A4.347,4.347,0,0,0-8.339,2.642l-.016,12.912A4.352,4.352,0,0,0-4.018,19.9l12.9.01a4.356,4.356,0,0,0,4.342-4.334Z" transform="translate(8.355 1.687)" fill="#ff6f28"/></g><g transform="translate(121.102 80.619)"><path d="M1.565,3.918a.971.971,0,0,1,.45.08.789.789,0,0,1,.279.258L5.088,8.1a.632.632,0,0,0,.584.308H6.964L3.827,4.135a1.6,1.6,0,0,0-.481-.457A4.137,4.137,0,0,0,4.46,3.257a3.109,3.109,0,0,0,.835-.672A2.82,2.82,0,0,0,5.817,1.7,3.126,3.126,0,0,0,6,.628,3.16,3.16,0,0,0,5.763-.607a2.391,2.391,0,0,0-.716-.941,3.362,3.362,0,0,0-1.228-.6,6.686,6.686,0,0,0-1.765-.207H-.988V8.408H.462V3.918ZM.462-1.2H2.054a3.071,3.071,0,0,1,1.889.488A1.72,1.72,0,0,1,4.576.734a2.169,2.169,0,0,1-.165.863,1.776,1.776,0,0,1-.491.672,2.278,2.278,0,0,1-.812.437,3.774,3.774,0,0,1-1.122.152H.462ZM15.894-2.352V8.408h6.629V7.221H17.356V3.551h4.184V2.409H17.356V-1.165h5.166V-2.352Zm21.947.99a3.781,3.781,0,0,0-1.3-.824A4.54,4.54,0,0,0,34.9-2.473a3.8,3.8,0,0,0-1.421.248,3.154,3.154,0,0,0-1.042.662A2.877,2.877,0,0,0,31.571.486a2.888,2.888,0,0,0,.222,1.2,2.4,2.4,0,0,0,.582.806,3.075,3.075,0,0,0,.822.525,8.669,8.669,0,0,0,.946.357l.946.3a3.828,3.828,0,0,1,.824.357,1.8,1.8,0,0,1,.582.522,1.344,1.344,0,0,1,.22.8,2.062,2.062,0,0,1-.15.8,1.711,1.711,0,0,1-.432.62,1.977,1.977,0,0,1-.687.4,2.746,2.746,0,0,1-.923.142,2.929,2.929,0,0,1-1.054-.168,3.985,3.985,0,0,1-.737-.372,5.664,5.664,0,0,1-.507-.372.6.6,0,0,0-.359-.168.341.341,0,0,0-.194.057.522.522,0,0,0-.145.137l-.421.693a4.487,4.487,0,0,0,1.468,1.023,4.66,4.66,0,0,0,1.9.38,4.17,4.17,0,0,0,1.527-.264,3.294,3.294,0,0,0,1.135-.721,3.049,3.049,0,0,0,.7-1.078,3.613,3.613,0,0,0,.24-1.323,2.576,2.576,0,0,0-.22-1.127,2.4,2.4,0,0,0-.587-.773,3.276,3.276,0,0,0-.827-.522A9.978,9.978,0,0,0,35.5,2.35c-.323-.111-.638-.217-.946-.32a4.174,4.174,0,0,1-.824-.364,1.881,1.881,0,0,1-.587-.507,1.215,1.215,0,0,1-.222-.747,1.671,1.671,0,0,1,.129-.656,1.416,1.416,0,0,1,.377-.53,1.849,1.849,0,0,1,.628-.357,2.6,2.6,0,0,1,.863-.132,2.665,2.665,0,0,1,.881.129,3.469,3.469,0,0,1,.625.282,4.363,4.363,0,0,1,.426.282.538.538,0,0,0,.3.127A.3.3,0,0,0,37.344-.5a.562.562,0,0,0,.145-.168Zm8.358-.99v1.225H49.69V8.408h1.458V-1.127h3.476V-2.352Zm20.875,0H65.595l-4.3,10.759h1.127a.482.482,0,0,0,.315-.1.593.593,0,0,0,.181-.24l1.005-2.6h4.828l1.008,2.6a.579.579,0,0,0,.178.248.488.488,0,0,0,.315.1h1.127ZM66.016.044c.049-.132.1-.282.152-.455s.106-.362.163-.566A7.764,7.764,0,0,0,66.655.036l1.688,4.378H64.326ZM82.66,7.022a2.512,2.512,0,0,1-.894-.633,2.759,2.759,0,0,1-.556-.969,3.781,3.781,0,0,1-.191-1.238V-2.352h-1.45V4.19a4.874,4.874,0,0,0,.3,1.726,3.86,3.86,0,0,0,2.2,2.29,4.993,4.993,0,0,0,3.574,0,3.856,3.856,0,0,0,1.349-.912,4.009,4.009,0,0,0,.848-1.378,4.874,4.874,0,0,0,.3-1.726V-2.352h-1.45V4.19A3.781,3.781,0,0,1,86.5,5.428a2.759,2.759,0,0,1-.556.969,2.531,2.531,0,0,1-.889.631,3.017,3.017,0,0,1-1.194.225,2.942,2.942,0,0,1-1.2-.23m18.039-3.1a.978.978,0,0,1,.45.08.789.789,0,0,1,.279.258L104.222,8.1a.629.629,0,0,0,.584.308H106.1l-3.14-4.272a1.546,1.546,0,0,0-.481-.457,4.122,4.122,0,0,0,1.116-.421,3.057,3.057,0,0,0,.832-.672,2.726,2.726,0,0,0,.522-.889,3.065,3.065,0,0,0,.181-1.067A3.16,3.16,0,0,0,104.9-.607a2.416,2.416,0,0,0-.716-.941,3.362,3.362,0,0,0-1.228-.6,6.686,6.686,0,0,0-1.765-.207H98.146V8.408H99.6V3.918ZM99.6-1.2h1.592a3.058,3.058,0,0,1,1.887.488,1.715,1.715,0,0,1,.636,1.45,2.169,2.169,0,0,1-.165.863,1.8,1.8,0,0,1-.491.672,2.3,2.3,0,0,1-.812.437,3.774,3.774,0,0,1-1.122.152H99.6Zm19.98-1.147H118.1l-4.3,10.759h1.127a.482.482,0,0,0,.315-.1.593.593,0,0,0,.181-.24l1.005-2.6h4.828l1.005,2.6a.607.607,0,0,0,.181.248.488.488,0,0,0,.315.1h1.127Zm-1.057,2.4c.049-.132.1-.282.152-.455s.106-.362.163-.566a8.221,8.221,0,0,0,.32,1.013l1.69,4.378h-4.016Zm14.83-2.4H132.6V8.408h1.277V.742c0-.1,0-.209-.008-.331s-.013-.243-.021-.367l6.223,8.1a.7.7,0,0,0,.23.2.608.608,0,0,0,.289.059h.734V-2.352h-1.277V5.27q0,.174.008.357t.031.38L133.85-2.1a.722.722,0,0,0-.212-.2.648.648,0,0,0-.289-.049m16.863,0v1.225H153.7V8.408h1.458V-1.127h3.476V-2.352Zm28.325,0h-.752V8.408h1.277V.742c0-.1,0-.209-.008-.331s-.013-.243-.021-.367l6.223,8.1a.7.7,0,0,0,.23.2.608.608,0,0,0,.289.059h.734V-2.352h-1.277V5.27q0,.174.008.357t.031.38L179.039-2.1a.722.722,0,0,0-.212-.2.648.648,0,0,0-.289-.049m22.511,0H199.57l-4.3,10.759h1.127a.482.482,0,0,0,.315-.1.593.593,0,0,0,.181-.24l1.005-2.6h4.828l1.008,2.6a.579.579,0,0,0,.178.248.488.488,0,0,0,.315.1h1.127Zm-1.057,2.4c.049-.132.1-.282.152-.455s.106-.362.163-.566A7.765,7.765,0,0,0,200.63.036l1.688,4.378H198.3Zm11.992-2.4v1.225h3.492V8.408h1.455V-1.127h3.479V-2.352Zm20.3,9.374a2.511,2.511,0,0,1-.894-.633,2.758,2.758,0,0,1-.556-.969,3.781,3.781,0,0,1-.191-1.238V-2.352h-1.45V4.19a4.874,4.874,0,0,0,.3,1.726,3.943,3.943,0,0,0,.853,1.378,3.89,3.89,0,0,0,1.352.912,4.993,4.993,0,0,0,3.574,0,3.869,3.869,0,0,0,1.346-.912,4.009,4.009,0,0,0,.848-1.378,4.875,4.875,0,0,0,.3-1.726V-2.352h-1.45V4.19a3.78,3.78,0,0,1-.191,1.238,2.758,2.758,0,0,1-.556.969,2.508,2.508,0,0,1-.889.631,3.017,3.017,0,0,1-1.194.225,2.942,2.942,0,0,1-1.2-.23m18.039-3.1a.971.971,0,0,1,.45.08.789.789,0,0,1,.279.258L253.846,8.1a.632.632,0,0,0,.584.308h1.292l-3.138-4.272a1.6,1.6,0,0,0-.481-.457,4.137,4.137,0,0,0,1.114-.421,3.109,3.109,0,0,0,.835-.672,2.766,2.766,0,0,0,.52-.889,3.066,3.066,0,0,0,.181-1.067,3.161,3.161,0,0,0-.233-1.235,2.391,2.391,0,0,0-.716-.941,3.362,3.362,0,0,0-1.228-.6,6.686,6.686,0,0,0-1.765-.207H247.77V8.408h1.45V3.918ZM249.22-1.2h1.592a3.071,3.071,0,0,1,1.889.488,1.72,1.72,0,0,1,.633,1.45,2.168,2.168,0,0,1-.165.863,1.776,1.776,0,0,1-.491.672,2.279,2.279,0,0,1-.812.437,3.774,3.774,0,0,1-1.122.152H249.22Zm15.432-1.147V8.408h6.629V7.221h-5.166V3.551H270.3V2.409h-4.184V-1.165h5.166V-2.352Zm17.541,0h-1.458V8.408h6.112V7.185h-4.655Z" transform="translate(0.988 2.473)" fill="#fff"/></g></g></g></svg>