<svg xmlns="http://www.w3.org/2000/svg" width="208.511" height="68.612" viewBox="0 0 208.511 68.612"><g transform="translate(0 -18.158)"><g transform="translate(0 18.158)"><path d="M24.058,35.98c7.334-3.084,14.355-6.991,22.268-4.926,2.817.733,3.789,6.043.774,7.669a4.689,4.689,0,0,1-4.5-.031c-.968-.66-1.444-1.678-2.62-2.047a7.865,7.865,0,0,0-5.766.636c-6.728,3.237-13.758,5.752-18.088,12.428a5.546,5.546,0,0,0-.464,4.687,4.884,4.884,0,0,0,2.767,3.226c5.974,2.391,10.657-2.539,17.953-1.361,1.883.3,3.884-1.7,6-2.2.413-.089,1.226.4,1.635.759,1.356,1.164,1.495,2.9,2.27,4.481.973,1.979.341,5.01-2.179,5.544-6.052,1.276-11.444,4.09-17.354,3.985C18.5,68.7,9.977,68.907,2.432,64.775c-4.4-2.422-1.781-7.769-.279-11.494.725-1.786,1.009-4.094,2.992-4.985a26.023,26.023,0,0,0,5.944-3.781c.48-.394.973-1.393,1.525-1.745,3.866-2.4,7.354-5.064,11.444-6.788" transform="translate(0.001 -30.477)" fill="#fff"/><path d="M78.607,52.529c3.518-.8,2.9,2.907,1.863,4.741-1.981,3.518-4.313,8.552-1.353,12.162,4.292-5.561,10.042-9.42,13.841-15.622,1.617-2.635,5.186-3.744,7.485-1.734.835.708.435,2.829-.155,3.857-6.509,11.442-6.45,12.36-9.843,20.7-5.805,8.037-8.994,17.933-14.791,26.76-.889,1.361-2.249,2.6-3.7,2.631-2.959.061-4.208-3.13-6.686-4.922-.806-.579-1.319-2.041-.9-2.7,1.6-2.375,4.349-3.454,6.13-5.867,1.05-1.45,1.71-3.01,2.6-4.526C77.457,80.627,83.974,74.77,86.194,66.37c-3.088,1.992-4.445,5.464-7.334,7.718-2.039,1.6-4.29,5.066-6.77,2.593-4.8-4.8-1.427-9.473,2.25-15.989a44.658,44.658,0,0,0,2.448-6.358,2.589,2.589,0,0,1,1.82-1.8" transform="translate(-21.667 -37.416)" fill="#fff"/><path d="M126.419,57.056c2.5-1.88,4.632-6.121,7.864-5.244.789.216,4.574,4.657,4.39,6.465-.447,4.432-7.253,9.351-3.2,13.493,3.614-1.6,6.933-4.78,11.138-3.648,5.691-5.363,14.553-14.634,17.792-14.877,1.943-.14,4.411-.945,6.585-.386,1.213.3,1.436,1.475.578,2.04-2.929,1.943-7.815,3.532-9.461,6.552-.523.95-1.766,3.157.066,2.943,1.573-.193,3.915-3.5,4.235-4.952.181-.806,5.155-1.372,5.577.869.328,1.714.165,4.378,1.959,5.3,1.044.536,2.375.06,3.647-.289,1.867-.521,1.576,2.016.531,2.719-5.4,3.618-11.074,8.282-13.075,4.9-.96-1.629-.412-5.539-2.577-5.319-2.113.205-3.291,3.257-4.123,5.618-.633,1.784-2.153,4.282-4.23,3.428-3.066-1.247-5.215-3.236-8.184-5.815a3.754,3.754,0,0,0-3.023-.17c-4.09,1.484-6.332,5.871-10.613,7.1-3.823,1.094-6.359-2.1-7.3-5.341-1.079-3.737,2.974-6.383,3.319-10.114.042-.406-.382-1.459-.855-1.335-4.8,1.25-8.381,6.384-13.45,5.812a3.146,3.146,0,0,1,.523-1.116c3.929-3.1,7.812-5.6,11.886-8.634" transform="translate(-38.463 -37.635)" fill="#fff"/><path d="M225.64,58.706c-.955,1.755-.991,3.628-1.529,5.495-.059.205.345.547.618.335,4.524-3.666,6.931-8.795,11.661-12.153,2.287-1.635,5.243.7,6.166,3.321.665,1.9-.671,3.5-1.045,5.436-.471,2.564-.435,6.021,1.947,7.067,1.238.554,5.554-2.14,5.866-2.907,2.835-7.1,8.661-11.583,14.954-14.957,3.223-1.725,6.558-.219,9.28,1.751,2.851,2.079,8.165,7.809,6.285,12.826-1.491,2.166-2.167,4.609-3.791,6.812a9.551,9.551,0,0,1-9.083,3.631c-5.959-.712-12.644-1.737-17.047-6.242-3.168.3-3.134,3.01-6.432,5.278a7.681,7.681,0,0,1-11.209-2.28c-1.853-2.964.21-6.024-.5-9.135-3.42,3.149-6.159,6.658-9.317,10.189-1.146,1.282-2.764,3.078-4.216,1.967-1.979-1.5-6.075-2.967-5.628-4.536.939-3.3,7-11.816,10.523-18.113.538-.95,1.672-2.122,2.821-2.014.838.083,2.157.34,2.435,1.407.69,2.659-1.558,4.588-2.764,6.821m35.273,1.659c-.63.681-1.018,1.983-.673,2.324,2.737,2.778,9.848,4.569,10.6,3.93,1.128-.94,1.579-3.226,1.116-3.943-2.068-3.039-.808-7.228-3.96-7.554-2.768-.291-4.97,3-7.086,5.243" transform="translate(-71.727 -36.925)" fill="#fff"/></g></g></svg>