<svg xmlns="http://www.w3.org/2000/svg" xmlns:xlink="http://www.w3.org/1999/xlink" width="299.646" height="152.873" viewBox="0 0 299.646 152.873"><defs><clipPath id="a"><rect width="299.646" height="152.873" fill="none"/></clipPath></defs><g clip-path="url(#a)"><path d="M1256.563,601.937l-14.9,3.784v-2.035l7.539-1.771c1.856-.44,3.719-.84,5.156-1.1v-.044c-1.482-.246-3.256-.708-5.178-1.218l-7.518-1.991v-2.013l7.562-1.811c1.767-.422,3.542-.822,5.111-1.041v-.044c-1.635-.308-3.3-.73-5.155-1.2l-7.518-1.965v-1.969l14.9,4.224v2.013l-7.76,1.878a45.569,45.569,0,0,1-4.87.975v.044a42.18,42.18,0,0,1,4.87,1.148l7.76,2.123Z" transform="translate(-957.049 -452.849)" fill="#fff"/><rect width="14.903" height="1.947" transform="translate(284.611 127.167)" fill="#fff"/><path d="M1256.563,486.118h-14.9v-2.123l7.539-4.756a41.4,41.4,0,0,1,4.841-2.655l-.022-.066c-1.987.176-3.8.22-6.124.22h-6.234v-1.812h14.9v1.947L1249,481.6a42.454,42.454,0,0,1-4.98,2.765l.022.066c1.885-.11,3.675-.132,6.154-.132h6.366Z" transform="translate(-957.049 -366.064)" fill="#fff"/><path d="M1249.573,408.022v5.772h5.376v-6.458h1.614v8.4h-14.9v-8.075h1.614v6.127h4.708v-5.772Z" transform="translate(-957.049 -313.967)" fill="#fff"/><path d="M1254.733,346.646a10.475,10.475,0,0,0,.088-1.613c0-1.991-.726-3.829-2.9-3.829-2.01,0-2.875,1.749-2.875,3.85v1.591Zm-7.121,0V344.9c0-2.009-1.085-3.2-2.523-3.2-1.724,0-2.428,1.306-2.428,3.249a8.315,8.315,0,0,0,.132,1.705Zm-6.1,1.925a17.046,17.046,0,0,1-.33-3.517,6.076,6.076,0,0,1,1.078-4.07,3.149,3.149,0,0,1,2.633-1.261,3.534,3.534,0,0,1,3.279,2.523h.066a3.8,3.8,0,0,1,3.711-3.077,3.912,3.912,0,0,1,2.985,1.283c.953,1.019,1.394,2.7,1.394,5.13a22.658,22.658,0,0,1-.176,2.989Z" transform="translate(-956.679 -261.425)" fill="#fff"/><path d="M1250.373,266.066l-4.29,1.481c-.975.334-1.856.554-2.721.774v.048c.865.22,1.79.44,2.7.752l4.313,1.459Zm1.5,4.91,4.687,1.547v1.991l-14.9-5.086v-2.3l14.9-5.086V264.1l-4.687,1.591Z" transform="translate(-957.049 -201.978)" fill="#fff"/><path d="M1248.28,201.55v-1.969c0-2.057-1.129-3.362-2.831-3.362-1.928,0-2.765,1.393-2.765,3.429a8.512,8.512,0,0,0,.154,1.9Zm-6.791,1.925a22.526,22.526,0,0,1-.309-3.7c0-2.057.4-3.4,1.218-4.312a3.8,3.8,0,0,1,2.853-1.17,3.906,3.906,0,0,1,3.777,2.787h.065a3.742,3.742,0,0,1,3.007-2.167,23.791,23.791,0,0,0,4.093-1.151v1.991a18.586,18.586,0,0,1-3.557.972c-2.06.444-2.831,1.262-2.9,3.007v1.815h6.454v1.925Z" transform="translate(-956.679 -149.351)" fill="#fff"/><path d="M6.692,140.918A6.711,6.711,0,0,1,0,134.228V112.157a6.714,6.714,0,0,1,6.692-6.693H28.764a6.712,6.712,0,0,1,6.69,6.693v22.071a6.71,6.71,0,0,1-6.69,6.69Z" transform="translate(0 -81.29)" fill="#d8006b"/><path d="M6.692,342.763A6.712,6.712,0,0,1,0,336.071V314a6.712,6.712,0,0,1,6.692-6.691H28.764A6.71,6.71,0,0,1,35.454,314v22.072a6.711,6.711,0,0,1-6.69,6.692Z" transform="translate(0 -236.868)" fill="#3c1647"/><path d="M28.764,509.146H6.692A6.712,6.712,0,0,0,0,515.838v22.075A6.711,6.711,0,0,0,6.692,544.6H28.764a6.711,6.711,0,0,0,6.692-6.689V515.838a6.712,6.712,0,0,0-6.692-6.692" transform="translate(0 -392.44)" fill="#e8550c"/><path d="M243.468,374.145a10.643,10.643,0,0,1-.844,4.224,11.8,11.8,0,0,1-2.306,3.517,11.176,11.176,0,0,1-3.432,2.438,10.69,10.69,0,0,1-4.2.987H221.2a10.764,10.764,0,0,1-4.334-.876,11.484,11.484,0,0,1-5.955-5.955,10.735,10.735,0,0,1-.878-4.334V354.63a10.693,10.693,0,0,1,.878-4.331,11.473,11.473,0,0,1,5.955-5.959,10.751,10.751,0,0,1,4.334-.876h11.456a12.348,12.348,0,0,1,4.243,1.027,10.74,10.74,0,0,1,3.421,2.4,11.826,11.826,0,0,1,2.306,3.513,10.7,10.7,0,0,1,.844,4.228Zm-9.045,13.179c-.035-.007-.071-.011-.11-.018.083-.011.171-.022.253-.036Zm10.284-41.378a16.349,16.349,0,0,0-3.11-3.231,15.465,15.465,0,0,0-3.863-2.246l-4.758-.983-11.779-.022a14.683,14.683,0,0,0-5.929,1.212,15.265,15.265,0,0,0-8.025,8.067,14.733,14.733,0,0,0-1.208,5.886v19.515a14.623,14.623,0,0,0,1.212,5.929,15.335,15.335,0,0,0,8.021,8.02,14.61,14.61,0,0,0,5.929,1.217h11.46a11.758,11.758,0,0,1,7.7,3.15,10.5,10.5,0,0,1,2.282,3.194,9.278,9.278,0,0,1,.829,3.891v.077a9.382,9.382,0,0,1-.867,3.964,10.133,10.133,0,0,1-2.384,3.26,11.626,11.626,0,0,1-3.587,2.2,11.919,11.919,0,0,1-4.4.814H221.2a11.629,11.629,0,0,1-4.364-.814,11.815,11.815,0,0,1-3.551-2.2,10.094,10.094,0,0,1-2.381-3.26,9.334,9.334,0,0,1-.871-3.964v-1.071h-4v1.071a13.061,13.061,0,0,0,1.219,5.567,14.775,14.775,0,0,0,3.26,4.507,15.535,15.535,0,0,0,10.683,4.166h11.029a15.916,15.916,0,0,0,5.937-1.122,15.584,15.584,0,0,0,4.824-3.044,14.768,14.768,0,0,0,3.257-4.507,13.093,13.093,0,0,0,1.224-5.567v-.077a13.1,13.1,0,0,0-2.779-8.163,14.928,14.928,0,0,0-4.829-4.125,16.244,16.244,0,0,0,1.738-1.2,16.455,16.455,0,0,0,3.11-3.231,14.264,14.264,0,0,0,2.05-4.063,15.185,15.185,0,0,0,.711-4.621V354.63a15.21,15.21,0,0,0-.711-4.624,14.427,14.427,0,0,0-2.05-4.059" transform="translate(-158.809 -261.653)" fill="#fff"/><path d="M416.92,354.624a10.7,10.7,0,0,1,.878-4.334,11.448,11.448,0,0,1,5.955-5.956,10.753,10.753,0,0,1,4.332-.878H440.32a11.059,11.059,0,0,1,7.912,3.28,11.968,11.968,0,0,1,2.376,3.554,10.669,10.669,0,0,1,.878,4.334l.005.128a13.687,13.687,0,0,1-.106,2.651,11.972,11.972,0,0,1-.675,2.405,7.833,7.833,0,0,1-1.421,2.3c-1.659,1.8-4.063,2.677-7.34,2.677H416.92Zm34.659,24.037a11.063,11.063,0,0,1-4.063,4.848,10.879,10.879,0,0,1-6.109,1.8H428.085a10.692,10.692,0,0,1-4.332-.88,11.417,11.417,0,0,1-5.955-5.955,10.681,10.681,0,0,1-.878-4.331v-5.361H441.95c4.366,0,7.833-1.335,10.317-3.99a12.95,12.95,0,0,0,3.049-6.743,16.332,16.332,0,0,0,.245-2.494l-.075-.971a15.171,15.171,0,0,0-1.168-5.831,14.66,14.66,0,0,0-3.26-4.844,16.1,16.1,0,0,0-4.81-3.236,14.671,14.671,0,0,0-5.929-1.212H428.085a14.635,14.635,0,0,0-5.928,1.215,15.608,15.608,0,0,0-4.781,3.24,15.4,15.4,0,0,0-3.244,4.826,14.731,14.731,0,0,0-1.214,5.886v19.515a14.644,14.644,0,0,0,1.214,5.926,15.361,15.361,0,0,0,8.025,8.027,14.658,14.658,0,0,0,5.928,1.21h13.321a15.181,15.181,0,0,0,8.242-2.373,14.444,14.444,0,0,0,5.594-6.634l.418-.964-3.643-1.658Z" transform="translate(-318.27 -261.647)" fill="#fff"/><path d="M660.528,347.785a15,15,0,0,0-5.666-6.12,15.439,15.439,0,0,0-8.067-2.208h-23.37v49.849h3.995v-45.85H646.8a11.15,11.15,0,0,1,5.944,1.66,11.462,11.462,0,0,1,4.184,4.506l.487.928,3.609-1.8Z" transform="translate(-480.525 -261.647)" fill="#fff"/><path d="M827.035,374.584a10.745,10.745,0,0,1-.88,4.334,11.454,11.454,0,0,1-5.959,5.955,10.721,10.721,0,0,1-4.327.877h-1.628a10.727,10.727,0,0,1-4.331-.877,11.454,11.454,0,0,1-5.959-5.955,10.768,10.768,0,0,1-.877-4.334V354.6H829.1l.389-4H803.075V340.034h-4V350.6H786.507v4.074h12.567v19.908a14.669,14.669,0,0,0,1.214,5.93,15.363,15.363,0,0,0,8.023,8.02,14.611,14.611,0,0,0,5.929,1.217h1.628a14.714,14.714,0,0,0,5.882-1.214,15.236,15.236,0,0,0,8.067-8.024,14.642,14.642,0,0,0,1.214-5.93v-1.071h-4Z" transform="translate(-606.225 -262.092)" fill="#fff"/><path d="M1036.138,377.716l-.44.752a11.718,11.718,0,0,0,.44-1.577Zm-1.859-38.267v34.684a10.81,10.81,0,0,1-.876,4.334,12.011,12.011,0,0,1-2.376,3.554,11.061,11.061,0,0,1-7.914,3.278h-13.164a10.71,10.71,0,0,1-4.335-.877,11.681,11.681,0,0,1-3.546-2.409,11.484,11.484,0,0,1-2.409-3.55,10.683,10.683,0,0,1-.88-4.331V339.449h-4v34.684A14.667,14.667,0,0,0,996,380.063a15.295,15.295,0,0,0,8.023,8.02,14.607,14.607,0,0,0,5.93,1.214h13.164a14.719,14.719,0,0,0,7.715-2.086,15.673,15.673,0,0,0,3.451-2.8v14.272a10.811,10.811,0,0,1-.876,4.334,12.059,12.059,0,0,1-2.376,3.553,11.06,11.06,0,0,1-7.914,3.278H1012.56v4h10.553a14.646,14.646,0,0,0,5.929-1.214,16.2,16.2,0,0,0,4.811-3.234,14.763,14.763,0,0,0,3.253-4.8,15.057,15.057,0,0,0,1.174-5.915V339.449Z" transform="translate(-766.76 -261.641)" fill="#fff"/><path d="M242.556,111.2a16.221,16.221,0,0,0-4.811-3.238,14.69,14.69,0,0,0-5.928-1.212H218.651a14.625,14.625,0,0,0-5.929,1.216,15.625,15.625,0,0,0-4.78,3.241,15.435,15.435,0,0,0-3.243,4.826,14.719,14.719,0,0,0-1.214,5.884v19.514a14.662,14.662,0,0,0,1.214,5.93,15.368,15.368,0,0,0,8.024,8.025,14.669,14.669,0,0,0,5.929,1.212h13.166a14.662,14.662,0,0,0,5.928-1.212,16.047,16.047,0,0,0,4.811-3.238,14.7,14.7,0,0,0,3.254-4.8,15.092,15.092,0,0,0,1.172-5.918v-1.065h-4v1.065a10.725,10.725,0,0,1-.878,4.335,11.947,11.947,0,0,1-2.38,3.555,11.013,11.013,0,0,1-7.908,3.278H218.651a10.649,10.649,0,0,1-4.332-.878,11.414,11.414,0,0,1-3.544-2.407,11.545,11.545,0,0,1-2.411-3.548,10.692,10.692,0,0,1-.878-4.335V121.92a10.69,10.69,0,0,1,.878-4.335,11.467,11.467,0,0,1,5.956-5.955,10.732,10.732,0,0,1,4.332-.878h13.166a11.05,11.05,0,0,1,7.908,3.278,11.991,11.991,0,0,1,2.38,3.555,10.723,10.723,0,0,1,.878,4.335v1.069h4V121.92a15.224,15.224,0,0,0-1.166-5.873,14.688,14.688,0,0,0-3.26-4.844" transform="translate(-156.842 -82.283)" fill="#fff"/><path d="M423.045,28.47h18.137a11.015,11.015,0,0,1,7.908,3.278,11.911,11.911,0,0,1,2.381,3.555,10.718,10.718,0,0,1,.878,4.333V74.318h4V39.636a15.156,15.156,0,0,0-1.164-5.873,14.731,14.731,0,0,0-3.26-4.844,16.167,16.167,0,0,0-4.809-3.236,14.68,14.68,0,0,0-5.929-1.212H423.045V0h-4V74.318h4Z" transform="translate(-322.993 0.001)" fill="#fff"/><path d="M620.714,110.76h12.237a11.023,11.023,0,0,1,7.91,3.278,11.955,11.955,0,0,1,2.38,3.555,10.721,10.721,0,0,1,.88,4.332v.129a13.629,13.629,0,0,1-.107,2.647,11.713,11.713,0,0,1-.675,2.415,7.817,7.817,0,0,1-1.415,2.294c-1.665,1.8-4.067,2.673-7.345,2.673H609.548V121.926a10.715,10.715,0,0,1,.878-4.332,11.431,11.431,0,0,1,5.955-5.955,10.714,10.714,0,0,1,4.332-.878m-5.927,44.635a14.64,14.64,0,0,0,5.927,1.214h13.323a15.17,15.17,0,0,0,8.239-2.374,14.475,14.475,0,0,0,5.6-6.637l.414-.962-3.645-1.656-.433.988a11.121,11.121,0,0,1-4.067,4.844,10.861,10.861,0,0,1-6.109,1.8H620.714a10.688,10.688,0,0,1-4.332-.88,11.448,11.448,0,0,1-5.955-5.955,10.71,10.71,0,0,1-.878-4.332v-5.36h25.031c4.367,0,7.833-1.336,10.319-3.992a12.939,12.939,0,0,0,3.051-6.747,17.151,17.151,0,0,0,.246-2.49l-.077-.972a15.2,15.2,0,0,0-1.17-5.829,14.72,14.72,0,0,0-3.256-4.844,16.173,16.173,0,0,0-4.811-3.236,14.682,14.682,0,0,0-5.93-1.212H620.714a14.709,14.709,0,0,0-5.931,1.212,15.279,15.279,0,0,0-8.021,8.065,14.751,14.751,0,0,0-1.212,5.887v19.516a14.619,14.619,0,0,0,1.215,5.929,15.348,15.348,0,0,0,8.022,8.023" transform="translate(-466.747 -82.289)" fill="#fff"/><path d="M851.546,147.929l-3.469-1.982-.536.92a11.435,11.435,0,0,1-9.916,5.741H815.844L831.554,134l23.1-27.238h-30.5a16.685,16.685,0,0,0-4.056.5,13.265,13.265,0,0,0-3.759,1.582,14.868,14.868,0,0,0-5.588,5.666l-.525.928,3.476,1.985.532-.918a11.427,11.427,0,0,1,9.919-5.739h21.778l-15.782,18.682-23.021,27.167h30.5a14.9,14.9,0,0,0,7.8-2.15,14.365,14.365,0,0,0,5.6-5.6Z" transform="translate(-622.12 -82.289)" fill="#fff"/><path d="M1046.177,107.32h7.368a4.982,4.982,0,0,1,1.969.394,5.033,5.033,0,0,1,2.706,2.7,5.079,5.079,0,0,1,.393,1.993v15.411h2.127V112.412a7.108,7.108,0,0,0-.55-2.767,7.232,7.232,0,0,0-1.566-2.336,7.081,7.081,0,0,0-2.325-1.555,7.2,7.2,0,0,0-2.754-.538h-9.472v22.605h2.1Z" transform="translate(-804.752 -81.099)" fill="#e8550c"/><path d="M1146.1,106.685a2.874,2.874,0,0,1,2.918,3.064,2.93,2.93,0,0,1-2.881,3.135,2.862,2.862,0,0,1-2.846-2.989,2.95,2.95,0,0,1,2.809-3.211m0,7.691a4.616,4.616,0,0,0,4.661-4.661,4.412,4.412,0,0,0-4.558-4.521,4.6,4.6,0,0,0-4.661,4.694,4.428,4.428,0,0,0,4.558,4.488" transform="translate(-879.883 -81.082)" fill="#e8550c"/><path d="M1060.341,228.941a5.9,5.9,0,0,0-1.4-1.971,6.442,6.442,0,0,0-4.445-1.738h-7.158l1.053-7.308h10.979v-2.169h-12.783l-1.679,11.645h9.589a4.346,4.346,0,0,1,1.666.315,4.451,4.451,0,0,1,1.356.847,3.631,3.631,0,0,1,.888,1.228,3.594,3.594,0,0,1,.319,1.505v3.751a3.684,3.684,0,0,1-1.207,2.734,4.455,4.455,0,0,1-3.022,1.164h-4.275a2.436,2.436,0,0,1-1.075-.244,2.691,2.691,0,0,1-.887-.681,3.454,3.454,0,0,1-.627-1.047,3.563,3.563,0,0,1-.228-1.287v-.777h-2.1v.682l-1.625-.829-.319.785a6.141,6.141,0,0,1-.814,1.423,5.221,5.221,0,0,1-1.093,1.058,5,5,0,0,1-1.306.676,4.313,4.313,0,0,1-1.415.24h-9.487l14.386-14.791v-.443a8.752,8.752,0,0,0-.528-3.025,7.942,7.942,0,0,0-1.54-2.576,7.123,7.123,0,0,0-2.347-1.769,6.548,6.548,0,0,0-2.779-.609h-3.146a6.54,6.54,0,0,0-2.78.609,7.135,7.135,0,0,0-2.35,1.769,7.921,7.921,0,0,0-1.536,2.576,8.749,8.749,0,0,0-.529,3.025v.777h2.1v-.777a6.246,6.246,0,0,1,.414-2.272,6.052,6.052,0,0,1,1.119-1.857,5.239,5.239,0,0,1,1.624-1.236,4.3,4.3,0,0,1,1.932-.448h3.146a4.309,4.309,0,0,1,1.9.436,5.391,5.391,0,0,1,1.62,1.2,6.119,6.119,0,0,1,1.555,3.715l-17.466,17.858h14.687a6.67,6.67,0,0,0,3.993-1.329,7.712,7.712,0,0,0,2.578-3.4l.029-.082a5.734,5.734,0,0,0,1.383,3.185,5.036,5.036,0,0,0,1.562,1.179,4.468,4.468,0,0,0,1.969.447h4.253a6.49,6.49,0,0,0,4.445-1.738,5.859,5.859,0,0,0,1.885-4.327V231.3a5.877,5.877,0,0,0-.484-2.355" transform="translate(-789.312 -166.282)" fill="#e8550c"/><path d="M423.332,600.65a4.686,4.686,0,0,0,.859-.6,3.38,3.38,0,0,0,.846-2.485,4.219,4.219,0,0,0-4.337-4.186h-4.19v16.227h4.8a4.667,4.667,0,0,0,4.638-4.791,4.715,4.715,0,0,0-2.61-4.166M418.2,600.2v-5.14h2.5a2.595,2.595,0,0,1,.558,5.14Zm0,1.684h3.367a2.849,2.849,0,0,1,2.7,2.957,3,3,0,0,1-2.979,3.085H418.2Z" transform="translate(-321.038 -457.367)" fill="#e8550c"/><path d="M502.009,598.647a5.217,5.217,0,0,0-5.268-5.268h-5.069v16.232h1.683V602.7l7.4,7.407,1.188-1.187-5.09-5.111a5.555,5.555,0,0,0,.6.038c2.469,0,4.555-2.381,4.555-5.2m-8.654-3.588h3.386a3.55,3.55,0,0,1,3.582,3.588,3.586,3.586,0,0,1-3.536,3.708h-3.432Z" transform="translate(-378.972 -457.366)" fill="#e8550c"/><path d="M562.868,606.371l1.529.72,2.758-5.916h7.029l2.759,5.916,1.529-.72-7.791-16.71Zm10.533-6.878h-5.465l2.723-5.863Z" transform="translate(-433.848 -454.5)" fill="#e8550c"/><path d="M659.366,599.343c-1.969-.494-2.847-1.321-2.847-2.683a2.719,2.719,0,0,1,2.851-2.825,2.9,2.9,0,0,1,2.979,2.944l.013.26,1.683-.09-.012-.257a4.559,4.559,0,0,0-4.685-4.545,4.4,4.4,0,0,0-4.511,4.557c0,2.112,1.378,3.553,4.1,4.285,3.744.969,4.042,1.888,4.042,2.987a3.582,3.582,0,0,1-3.672,3.478c-1.19,0-3.224-.471-3.476-3.627l-.02-.252-1.681.1.021.264a5.5,5.5,0,0,0,2.049,4.23,5.48,5.48,0,0,0,7.056-.7,5.2,5.2,0,0,0,1.4-3.485c0-1.947-.9-3.48-5.29-4.633" transform="translate(-504.188 -456.417)" fill="#e8550c"/><path d="M731.227,599.343c-1.969-.492-2.847-1.32-2.847-2.683a2.717,2.717,0,0,1,2.847-2.825,2.9,2.9,0,0,1,2.979,2.943l.012.26,1.687-.09-.012-.257a4.562,4.562,0,0,0-4.688-4.545A4.4,4.4,0,0,0,726.7,596.7c0,2.112,1.378,3.553,4.1,4.285,3.74.968,4.037,1.887,4.037,2.987a3.58,3.58,0,0,1-3.668,3.478c-1.19,0-3.225-.471-3.479-3.627l-.02-.252-1.68.1.021.264a5.5,5.5,0,0,0,2.048,4.23,5.482,5.482,0,0,0,7.058-.7,5.2,5.2,0,0,0,1.4-3.485c0-1.947-.9-3.48-5.29-4.633" transform="translate(-559.577 -456.417)" fill="#e8550c"/><path d="M805.73,601.885h4.749V600.2H805.73v-5.136h5.956V593.38h-7.64v16.231h8.461v-1.685H805.73Z" transform="translate(-619.744 -457.367)" fill="#e8550c"/><path d="M885.754,598.647a5.217,5.217,0,0,0-5.268-5.268h-5.074v16.232H877.1V602.7l7.4,7.4,1.187-1.187-5.089-5.111a5.583,5.583,0,0,0,.6.038c2.468,0,4.553-2.381,4.553-5.2M877.1,595.06h3.386a3.649,3.649,0,0,1,.048,7.3H877.1Z" transform="translate(-674.752 -457.366)" fill="#e8550c"/><rect width="1.685" height="16.232" transform="translate(218.581 136.013)" fill="#e8550c"/><path d="M998.984,607.926v-6.042h4.745V600.2h-4.745v-5.136h5.955v-1.684H997.3v16.231h8.457v-1.684Z" transform="translate(-768.701 -457.366)" fill="#e8550c"/></g></svg>