<svg xmlns="http://www.w3.org/2000/svg" xmlns:xlink="http://www.w3.org/1999/xlink" width="225.411" height="115" viewBox="0 0 225.411 115"><defs><clipPath id="a"><rect width="225.411" height="115"/></clipPath></defs><g clip-path="url(#a)"><path d="M1252.871,598.365l-11.211,2.847v-1.531l5.671-1.332c1.4-.331,2.8-.632,3.879-.83v-.033c-1.114-.185-2.449-.533-3.895-.916l-5.655-1.5v-1.514l5.688-1.363c1.33-.317,2.665-.618,3.845-.783v-.033c-1.23-.232-2.483-.549-3.878-.9L1241.66,589v-1.481l11.211,3.178v1.514l-5.837,1.412a34.325,34.325,0,0,1-3.663.734v.033a31.7,31.7,0,0,1,3.663.863l5.837,1.6Z" transform="translate(-1027.559 -486.212)"/><rect width="11.211" height="1.465" transform="translate(214.101 95.663)"/><path d="M1252.871,483.345H1241.66v-1.6l5.671-3.578a31.181,31.181,0,0,1,3.641-2l-.017-.05c-1.5.132-2.858.166-4.607.166h-4.69v-1.363h11.211v1.465l-5.688,3.558a31.9,31.9,0,0,1-3.746,2.08l.017.05c1.418-.083,2.764-.1,4.629-.1h4.789Z" transform="translate(-1027.559 -393.034)"/><path d="M1247.613,407.852v4.342h4.044v-4.858h1.214v6.322H1241.66v-6.074h1.214v4.609h3.542v-4.342Z" transform="translate(-1027.559 -337.099)"/><path d="M1251.375,344.794a7.855,7.855,0,0,0,.066-1.214c0-1.5-.546-2.88-2.179-2.88-1.512,0-2.163,1.316-2.163,2.9v1.2Zm-5.357,0v-1.316c0-1.511-.817-2.411-1.9-2.411-1.3,0-1.826.982-1.826,2.444a6.269,6.269,0,0,0,.1,1.283Zm-4.59,1.448a12.825,12.825,0,0,1-.248-2.645,4.571,4.571,0,0,1,.811-3.062,2.369,2.369,0,0,1,1.981-.949,2.659,2.659,0,0,1,2.466,1.9h.05a2.855,2.855,0,0,1,2.792-2.315,2.943,2.943,0,0,1,2.245.965c.717.767,1.048,2.03,1.048,3.859a17.039,17.039,0,0,1-.132,2.248Z" transform="translate(-1027.161 -280.686)"/><path d="M1248.214,265.069l-3.227,1.115c-.734.251-1.4.417-2.047.582v.036c.651.166,1.346.331,2.031.566l3.244,1.1Zm1.131,3.694,3.526,1.164v1.5L1241.66,267.6v-1.73l11.211-3.826v1.548l-3.526,1.2Z" transform="translate(-1027.559 -216.859)"/><path d="M1246.521,199.621V198.14c0-1.548-.849-2.529-2.13-2.529-1.451,0-2.08,1.048-2.08,2.579a6.4,6.4,0,0,0,.116,1.432Zm-5.109,1.448a16.948,16.948,0,0,1-.232-2.781,4.631,4.631,0,0,1,.916-3.244,2.857,2.857,0,0,1,2.146-.88,2.938,2.938,0,0,1,2.842,2.1h.049a2.815,2.815,0,0,1,2.262-1.63,17.888,17.888,0,0,0,3.078-.866v1.5a13.97,13.97,0,0,1-2.676.731c-1.55.334-2.13.949-2.179,2.262v1.366h4.855v1.448Z" transform="translate(-1027.161 -160.354)"/><path d="M5.034,132.135A5.049,5.049,0,0,1,0,127.1V110.5a5.05,5.05,0,0,1,5.034-5.035h16.6a5.049,5.049,0,0,1,5.033,5.035v16.6a5.047,5.047,0,0,1-5.033,5.033Z" transform="translate(0 -87.279)" fill="#d8006b"/><path d="M5.034,333.98A5.049,5.049,0,0,1,0,328.946v-16.6a5.049,5.049,0,0,1,5.034-5.033h16.6a5.048,5.048,0,0,1,5.033,5.033v16.6a5.048,5.048,0,0,1-5.033,5.034Z" transform="translate(0 -254.319)" fill="#3c1647"/><path d="M21.638,509.146H5.034A5.049,5.049,0,0,0,0,514.18v16.607a5.049,5.049,0,0,0,5.034,5.032h16.6a5.049,5.049,0,0,0,5.034-5.032V514.18a5.049,5.049,0,0,0-5.034-5.034" transform="translate(0 -421.353)" fill="#e8550c"/><path d="M234.195,365.554a8.006,8.006,0,0,1-.635,3.178,8.877,8.877,0,0,1-1.735,2.646,8.408,8.408,0,0,1-2.582,1.834,8.043,8.043,0,0,1-3.157.742h-8.644a8.1,8.1,0,0,1-3.26-.659,8.639,8.639,0,0,1-4.48-4.48,8.076,8.076,0,0,1-.661-3.261V350.873a8.044,8.044,0,0,1,.661-3.258,8.631,8.631,0,0,1,4.48-4.483,8.087,8.087,0,0,1,3.26-.659h8.618a9.289,9.289,0,0,1,3.192.773,8.079,8.079,0,0,1,2.574,1.8,8.894,8.894,0,0,1,1.735,2.643,8.05,8.05,0,0,1,.635,3.181Zm-6.8,9.914-.083-.014c.062-.008.128-.016.191-.027Zm7.736-31.127a12.3,12.3,0,0,0-2.339-2.43,11.634,11.634,0,0,0-2.906-1.69l-3.579-.739-8.861-.017a11.045,11.045,0,0,0-4.46.912,11.483,11.483,0,0,0-6.037,6.069,11.083,11.083,0,0,0-.909,4.427v14.681a11,11,0,0,0,.912,4.461,11.536,11.536,0,0,0,6.034,6.033,10.99,10.99,0,0,0,4.46.916h8.621a8.845,8.845,0,0,1,5.792,2.369,7.9,7.9,0,0,1,1.717,2.4,6.979,6.979,0,0,1,.624,2.927v.058a7.058,7.058,0,0,1-.652,2.982,7.623,7.623,0,0,1-1.793,2.452,8.745,8.745,0,0,1-2.7,1.655,8.967,8.967,0,0,1-3.313.613h-8.3a8.749,8.749,0,0,1-3.283-.613,8.886,8.886,0,0,1-2.671-1.655A7.593,7.593,0,0,1,209.7,387.7a7.022,7.022,0,0,1-.655-2.982v-.805h-3.005v.805a9.826,9.826,0,0,0,.917,4.188,11.113,11.113,0,0,0,2.452,3.39,11.686,11.686,0,0,0,8.037,3.134h8.3a11.973,11.973,0,0,0,4.466-.844,11.723,11.723,0,0,0,3.629-2.29,11.108,11.108,0,0,0,2.45-3.39,9.849,9.849,0,0,0,.921-4.188v-.058a9.858,9.858,0,0,0-2.091-6.141,11.23,11.23,0,0,0-3.633-3.1,12.214,12.214,0,0,0,1.307-.9,12.379,12.379,0,0,0,2.339-2.43,10.731,10.731,0,0,0,1.542-3.056,11.423,11.423,0,0,0,.535-3.476V350.873a11.442,11.442,0,0,0-.535-3.479,10.852,10.852,0,0,0-1.542-3.053" transform="translate(-170.509 -280.931)"/><path d="M415.928,350.866a8.046,8.046,0,0,1,.661-3.261,8.611,8.611,0,0,1,4.48-4.48,8.088,8.088,0,0,1,3.259-.66h9.2a8.318,8.318,0,0,1,5.952,2.467,9,9,0,0,1,1.788,2.673,8.026,8.026,0,0,1,.661,3.261l0,.1a10.291,10.291,0,0,1-.08,1.994,9,9,0,0,1-.508,1.81,5.892,5.892,0,0,1-1.069,1.73,7.094,7.094,0,0,1-5.521,2.014h-18.83ZM442,368.948a8.322,8.322,0,0,1-3.057,3.647,8.184,8.184,0,0,1-4.6,1.352H424.328a8.042,8.042,0,0,1-3.259-.662,8.588,8.588,0,0,1-4.48-4.48,8.035,8.035,0,0,1-.661-3.258v-4.033h18.83a10.146,10.146,0,0,0,7.761-3,9.742,9.742,0,0,0,2.294-5.073,12.285,12.285,0,0,0,.185-1.876l-.057-.731a11.413,11.413,0,0,0-.879-4.386,11.028,11.028,0,0,0-2.452-3.644,12.109,12.109,0,0,0-3.618-2.434,11.036,11.036,0,0,0-4.46-.912h-9.2a11.009,11.009,0,0,0-4.459.914,11.741,11.741,0,0,0-3.6,2.437,11.583,11.583,0,0,0-2.44,3.63,11.082,11.082,0,0,0-.913,4.428v14.681a11.016,11.016,0,0,0,.913,4.458,11.556,11.556,0,0,0,6.037,6.038,11.026,11.026,0,0,0,4.459.91h10.021a11.42,11.42,0,0,0,6.2-1.785,10.866,10.866,0,0,0,4.208-4.99l.314-.725-2.74-1.247Z" transform="translate(-341.719 -280.924)"/><path d="M651.337,345.722a11.286,11.286,0,0,0-4.262-4.6,11.614,11.614,0,0,0-6.069-1.661h-17.58v37.5h3.005V342.465h14.575a8.388,8.388,0,0,1,4.472,1.248,8.622,8.622,0,0,1,3.147,3.39l.367.7,2.715-1.357Z" transform="translate(-515.928 -280.924)"/><path d="M816.994,366.025a8.082,8.082,0,0,1-.662,3.261,8.617,8.617,0,0,1-4.482,4.48,8.065,8.065,0,0,1-3.255.659H807.37a8.068,8.068,0,0,1-3.258-.659,8.618,8.618,0,0,1-4.483-4.48,8.1,8.1,0,0,1-.659-3.261V350.991h19.58l.292-3.007H798.97v-7.95h-3.01v7.95h-9.454v3.065h9.454v14.976a11.034,11.034,0,0,0,.913,4.46,11.557,11.557,0,0,0,6.036,6.033,10.99,10.99,0,0,0,4.461.916h1.225a11.066,11.066,0,0,0,4.425-.913,11.461,11.461,0,0,0,6.069-6.036,11.014,11.014,0,0,0,.913-4.46v-.805h-3.007Z" transform="translate(-650.889 -281.401)"/><path d="M1025.893,368.235l-.331.566a8.828,8.828,0,0,0,.331-1.186Zm-1.4-28.786v26.092a8.131,8.131,0,0,1-.659,3.26,9.034,9.034,0,0,1-1.788,2.673,8.32,8.32,0,0,1-5.953,2.466h-9.9a8.056,8.056,0,0,1-3.261-.659,8.789,8.789,0,0,1-2.668-1.812,8.64,8.64,0,0,1-1.812-2.67,8.038,8.038,0,0,1-.662-3.258V339.449h-3.007v26.092A11.034,11.034,0,0,0,995.7,370a11.506,11.506,0,0,0,6.036,6.033,10.988,10.988,0,0,0,4.461.913h9.9a11.072,11.072,0,0,0,5.8-1.569,11.784,11.784,0,0,0,2.6-2.1v10.736a8.132,8.132,0,0,1-.659,3.261,9.069,9.069,0,0,1-1.788,2.673,8.32,8.32,0,0,1-5.953,2.466h-7.939v3.007h7.939a11.018,11.018,0,0,0,4.46-.913,12.189,12.189,0,0,0,3.619-2.433,11.105,11.105,0,0,0,2.447-3.611,11.323,11.323,0,0,0,.883-4.449v-44.56Z" transform="translate(-823.25 -280.917)"/><path d="M232.876,110.1a12.2,12.2,0,0,0-3.619-2.436,11.05,11.05,0,0,0-4.459-.912h-9.9a11,11,0,0,0-4.46.915,11.754,11.754,0,0,0-3.6,2.438,11.611,11.611,0,0,0-2.44,3.63,11.072,11.072,0,0,0-.913,4.426v14.679a11.03,11.03,0,0,0,.913,4.461,11.56,11.56,0,0,0,6.036,6.037,11.035,11.035,0,0,0,4.46.912h9.9a11.029,11.029,0,0,0,4.459-.912,12.072,12.072,0,0,0,3.619-2.436,11.059,11.059,0,0,0,2.448-3.61,11.353,11.353,0,0,0,.881-4.452v-.8H233.2v.8a8.068,8.068,0,0,1-.66,3.261,8.986,8.986,0,0,1-1.79,2.674,8.285,8.285,0,0,1-5.949,2.466h-9.9a8.011,8.011,0,0,1-3.259-.661,8.586,8.586,0,0,1-2.666-1.811,8.684,8.684,0,0,1-1.814-2.669,8.043,8.043,0,0,1-.661-3.261V118.162a8.042,8.042,0,0,1,.661-3.261,8.626,8.626,0,0,1,4.48-4.48,8.073,8.073,0,0,1,3.259-.661h9.9a8.313,8.313,0,0,1,5.949,2.466,9.02,9.02,0,0,1,1.79,2.674,8.066,8.066,0,0,1,.66,3.261v.8h3.008v-.8a11.453,11.453,0,0,0-.877-4.418,11.05,11.05,0,0,0-2.452-3.644" transform="translate(-168.397 -88.345)"/><path d="M422.054,21.416H435.7a8.285,8.285,0,0,1,5.949,2.466,8.96,8.96,0,0,1,1.792,2.674,8.063,8.063,0,0,1,.661,3.259v26.09H447.1V29.816a11.4,11.4,0,0,0-.876-4.418,11.082,11.082,0,0,0-2.452-3.644,12.161,12.161,0,0,0-3.618-2.434,11.043,11.043,0,0,0-4.46-.912H422.054V0h-3.008V55.906h3.008Z" transform="translate(-346.789 0.001)"/><path d="M616.957,109.769h9.205a8.292,8.292,0,0,1,5.95,2.466,9,9,0,0,1,1.79,2.674,8.066,8.066,0,0,1,.662,3.259v.1a10.26,10.26,0,0,1-.08,1.992,8.819,8.819,0,0,1-.508,1.816,5.88,5.88,0,0,1-1.065,1.726,7.1,7.1,0,0,1-5.525,2.011h-18.83v-7.641a8.064,8.064,0,0,1,.661-3.259,8.6,8.6,0,0,1,4.48-4.48,8.059,8.059,0,0,1,3.259-.661M612.5,143.346a11.013,11.013,0,0,0,4.459.913h10.022a11.412,11.412,0,0,0,6.2-1.786,10.889,10.889,0,0,0,4.212-4.993l.312-.724-2.742-1.245-.326.743a8.366,8.366,0,0,1-3.059,3.644,8.171,8.171,0,0,1-4.6,1.353H616.957a8.04,8.04,0,0,1-3.259-.662,8.613,8.613,0,0,1-4.48-4.48,8.06,8.06,0,0,1-.661-3.259v-4.032h18.83a10.148,10.148,0,0,0,7.763-3,9.735,9.735,0,0,0,2.295-5.075,12.907,12.907,0,0,0,.185-1.873l-.058-.731a11.431,11.431,0,0,0-.88-4.385,11.071,11.071,0,0,0-2.449-3.644,12.167,12.167,0,0,0-3.619-2.434,11.045,11.045,0,0,0-4.461-.912h-9.205a11.066,11.066,0,0,0-4.462.912,11.493,11.493,0,0,0-6.034,6.067,11.1,11.1,0,0,0-.912,4.429V132.85a11,11,0,0,0,.914,4.46,11.545,11.545,0,0,0,6.034,6.036" transform="translate(-501.134 -88.352)"/><path d="M840.542,137.73l-2.609-1.491-.4.692a8.6,8.6,0,0,1-7.459,4.318H813.685l11.817-14,17.376-20.49H819.936a12.553,12.553,0,0,0-3.051.373,9.978,9.978,0,0,0-2.827,1.19,11.184,11.184,0,0,0-4.2,4.262l-.395.7,2.615,1.494.4-.691a8.6,8.6,0,0,1,7.462-4.317h16.383l-11.873,14.053-17.318,20.436h22.943a11.209,11.209,0,0,0,5.87-1.618,10.807,10.807,0,0,0,4.215-4.215Z" transform="translate(-667.954 -88.351)"/><path d="M1045.655,106.8h5.542a3.748,3.748,0,0,1,1.481.3,3.785,3.785,0,0,1,2.036,2.035,3.824,3.824,0,0,1,.3,1.5v11.593h1.6V110.629a5.348,5.348,0,0,0-.414-2.081,5.445,5.445,0,0,0-1.178-1.757,5.328,5.328,0,0,0-1.749-1.169,5.413,5.413,0,0,0-2.072-.4h-7.126v17h1.583Z" transform="translate(-864.041 -87.074)" fill="#e8550c"/><path d="M1144.972,106.315a2.162,2.162,0,0,1,2.2,2.3,2.2,2.2,0,0,1-2.168,2.359,2.153,2.153,0,0,1-2.141-2.248,2.219,2.219,0,0,1,2.113-2.415m0,5.786a3.472,3.472,0,0,0,3.506-3.506,3.319,3.319,0,0,0-3.429-3.4,3.463,3.463,0,0,0-3.506,3.531,3.331,3.331,0,0,0,3.429,3.376" transform="translate(-944.708 -87.055)" fill="#e8550c"/><path d="M1051.348,225.668a4.436,4.436,0,0,0-1.054-1.483,4.846,4.846,0,0,0-3.343-1.307h-5.385l.792-5.5h8.259v-1.632H1041l-1.263,8.76h7.213a3.268,3.268,0,0,1,1.253.237,3.35,3.35,0,0,1,1.02.637,2.731,2.731,0,0,1,.668.924,2.7,2.7,0,0,1,.24,1.132v2.822a2.771,2.771,0,0,1-.908,2.057,3.351,3.351,0,0,1-2.273.876h-3.216a1.831,1.831,0,0,1-.808-.183,2.022,2.022,0,0,1-.668-.512,2.592,2.592,0,0,1-.471-.788,2.678,2.678,0,0,1-.172-.968v-.585h-1.583v.513l-1.222-.623-.24.59a4.625,4.625,0,0,1-.613,1.07,3.93,3.93,0,0,1-.822.8,3.765,3.765,0,0,1-.982.509,3.245,3.245,0,0,1-1.064.181h-7.137l10.822-11.127v-.333a6.577,6.577,0,0,0-.4-2.276,5.966,5.966,0,0,0-1.158-1.938,5.357,5.357,0,0,0-1.765-1.331,4.927,4.927,0,0,0-2.091-.458H1031a4.92,4.92,0,0,0-2.091.458,5.368,5.368,0,0,0-1.768,1.331,5.962,5.962,0,0,0-1.156,1.938,6.583,6.583,0,0,0-.4,2.276v.585h1.583v-.585a4.7,4.7,0,0,1,.312-1.709,4.555,4.555,0,0,1,.842-1.4,3.94,3.94,0,0,1,1.222-.93,3.232,3.232,0,0,1,1.454-.337h2.367a3.241,3.241,0,0,1,1.429.328,4.055,4.055,0,0,1,1.219.906,4.6,4.6,0,0,1,1.17,2.794l-13.139,13.434h11.048a5.018,5.018,0,0,0,3-1,5.8,5.8,0,0,0,1.939-2.557l.022-.062a4.316,4.316,0,0,0,1.04,2.4,3.787,3.787,0,0,0,1.175.887,3.362,3.362,0,0,0,1.482.337h3.2a4.882,4.882,0,0,0,3.343-1.308,4.406,4.406,0,0,0,1.418-3.255v-2.822a4.423,4.423,0,0,0-.364-1.771" transform="translate(-847.464 -178.532)" fill="#e8550c"/><path d="M421.642,598.849a3.517,3.517,0,0,0,.646-.45,2.542,2.542,0,0,0,.636-1.87,3.174,3.174,0,0,0-3.263-3.149H416.51v12.207h3.607a3.511,3.511,0,0,0,3.489-3.6,3.547,3.547,0,0,0-1.964-3.134m-3.864-.338v-3.866h1.883a1.952,1.952,0,0,1,.42,3.866Zm0,1.267h2.533A2.143,2.143,0,0,1,422.34,602a2.258,2.258,0,0,1-2.241,2.321h-2.321Z" transform="translate(-344.691 -491.063)" fill="#e8550c"/><path d="M499.448,597.342a3.925,3.925,0,0,0-3.963-3.963h-3.813v12.21h1.266v-5.2l5.567,5.572.894-.893-3.829-3.844a4.173,4.173,0,0,0,.451.028,3.743,3.743,0,0,0,3.427-3.911m-6.51-2.7h2.547a2.745,2.745,0,0,1,.035,5.489h-2.582Z" transform="translate(-406.892 -491.062)" fill="#e8550c"/><path d="M562.868,602.232l1.15.541,2.074-4.451h5.288l2.076,4.451,1.15-.541-5.861-12.57Zm7.924-5.174h-4.111l2.048-4.411Z" transform="translate(-465.812 -487.985)" fill="#e8550c"/><path d="M658.067,597.561c-1.481-.371-2.142-.994-2.142-2.018a2.045,2.045,0,0,1,2.145-2.125,2.183,2.183,0,0,1,2.241,2.215l.01.2,1.266-.068-.009-.193a3.43,3.43,0,0,0-3.524-3.419,3.313,3.313,0,0,0-3.394,3.428c0,1.589,1.037,2.673,3.083,3.223,2.816.729,3.04,1.42,3.04,2.247a2.7,2.7,0,0,1-2.762,2.616c-.9,0-2.426-.354-2.615-2.728l-.015-.19-1.265.072.016.2a4.136,4.136,0,0,0,1.541,3.182,4.122,4.122,0,0,0,5.308-.528,3.907,3.907,0,0,0,1.057-2.622c0-1.465-.676-2.618-3.979-3.485" transform="translate(-541.333 -490.043)" fill="#e8550c"/><path d="M729.929,597.561c-1.481-.37-2.142-.993-2.142-2.018a2.044,2.044,0,0,1,2.142-2.125,2.179,2.179,0,0,1,2.241,2.214l.009.2,1.269-.068-.009-.193a3.432,3.432,0,0,0-3.527-3.419,3.312,3.312,0,0,0-3.392,3.428c0,1.589,1.037,2.673,3.084,3.223,2.814.729,3.037,1.419,3.037,2.247a2.693,2.693,0,0,1-2.759,2.616c-.9,0-2.426-.355-2.617-2.729l-.015-.19-1.263.072.016.2a4.136,4.136,0,0,0,1.541,3.182,4.124,4.124,0,0,0,5.309-.528,3.909,3.909,0,0,0,1.057-2.622c0-1.465-.676-2.618-3.979-3.485" transform="translate(-600.803 -490.043)" fill="#e8550c"/><path d="M805.313,599.778h3.573v-1.267h-3.573v-3.864h4.48V593.38h-5.747v12.21h6.365v-1.267h-5.1Z" transform="translate(-665.403 -491.063)" fill="#e8550c"/><path d="M883.192,597.342a3.925,3.925,0,0,0-3.963-3.963h-3.817v12.21h1.27v-5.2l5.567,5.57.893-.893-3.828-3.844a4.189,4.189,0,0,0,.453.028,3.742,3.742,0,0,0,3.425-3.911m-6.51-2.7h2.547a2.745,2.745,0,0,1,.036,5.489h-2.583Z" transform="translate(-724.464 -491.062)" fill="#e8550c"/><rect width="1.267" height="12.21" transform="translate(164.429 102.317)" fill="#e8550c"/><path d="M998.567,604.322v-4.545h3.569V598.51h-3.569v-3.864h4.48v-1.267H997.3v12.21h6.362v-1.267Z" transform="translate(-825.334 -491.062)" fill="#e8550c"/></g></svg>