<svg width="362" height="49" viewBox="0 0 362 49" fill="none" xmlns="http://www.w3.org/2000/svg">
<path d="M0 47.39V0.72998H9.89V47.39H0Z" fill="#0F0F0F"/>
<path d="M41.39 47.39L30.15 10.8H29.86C30.2667 18.2466 30.47 23.2133 30.47 25.7V47.4H21.63V0.72998H35.1L46.1 36.41H46.29L58 0.72998H71.47V47.39H62.25V25.3C62.25 24.26 62.25 23.0566 62.25 21.69C62.25 20.3233 62.4233 16.6933 62.77 10.8H62.48L50.48 47.34L41.39 47.39Z" fill="#0F0F0F"/>
<path d="M115.49 15.28C115.49 20.2933 113.917 24.1333 110.77 26.8C107.623 29.4666 103.16 30.8 97.38 30.8H93.14V47.39H83.25V0.72998H98.15C103.81 0.72998 108.113 1.94665 111.06 4.37998C114.007 6.81332 115.483 10.4466 115.49 15.28ZM93.15 22.68H96.41C99.45 22.68 101.727 22.08 103.24 20.88C104.005 20.2455 104.61 19.4393 105.004 18.527C105.399 17.6146 105.572 16.622 105.51 15.63C105.51 13.31 104.877 11.5966 103.61 10.49C102.343 9.38331 100.343 8.82998 97.61 8.82998H93.11L93.15 22.68Z" fill="#0F0F0F"/>
<path d="M162.27 0.72998V30.92C162.34 34.0941 161.542 37.2271 159.96 39.98C158.393 42.6142 156.059 44.7074 153.27 45.98C150.02 47.4309 146.488 48.1381 142.93 48.05C136.93 48.05 132.263 46.5133 128.93 43.44C125.597 40.3666 123.93 36.16 123.93 30.82V0.72998H133.79V29.29C133.79 32.8833 134.513 35.52 135.96 37.2C137.407 38.88 139.8 39.72 143.14 39.72C146.373 39.72 148.707 38.8733 150.14 37.18C151.573 35.4866 152.303 32.82 152.33 29.18V0.72998H162.27Z" fill="#0F0F0F"/>
<path d="M173.7 47.39V0.72998H183.59V39.22H202.51V47.39H173.7Z" fill="#0F0F0F"/>
<path d="M238.16 34.4301C238.248 36.3382 237.881 38.2398 237.09 39.9784C236.299 41.7169 235.106 43.2427 233.61 44.4301C230.577 46.8568 226.36 48.0701 220.96 48.0701C216.403 48.1444 211.89 47.1693 207.77 45.2201V36.0202C210.354 37.2283 213.029 38.2314 215.77 39.0202C217.725 39.563 219.741 39.852 221.77 39.8802C223.525 39.9933 225.271 39.5601 226.77 38.6401C227.347 38.2188 227.809 37.6591 228.113 37.0125C228.417 36.366 228.554 35.6533 228.51 34.9402C228.521 34.0654 228.251 33.2102 227.74 32.5002C227.119 31.6846 226.357 30.9869 225.49 30.4402C223.553 29.2707 221.55 28.2156 219.49 27.2802C217.194 26.2793 215.039 24.9816 213.08 23.4202C211.679 22.2143 210.521 20.7513 209.67 19.1102C208.785 17.3286 208.346 15.3589 208.39 13.3702C208.303 11.5356 208.636 9.70534 209.364 8.01909C210.092 6.33284 211.195 4.83511 212.59 3.64015C215.39 1.28015 219.257 0.100152 224.19 0.100152C226.531 0.0892237 228.863 0.378244 231.13 0.960153C233.492 1.59218 235.802 2.40457 238.04 3.39015L234.77 11.0402C232.763 10.1834 230.697 9.46831 228.59 8.90015C227.021 8.50224 225.409 8.29739 223.79 8.29015C222.242 8.18637 220.709 8.65229 219.48 9.60015C218.991 10.0202 218.602 10.5446 218.343 11.1347C218.083 11.7249 217.959 12.3658 217.98 13.0102C217.962 13.8127 218.174 14.6036 218.59 15.2902C219.099 16.0418 219.755 16.6815 220.52 17.1702C222.537 18.3861 224.624 19.4814 226.77 20.4502C231.13 22.5368 234.13 24.6268 235.77 26.7202C237.416 28.946 238.258 31.6638 238.16 34.4301Z" fill="#0F0F0F"/>
<path d="M246.62 47.39V0.72998H256.51V47.39H246.62Z" fill="#0F0F0F"/>
<path d="M310.61 23.99C310.61 31.71 308.697 37.6467 304.87 41.8C301.043 45.9533 295.553 48.0267 288.4 48.02C281.253 48.02 275.763 45.9467 271.93 41.8C268.097 37.6533 266.183 31.6967 266.19 23.93C266.19 16.1633 268.11 10.2333 271.95 6.14C275.79 2.04667 281.293 0 288.46 0C295.627 0 301.11 2.06333 304.91 6.19C308.71 10.3167 310.61 16.25 310.61 23.99ZM276.56 23.99C276.56 29.2033 277.56 33.13 279.56 35.77C281.56 38.41 284.517 39.7433 288.43 39.77C296.323 39.77 300.27 34.5267 300.27 24.04C300.27 13.5533 296.333 8.28333 288.46 8.23C284.527 8.23 281.56 9.56333 279.56 12.23C277.56 14.8967 276.56 18.8167 276.56 23.99Z" fill="#0F0F0F"/>
<path d="M361.67 47.39H349.09L328.77 12.09H328.48C328.887 18.3233 329.09 22.77 329.09 25.43V47.43H320.25V0.72998H332.77L353.03 35.67H353.25C352.93 29.61 352.77 25.32 352.77 22.8V0.72998H361.67V47.39Z" fill="#0F0F0F"/>
</svg>
