<svg xmlns="http://www.w3.org/2000/svg" xmlns:xlink="http://www.w3.org/1999/xlink" width="194.971" height="112.366" viewBox="0 0 194.971 112.366"><defs><clipPath id="a"><path d="M0,38.97H194.971V-73.4H0Z" transform="translate(0 73.396)" fill="none"/></clipPath></defs><g transform="translate(0 73.396)"><g transform="translate(0 -73.396)" clip-path="url(#a)"><g transform="translate(0 50.84)"><path d="M7.482,1.711c6.575-2.766,12.872-6.268,19.967-4.417,2.528.657,3.4,5.418.7,6.876a4.205,4.205,0,0,1-4.037-.026c-.87-.594-1.3-1.506-2.35-1.839a7.057,7.057,0,0,0-5.17.571C10.553,5.777,4.249,8.034.366,14.022a4.964,4.964,0,0,0-.416,4.2,4.371,4.371,0,0,0,2.482,2.894c5.357,2.143,9.556-2.277,16.1-1.22,1.689.268,3.483-1.525,5.383-1.969.37-.078,1.1.361,1.467.68,1.216,1.044,1.34,2.6,2.035,4.019.873,1.774.306,4.492-1.954,4.971C20.036,28.742,15.2,31.265,9.9,31.173c-7.4-.122-15.045.064-21.81-3.641-3.944-2.172-1.6-6.967-.25-10.308.649-1.6.9-3.671,2.682-4.472a23.223,23.223,0,0,0,5.329-3.39c.43-.352.873-1.249,1.369-1.565C.686,5.643,3.814,3.256,7.482,1.711" transform="translate(14.092 3.223)"/></g><g transform="translate(38.158 63.061)"><path d="M4.475.461c3.154-.713,2.6,2.607,1.669,4.253C4.369,7.87,2.278,12.382,4.931,15.619c3.85-4.986,9.007-8.446,12.413-14.008C18.8-.751,22-1.745,24.056.056c.749.635.39,2.535-.138,3.458C18.08,13.775,18.134,14.6,15.091,22.08c-5.205,7.2-8.065,16.08-13.263,24-.8,1.22-2.018,2.33-3.321,2.359-2.652.055-3.774-2.808-6-4.414A2.224,2.224,0,0,1-8.293,41.6c1.433-2.13,3.9-3.1,5.5-5.26.94-1.3,1.532-2.7,2.333-4.059,3.907-6.628,9.751-11.879,11.741-19.411-2.77,1.787-3.987,4.9-6.575,6.92C2.873,21.234.856,24.337-1.369,22.12c-4.305-4.31-1.28-8.5,2.018-14.339a39.939,39.939,0,0,0,2.194-5.7A2.328,2.328,0,0,1,4.475.461" transform="translate(8.428 0.869)"/></g><g transform="translate(67.736 63.447)"><path d="M3.862,1.667c2.247-1.684,4.155-5.488,7.053-4.7.706.191,4.1,4.175,3.936,5.8-.4,3.974-6.505,8.385-2.867,12.1,3.241-1.438,6.217-4.287,9.988-3.272,5.1-4.809,13.05-13.122,15.956-13.341,1.742-.126,3.954-.847,5.9-.344,1.089.268,1.288,1.32.517,1.829C41.723,1.476,37.341,2.9,35.865,5.609c-.468.851-1.583,2.832.06,2.639,1.41-.175,3.509-3.138,3.8-4.441.162-.723,4.625-1.228,5,.779.3,1.536.149,3.927,1.758,4.751.937.479,2.13.052,3.272-.259,1.673-.47,1.412,1.805.475,2.436-4.839,3.246-9.931,7.427-11.724,4.4-.862-1.461-.37-4.966-2.312-4.769-1.9.185-2.95,2.92-3.7,5.037-.566,1.6-1.931,3.84-3.792,3.076-2.75-1.118-4.677-2.9-7.339-5.214a3.36,3.36,0,0,0-2.711-.152c-3.668,1.329-5.678,5.263-9.516,6.367-3.429.981-5.7-1.882-6.546-4.79C1.619,12.114,5.252,9.743,5.563,6.4,5.6,6.033,5.22,5.089,4.8,5.2.49,6.321-2.721,10.925-7.265,10.41a2.779,2.779,0,0,1,.468-1C-3.274,6.633.209,4.384,3.862,1.667" transform="translate(7.274 3.139)"/></g><g transform="translate(126.317 62.195)"><path d="M4.059,2.835C3.2,4.409,3.171,6.089,2.688,7.764c-.054.184.309.49.553.3C7.3,4.775,9.457.178,13.7-2.832c2.05-1.47,4.7.625,5.53,2.976.6,1.707-.6,3.137-.937,4.875-.424,2.3-.39,5.4,1.745,6.338,1.11.494,4.982-1.92,5.262-2.607,2.541-6.37,7.765-10.388,13.41-13.413,2.889-1.546,5.88-.2,8.321,1.572,2.557,1.863,7.321,7,5.637,11.5-1.338,1.944-1.943,4.135-3.4,6.109a8.559,8.559,0,0,1-8.145,3.256c-5.345-.638-11.338-1.559-15.287-5.6-2.841.273-2.811,2.7-5.767,4.732a6.888,6.888,0,0,1-10.052-2.044c-1.663-2.658.19-5.4-.446-8.192C6.5,9.5,4.046,12.643,1.214,15.809c-1.027,1.15-2.479,2.76-3.78,1.764-1.776-1.349-5.449-2.661-5.048-4.068.842-2.961,6.277-10.6,9.437-16.242.482-.853,1.5-1.9,2.529-1.8.752.073,1.935.3,2.185,1.262C7.156-.9,5.139.831,4.059,2.835M35.69,4.322c-.565.612-.914,1.779-.6,2.085,2.456,2.492,8.832,4.1,9.509,3.523,1.012-.84,1.416-2.892,1-3.535C43.739,3.67,44.869-.086,42.043-.378c-2.482-.262-4.457,2.694-6.353,4.7" transform="translate(7.644 5.34)"/></g><g transform="translate(136.421 96.861)"><path d="M4.436.894a2.575,2.575,0,0,0-2.567-2.57l-7.644-.006A2.576,2.576,0,0,0-8.348.883L-8.354,8.53A2.576,2.576,0,0,0-5.788,11.1l7.646.008A2.579,2.579,0,0,0,4.43,8.541Z" transform="translate(8.354 1.683)" fill="#e93994"/></g><g transform="translate(154.795 96.876)"><path d="M4.438.895A2.577,2.577,0,0,0,1.872-1.677l-7.649-.008A2.576,2.576,0,0,0-8.349.881L-8.358,8.53A2.575,2.575,0,0,0-5.792,11.1l7.652.008A2.579,2.579,0,0,0,4.432,8.54Z" transform="translate(8.358 1.685)" fill="#541e5b"/></g><g transform="translate(173.175 96.893)"><path d="M4.436.9A2.574,2.574,0,0,0,1.87-1.678l-7.644-.009A2.575,2.575,0,0,0-8.346.877l-.009,7.649A2.578,2.578,0,0,0-5.786,11.1l7.643.006A2.581,2.581,0,0,0,4.429,8.537Z" transform="translate(8.355 1.687)" fill="#ff6f28"/></g><g transform="translate(122.613 16.565)"><path d="M10,2.052C5.889-5.1-3.469-5.878-10.9.318s-10.123,17.02-6.011,24.174,13.472,7.93,20.9,1.735S14.115,9.207,10,2.052M-13.915,21.995C-17.112,16.433-15.02,8.019-9.243,3.2S3.809-1.013,7.007,4.549,8.112,18.525,2.335,23.342s-13.051,4.215-16.25-1.347" transform="translate(18.837 3.865)" fill="#9a9b9f"/></g><g transform="translate(124.971 27.925)"><path d="M8.427,3.437C.459,20.842-22.07,14.755-14.244-4.59c.54-1.15.521-1.075.961-1.883-.426.813-.4.729-.926,1.9C-21.56,14.582.3,20.4,8.427,3.437" transform="translate(15.871 6.473)" fill="#9a9b9f"/></g><g transform="translate(126.434 17.494)"><path d="M0,3.351C6.217-7.552,19.331-10.028,24.629.066c1.831,3.792,1.94,8.906-.678,14.605,2.465-5.952,2.394-11.426-.594-15.939C18.26-8.76,6.471-7.082,0,3.351" transform="translate(0 6.312)" fill="#9a9b9f"/></g><g transform="translate(125.372 19.549)"><path d="M4.941,4.93l-1.089-1.9L13.495-5.8,15.2-2.835ZM4.92,4,2.992,3.174,8.312-9.038l3.016,1.286Zm-.449-.7-2.249.473L1.792-8.545l3.521-.741Zm-.758-.276L1.744,4.664-4.317-4.454l3.079-2.57Zm-.862.222L1.692,5.616-8.38,2.135l1.816-3.708Zm-.735.661L2.075,6.368-9.306,9.462l.064-3.855Zm-.41.922L2.793,6.722l-9.64,8.838-1.705-2.969Zm.02.934,1.927.821L-1.665,18.795-4.683,17.51Zm.45.7,2.251-.475L4.855,18.3l-3.521.741Zm.758.274L4.9,5.093l6.063,9.118-3.082,2.57ZM3.8,6.512l1.16-2.37,10.071,3.48L13.211,11.33Zm.735-.661.041-2.462L15.953.3,15.889,4.15ZM2.383,5.664C1.694,4.465,3.575,2.9,4.264,4.093S3.072,6.864,2.383,5.664ZM4.5,3.894a1.167,1.167,0,0,0-1.834-.153,1.774,1.774,0,0,0-.527,2.123,1.167,1.167,0,0,0,1.834.152A1.773,1.773,0,0,0,4.5,3.894Zm-1.678,1.4A.742.742,0,0,1,3.049,4.4c.657-.55,1.206.407.55.957A.49.49,0,0,1,2.827,5.293Z" transform="translate(9.306 9.286)" fill="none" stroke="#9a9b9f" stroke-width="0.65"/></g><g transform="translate(7.596 9.381)"><path d="M2.908,5.627A42.267,42.267,0,0,0-1.22,16.372c-.037.165-.061.332-.1.5-.412,1.927-1.089,2.136-2.639.813a4.614,4.614,0,0,1-1.382-4.743A22.841,22.841,0,0,1-3.294,7.355C-1.56,3.728.447.236,2.023-3.469c.325-.762.6-1.546.969-2.525a10.619,10.619,0,0,0-2.621,1.1c-.26.113-.524.386-.818.2-.344-.217-.234-.608-.19-.932A4.085,4.085,0,0,1,1.609-8.671a14.094,14.094,0,0,1,5.934-1.7,25.719,25.719,0,0,1,8.958.334c2.283.608,4.178,1.744,4.815,4.2A6.089,6.089,0,0,1,19.2.555c-2.724,2.454-6.127,3.354-9.59,4.02-1.127.217-1.436.533-1.041,1.635,1.3,3.628,2.932,7.041,5.969,9.573.592.5.554.8-.029,1.262a4.2,4.2,0,0,1-5.861-.291A19.428,19.428,0,0,1,4.22,9.428c-.442-1.138-.8-2.307-1.312-3.8M12.683-8.579a15.58,15.58,0,0,0-2.995.545,1.821,1.821,0,0,0-1.3,1.246,88.19,88.19,0,0,1-4.045,9.3c-.438.857-.165,1.069.669.92A18.664,18.664,0,0,0,12.438.657a8.708,8.708,0,0,0,3.794-4.91c.781-2.864-.348-4.33-3.549-4.326" transform="translate(5.476 10.597)" fill="#9a9b9f"/></g><g transform="translate(29.324 19.796)"><path d="M3.933,4.089C2.909,5.16,2.076,6.079,1.193,6.947A10.158,10.158,0,0,1-2.722,9.465c-3.093,1.024-5.006-.553-4.642-3.823a15.673,15.673,0,0,1,12.082-13,11.462,11.462,0,0,1,7.329.554c.909.421,1.021.842.539,1.733A38.782,38.782,0,0,0,8.039,6.708,19.906,19.906,0,0,0,7.672,9.6c-.028,1.122-.556,1.216-1.375.818-1.635-.8-2.163-2.293-2.35-3.95a23.085,23.085,0,0,1-.014-2.376m5-9.526c-.551-.044-.8-.083-1.047-.081C4.431-5.506,2.2-3.421.282-.9a9.461,9.461,0,0,0-2.038,4.72c-.126,1.191.37,1.574,1.5,1.2A5.958,5.958,0,0,0,2,3.415C4.619.808,6.479-2.381,8.938-5.437" transform="translate(7.408 7.701)" fill="#9a9b9f"/></g><g transform="translate(70.086 15.477)"><path d="M0,6.813a15.438,15.438,0,0,1,4.169-9.63c4.584-5.3,9.965-9.314,17.237-9.986,3.191-.294,4.8,1.63,4.1,4.761A8.514,8.514,0,0,1,22.02-3.087,21.9,21.9,0,0,1,11.443.948,2.561,2.561,0,0,0,9.09,2.7,12.768,12.768,0,0,0,7.8,7.554,1.732,1.732,0,0,0,9.78,9.5c2.358.02,4.166-1.188,5.851-2.635A20.807,20.807,0,0,0,18.8,3.409c.21-.285.435-.7.859-.6.508.122.554.628.609,1.062a5.2,5.2,0,0,1-1.987,4.648A16.675,16.675,0,0,1,4.733,12.682C1.391,12.287-.114,10.2,0,6.813M13.245-2.231a17.412,17.412,0,0,0,1.943-.429C18-3.606,20.715-4.715,22.17-7.57c.269-.528.6-1.145.118-1.756-.528-.664-1.194-.505-1.878-.309-3.586,1.024-5.822,3.7-7.927,6.514-.611.819.055.908.762.889" transform="translate(0.004 12.832)" fill="#9a9b9f"/></g><g transform="translate(48.277 15.219)"><path d="M.009,6.619A36.846,36.846,0,0,1,5.722-9.055c1.822-2.825,4.273-3.789,6.833-3.054,1.367.39,1.877.889.949,2.345A44.632,44.632,0,0,0,7.621,3.768a6.7,6.7,0,0,0-.26,1.471c-.009.9-.478,2.022.43,2.636,1.024.694,2.062-.029,2.965-.533a14.309,14.309,0,0,0,4.458-4.236,58.211,58.211,0,0,0,7.349-14.1c.21-.556.231-1.378.983-1.465.779-.092,1.19.619,1.571,1.173a3.956,3.956,0,0,1,.349,3.595c-1.491,4.913-4.4,8.959-7.816,12.664C14.3,8.6,10.569,11.726,5.614,12.919c-4.253,1.024-5.857-.351-5.6-6.3" transform="translate(0.017 12.466)" fill="#9a9b9f"/></g><g transform="translate(93.508 0)"><path d="M0,12.253C.173,7.577,1.995,3.376,3.952-.741A83.763,83.763,0,0,1,15.023-18.312,14.922,14.922,0,0,1,19.7-22.3a6.152,6.152,0,0,1,4.172-.649c.818.175,1.724.386,2.016,1.179.323.877-.683,1.217-1.17,1.719C15.506-10.528,8.785.434,5.418,13.329a24.768,24.768,0,0,0-.69,4.623c-.1,1.462-.738,1.764-1.944.914C.5,17.257-.09,14.895,0,12.253" transform="translate(0.006 23.076)" fill="#9a9b9f"/></g><g transform="translate(101.194 16.844)"><path d="M5.8,4.345a43.353,43.353,0,0,1-6.355.534A1.231,1.231,0,0,0-1.8,5.747c-.978,1.987-1.989,3.959-2.987,5.937a10.845,10.845,0,0,1-1.448,2.149,3.29,3.29,0,0,1-4.04.886c-.7-.314-.85-.663-.383-1.338A71.674,71.674,0,0,0-5.993,5.288c.337-.652.416-1.073-.34-1.5A2.231,2.231,0,0,1-7.38,1.464c.049-.537.24-.724.814-.476,2.13.919,2.151.908,3.08-1.18A47.509,47.509,0,0,0-.87-7.188c.208-.781.566-1,1.341-.769a2.55,2.55,0,0,1,1.9,3.108A28.718,28.718,0,0,1,.249,1.212C-.287,2.474-.264,2.54,1.1,2.54c1.421,0,2.84-.04,4.259-.06A2.046,2.046,0,0,0,7.389,1.212a36.6,36.6,0,0,1,4.669-7.349c1.52-1.8,3.5-2.465,5.34-1.785.94.348.969.517.3,1.245A42.247,42.247,0,0,0,7.428,12.733,19.473,19.473,0,0,0,7.089,15.3c-.095,1.036-.357,1.2-1.307.715A4.371,4.371,0,0,1,3.7,11.4,27.33,27.33,0,0,1,5.6,4.948c.063-.156.106-.32.2-.6" transform="translate(10.924 8.183)" fill="#9a9b9f"/></g><g transform="translate(161.138 23.25)"><path d="M0,4.606A10.452,10.452,0,0,1,2.825-1.907c3.1-3.579,6.742-6.3,11.66-6.748,2.154-.2,3.243,1.107,2.77,3.226a5.759,5.759,0,0,1-2.365,3.348A15.149,15.149,0,0,1,7.61.667,1.482,1.482,0,0,0,6.258,1.6,9.235,9.235,0,0,0,5.276,4.99c-.031,1.035.472,1.461,1.471,1.436a5.979,5.979,0,0,0,3.734-1.7A13.5,13.5,0,0,0,12.64,2.4c.162-.222.322-.582.66-.494.4.1.4.513.423.844A3.558,3.558,0,0,1,12.361,5.77,11.293,11.293,0,0,1,3.2,8.58C.937,8.311-.077,6.9,0,4.606m8.08-6.274a2.937,2.937,0,0,0,2.1-.121c1.926-.574,3.745-1.358,4.778-3.244.21-.383.473-.848.095-1.3s-.824-.308-1.281-.171c-2.552.755-4.054,2.71-5.689,4.835" transform="translate(0.003 8.675)" fill="#9a9b9f"/></g><g transform="translate(177.428 12.776)"><path d="M0,8.3c.1-3.164,1.337-6,2.658-8.791a56.028,56.028,0,0,1,7.568-11.981,8.026,8.026,0,0,1,4.258-3.036,3.427,3.427,0,0,1,1.508-.058c.594.126,1.275.236,1.5.81.245.634-.5.883-.848,1.252A50.45,50.45,0,0,0,3.676,8.976a28.276,28.276,0,0,0-.458,3c-.052.367.031.824-.38,1.007-.447.2-.814-.11-1.141-.372A4.9,4.9,0,0,1,0,8.3" transform="translate(0.004 15.628)" fill="#9a9b9f"/></g><g transform="translate(153.877 18.542)"><path d="M3.43,1.83c1.087,0,1.886-.023,2.685.006,1,.037,1.18.392.672,1.255a1.677,1.677,0,0,1-1.81.916C2.462,3.506,1.271,4.8.33,6.938c-1.554,3.543-3.091,7.056-3.114,11.012-.006.963-.475,1.1-1.2.764a4.391,4.391,0,0,1-2.457-4.131c-.144-2.567.782-4.9,1.745-7.2.179-.43.406-.839.583-1.268.254-.617.969-1.235.712-1.816-.271-.611-1.147-.2-1.751-.268-.687-.072-.756-.421-.542-.949A1.678,1.678,0,0,1-3.847,1.845,2.989,2.989,0,0,0-.581.121c.908-1.453,1.96-2.906,3.8-3.36A5.153,5.153,0,0,1,4.6-3.445c.844.031,1.9.064,2.247.863.277.626-.7,1.03-1.128,1.508A26.642,26.642,0,0,0,3.43,1.83" transform="translate(6.46 3.446)" fill="#9a9b9f"/></g><g transform="translate(138.814 9.232)"><path d="M2.637,1.479A2.8,2.8,0,0,1,.411.513.7.7,0,0,0-.651.343a5.265,5.265,0,0,1-2.719.813A2.334,2.334,0,0,1-4.42.966C-4.665.844-4.984.734-4.967.44c.015-.246.344-.289.56-.387A18.471,18.471,0,0,0-.238-2.4c.765-.623,1.134-.505,1.6.39A9.256,9.256,0,0,0,3.022.325c.24.242.776.4.638.77-.153.421-.7.34-1.023.384" transform="translate(4.967 2.786)" fill="#9a9b9f"/></g></g></g></svg>